<svg fill="none"xmlns="http://www.w3.org/2000/svg" width="244.839" height="33.957"><switch><g><path stroke-width="1"stroke= “#000000”   d="M0 0h23.95v33.957H0V0z"/><path stroke-width="1"stroke= “#000000”   d="M23.95 0H47.9v33.957H23.95V0z"/><path stroke-width="1"stroke= “#000000”   d="M47.9 0h23.95v33.957H47.9V0z"/><path stroke-width="1"stroke= “#000000”   d="M71.851 0h24.684v33.957H71.851V0z"/><path stroke-width="1"stroke= “#000000”   d="M96.602 0h24.684v33.957H96.602V0z"/><path stroke-width="1"stroke= “#000000”   d="M121.285 0h24.685v33.957h-24.685V0z"/><path stroke-width="1"stroke= “#000000”   d="M146.036 0h24.684v33.957h-24.684V0z"/><path stroke-width="1"stroke= “#000000”   d="M170.72 0h24.685v33.957H170.72V0z"/><path stroke-width="1"stroke= “#000000”   d="M195.471 0h24.685v33.957h-24.685V0z"/><path stroke-width="1"stroke= “#000000”   d="M220.156 0h24.684v33.957h-24.684V0z"/><path stroke-width="1"stroke= “#000000”  d="M3.369 19.205c.89-.355 2.356-.623 4.403-.801 0 0 1.229-.663 3.669-1 .069-.01.5-.534 2.401-.867 1.067 0 1.401-.259 2.002.333.235-.902 1.276-1.105 1.935-1.001.46.074.754.396.801.534.267.801 1.4.334 2.001.801-1.534.4-1.534.467-2.135.733-1.067.935-2.068 2.068-3.136 2.068-1.067.267-2.19.355-3.369.267-.066.268-.233.444-.5.534-.4.133-.066-.601-.267-.801s-.2.667-1.135 1.201c-.066-.935-.333-.667-.333-1.201 0-.533.267.867-1.134 1.201-.935.222-2.113.267-3.536.133 1.734-.578 2.757-1.09 3.068-1.534-.333 0-1.2-.066-1.4-.601-.933-.299-2.045-.299-3.335.001z"/><path stroke-width="1"stroke= “#000000”  d="M42.597 18.18c0 .138-.667.2-1.067.333-.601.067-.534.534-.934.468-.4-.067-.334.533-1.268.934.133.733 1.4.601 2.401 1.268 1.935 2.043 1.201 1.268 2.469 4.203.934 1.867 1.2 2.001 1.801 3.803-.066.066-.734-.067-.934-.468-.067.334-.334.067-.268.468-.333-.067-.533-.534-.8-.734-.268-.066.066.467-.134.534-.267 0-.334-.534-.601-.534-.267.066.066.4-.134.467-2.201-2.001-2.868-1.4-2.868-2.401-.534.667-.667-.134-1.268.2-.267-.334-.4-.667-.134-1.134-.066-.334-.467.333-.733.2-.089-.4.066-.846.467-1.335-.445.445-.934.667-1.468.667.066-.667-.066-.434.334-1.067-.4.501-.867.534-1.268.4-.296-.14.267-.533.133-.767-.533 0-1.518-.021-1.601-.234-.218-.56.533-1.268.267-1.667-.208-.312-.801.601-1.001-.2 0-.801-.312-1.135-.934-1.001-.578-.089-1.29-.089-2.135 0-1.268.134-1.802-.333-3.869-.333.667-.334.601-.868 1.801-.868-1.401-.2-.667-.667-3.002-.867 2.001-.533 2.135 0 3.603.468 4.536-.468 1.468-1.001 6.271-1.469.934-.133 2.401-.267 3.869.134.333-.134.4-.333 1.001-.4.533 0 .845.245.934.734.714.045 1.07.112 1.07.198z"/><path stroke-width="1"stroke= “#000000”  d="M48.601 19.916c2.135-.934 3.736-1.734 6.005-2.669 1.334-.4 2.468-.333 3.735-.533 1.868 0 1.135-.534 3.67-.2.533-.066.73-.501 1.268-.467.578 0 .889.177.934.533l1.734.334-1.601.333c-.179.355-.534.556-1.067.601-.801.801-.734 1.201-1.936 1.401 1.468.867 1.535 1.134 4.271 2.535.867.733.867 1 1.134 2.067.267 1.066.938 1.718 1.4 2.335 1.735 3.069 1.535 3.937 3.003 5.338-.734-.067-1.535-.534-1.868-.867-.267-.067-.2.333-.2.533-.4-.133-.534-1.001-1.067-.867-.23 0 .267.334 0 .867-.867-.334-.935-.467-1.067-.867-.2-.267-.467-.734-.2-.801-.134.534 0 .801-.4.801-.334-.667-.467-.2-.733-.801-.534-.934-1.135-.801-1.135-1.935-.267 0-.467.267-.667.601-.2-.267 0-.601-.066-.801-.134.044-.289.111-.467.2-.134-.845-.134-1.445 0-1.801-.534.133-.268.399-1.001.667-.334-.4-.267-.801-.134-1.401-.333.4-.333-.2-.801.134-.6-.601-.667-1.201-1.667-1.201-.334-.801-.2-1.334-.734-1.468-.216.058-.267.667-.4.467s-.133-.667-.333-.8c-.134-.2-.4.399-.601.2 0-.334-.134-.734-.4-.935-.2-.267-.334 0-.667.2-.134-.334-.134-.601-.067-.934-.267-.067-.934.333-.8-.134 0-.467-.268-.267-.534-.267-.333 0 .066-.334-.066-.4-.334-.134-.867.133-1.401.4-.333-.134.268-.667 0-.667-2.072-.065-2.539.469-5.074.269z"/><path stroke-width="1"stroke= “#000000”  d="M91.164 16.919l-1.201-.2c-.133-.4-.355-.624-.667-.668-.934-.066-1.134.468-1.468.668-1.4-.2-1.268-.067-2.335 0-2.001-.334-2.401.267-3.335.467-2.402.333-2.202.601-3.202 1.067-2.269 1.2-2.735 1.268-5.004 1.935.445.043.934 0 1.468-.134-.979.268-1.401.422-1.268.467 2.068-.333 1.936.282 3.469 0 .734-.199.667-.6.867-.8.134.467.067.467.134.867 1.067-.2 1.401-.134 2.001-.134.2.267-.244.574 0 .667.268-.09.623-.179 1.067-.267-.267.311-.378.555-.333.734 1.001.133.801.267 1.601.066-.733.267-.733.267-1.067.667 1.067.2.935.066 1.602.134-.267.267-.2.533-.066.733.399-.2.636-.3.8-.2-.2.229-.333.467-.133.601.667-.134.827-.353 1-.134-.199.534 0 .734.067 1.468.333 0 .667-.133 1-.267.067.533-.199.533-.199 1.067.399.2.867-.2 1.134-.066-.467.267-.467.4-.534.601.468.199.4.133.935 0-.355.267-.467.51-.334.733.355-.224.556-.224.601 0-.134.4 0 .467.066 1.001.667-.334.667.133 1.401.333.398.219.427.703.733.935.601.449 1.335.601 1.268.601-.066 0-.6-.734-.333-.667.222.267.512.555.867.867 0-.534-.045-.913-.134-1.135.601.935.801.801 1.868 1.534.2-.867-.4-1.2-1.001-1.867 1.268 1.468 1.268 1.334 2.002 1.601-1.602-2.001-1.335-1.734-1.935-3.535-.935-1.735-1.602-4.07-2.603-5.004-1.2-.801-1.268-1.135-2.535-1.734-.222-.313-.488-.534-.8-.667.8-.134 1.423-.38 1.867-.734.134-.334.468-.334.734-.601.4-.09.646-.29.733-.601l1.202-.399z"/><path stroke-width="1"stroke= “#000000”  d="M116.782 17.045c-.734-.066-.801-.267-1.602-.4-.2-.4-.267-.333-.667-.467-.934 0-1.4.467-1.935.801-1.601-.2-2.068-.066-2.936.134-3.068.8-2.868.8-4.67 1.534-3.068 1.801-2.602 2.001-3.869 2.668 1.534.4 2.068-.199 3.136-.467-.445.179-.579.4-.4.667.445-.178.733-.244.867-.2-.334.134-.647.706-.334.668 1.802-.134 2.049-.952 3.069-1.001-.267.333-.4.533-.267.867.8-.2.733-.134 1.2-.267-.133.4-.2.4 0 1 .567.134.867-.333.867-.333.268.267 0 .733 0 1.334.734 0 .734.134 1.001 0-.133.534.134.534.334.935.267-.534.467-.334.934-.801-.133.867.334.801.4 1.4.667-.6.733-.733.867-1.4-.267 1 .134 1.134.334 1.868.267-.468.467-.468.533-1.067.066.333.266.524.334.399.2-.667.222-.541.267-.399-.2.867.134 1.067.334 1.801.467-.801.333-1.201.333-1.268.134 1.001 1.001.534 1.868 2.201.267-.934-1.067-2.535-1.534-4.869-.268-1.535-.2-1.868-.935-2.869-.2-.467-.667-.533-.867-.467.534-.268.467-.534.801-1.001 1.001-.134.733-.333 1.001-.667-.065 0 .335-.267 1.536-.334z"/><path stroke-width="1"stroke= “#000000”  d="M141.377 18.003c0-.2-.734-.4-1.335-.4-.089-.178-.244-.333-.467-.467-.355-.178-.823-.178-1.4 0-.534.067-1.067-.867-.534-1.734.467-.2.667-.601.734-.934-.534-.268-.734-.334-1.468-.268-4.337.268-5.671 1.868-7.339 3.336-.533.467.667.334 1.201.334-2.802 0-5.204 2.735-4.804 2.468.4-.267 1.067.4 2.335-.733.134-.067-.467.333-1.001 1.001 1.401-.2 1.401-.4 2.603-.268-.134.467.24.482.601.534.288.041.613-.029 1 0 .836.094.867-.067 1.201-.067.4 0 .356.041.601 0 .601-.133.467-.199.667-.467-.2.534.066.734.4 1.401.467-.4.4-.935.4-1.268 0 .867-.067.601.133 1.134.4-.333.4-.267.534-.801-.2.668-.067 1.135.2 1.868.333 0 .456-.311.667-.2 0 .334 0 .2.4.867.333-.333.133.2.467-.533-.066.667.267.267.667 1.201.334-.668.2-.935-.066-1.535.4.867.533.801.867 1.268.133-1.268-.066-1.534-.467-2.401.2-1.268-.4-1.334-.334-2.234.534-.701 1.001.133 1.602-.435.467-.066.267-.267.6-.467.534-.333 1.268.067 1.335-.2z"/><path stroke-width="1"stroke= “#000000”  d="M165.75 18.569c-.4-.2-.467-.067-1.067-.2.066-.334-.311-.667-.734-.667-.61 0-.634.347-1.4.533-.601.146-.848.202-1.201-.133-1.601-1.001-.733-1.268-2.135-2.936-.601-.468-.801-.734-.267-1.401.867-.935 1.134-1.468 1.134-2.135-.267-.467-5.671-.2-7.538 2.269.337.076 1.12-.447 1.377-.4.291.066-1.244.867-.644.733s1.001-.467 1.401-.467c.178-.003-.134.134-.2.467.252.061.653-.123 1.067-.2.234-.043.526.023.667 0-.267.2-.667.066-1.334 1.135.399.366.934-.101 1.334-.101-.2.367-.733.167-1.001 1.368.134.267.734-.4.601-.134 0 .267-.467.134-.601 1.2.4 0 .534-.467.601-.133-.134.2-.333.2-.333.601.199.2.6-.267.733-.267-.066.133-.4.133-.4.667-2.535.601-3.269 1.2-4.536 2.001.467.327 1.534-.334 1.668-.066-.098.215-.734.394-1.868.733 1.134.134 2.067.134 2.845-.34.69.073 1.239-.127 1.425-.127.267.4 0 .867.467 1.001.2-.334.534-.801.601-1.001.2-.134-.334.733.2.867.601 0 1.268.467 2.401.467 1.201 0 1.468-.399 2.802-.867.801-.066 1.335-.333 1.668-1.2.2-.534.601-.268 1.201-.867.132-.133.799-.2 1.066-.4z"/><path stroke-width="1"stroke= “#000000”  d="M190.701 18.362c-.035-.157-.534-.2-1.335-.334-.441-.206-.512-.601-.934-.601-.867 0-.522.411-1.401.601-.514.111-1.001.134-1.334 0-.334-.133-.422-.247-.667-.4-1.281-.793-.679.017-1.279-1.334-.703-.801-.707-1.638-.455-2.802.064-.3.151-.544.267-.734.4-.655.845-2.041.733-3.002-.093-.812-.733-.934-1.801-1.134-1.401-.267-2.201-.334-3.869-.134-.601.534-1.401.334-2.202 1.401.601-.067.468-.2.935.2.533-.268 1.032-.087 1.067-.066.478.275-.236.248.066.399.4 0 .134.268 0 .601.333-.033.534-.066.4.268.293.215.558-.217.601.066.058.384-.781.627-.601 1.134 1.2.2 1.334.334 1.468.467-.268.067.2.134-1.734.734.199.667.934.4 1 1.067 0 .467-.6.267-.801 1.134.801.134.602.4 1.535.4-.334 0-1.201.267-1.734.801.6.134.4.4.934.467.467.2.4.225.267.467-.434.792-.333 1.001-1.334 1.534-1.001.534-1.755 1.054-2.335 1.468-.309.222-.499.55-.734.801.801-.133.801-.2 1.001-.133.134.267.067-.2 0 .733.4-.334 1.067-.801 1.468-1.067.334 0 .867-.2 1.135 0 .333 0 0-.467 0-.598s.231.387.333.264c.334-.399.267-.6.2-.934.267.2.066.728.4.801 1.268.4 1.4.333 2.802-.067.08-.004.197-.061.287-.063.08.095.047.2.247.264.104-.156.328-.204.455-.206.035 0-.016-.063 0-.058.667.2 1.146.264 2.146.063.867-.533 1.602-.333 2.335-1.134.934-.4.934-.667 1.134-1.067.267-.2.6 0 1.334-.267z"/><path stroke-width="1"stroke= “#000000”  d="M216.32 19.047c-.535-.2-.469-.134-1.135-.268-.508-.219-.334-.733-1.4-.867-1.074.069-1.002.935-2.068.867-.697-.043-.867-.467-1.402-.733-.533-.267-.867-.333-1.268-.801-.867-2.802-.084-.638-.199-3.936-.018-.505-.4-2.936-.066-3.603.533-.2.322-.921 0-1.468-2.135-2.269-2.684-3.871-4.004-5.271-.266-.066.334.801-.133.467-.588-.339-.467-.934-1.535-1.468.066.334.268.801.135 1.001-.334-.2-.936-1.534-1.336-1.534.068.267.535.733.535 1.534 0 .267-.934-.4-.602-.066.334.333.467.867.602 1.268.482.879 1.467 1.534 1.467 1.467-.199-.066-1.133-.8-1.734-.733.133.334.533.467.668 1.134-.135.134 0 .2-.535 0 .268 1.268.936 1.868 2.336 2.735.174.283-.74-.278-.934-.066-.174.188.111.574.334 1.001.611 1.174 1.221 1.262 1.334 2.001-.066.267-.652-.084-.936.134-.15.115.318.383.268.667-.051.283-.615.112-.533.4.166.198-.133.801-.066 1.134.066.334.266.4.266.734 0 .333.467-.134.535.4.332.267-.068.267-.535.8.334.334.668.267.535.935-.135.667-.469.4-.801.801-.334.467-.201.733-.668 1.134-.6.533-1 .267-2.068 1.067-.867.467-.934.133-2.002.867 1.201.133 2.402.801 4.537.334.334.133-.334.333-.133.467.934.066 1.066.2 1.535 0-.268.2-.709.58-.469.6.57.05 1.561-.063 2.002 0 .561.081.852.334 1.801.334.514 0 1.084-.546 1.402-.467.486.12.4.195 1.133 0 1.291-.344 1.602-.601 2.604-1.268.533-.801.867-.601 1.334-1.401.73-.133 1.199-.133 1.199-.333z"/><path stroke-width="1"stroke= “#000000”  d="M239.816 18.246c0-.171-.334-.267-.867-.467-.283-.209 0-.534-.668-.667-1.135 0-.736.599-1.4.8-.668-.066-.602-.133-1.4.067-.277.069-.262-.721-.4-.867-.199-.204-.334-.2-.668-.534-.199-.733.4-1.602.201-3.002-.09-.622-.313-1.438-.602-2.201-.164-.874-.133-.668-.867-1.535-1.4-1.867-2.469-2.468-3.135-4.47-.332-.304-.047.83-.334.734-.514-.171-1.027-1.268-1.268-1.268-.193 0 .5 1.193.266 1.534-.199.293-1.133-.512-1.133-.334 0 .223.533 1.068 1 1.268-.266.268-.633-.307-.734-.066.469.601.068.734.4 1.602.385.804.734.533 1.068 1.2-.242.278-1.635-.453-1.734-.2-.068.169.646.181 1.133.668.4.399.121.898.4 1.066.334.201.135.4.535.868.4.467.666-.134.533.533-.063.312-.268.29-.268.601 0 .356.535-.066.4.334 0 .171-.266.267-.4.533 0 .048.506-.098.535.066.07.437-.482.787-.268 1.135.219.354.801.267 1.135.2-.334.267-.867.263-.867.601 0 .63.666.867.266 1.2.135.334-.334.601-.266.867.066.267.344.565.666.667.217.069.602.134.4.2-.4.134-.467-.066-.801.2-.283 0-.133-.4-.666-.267-1.602.267-4.004 1.334-4.871 2.269-.133.2.801-.2 1.4-.268-.533.2-1.334.468-.332.4.732.067 1.867 0 3.803-.333 1.432-.044 1.133.467 2.602.133.734.2 1.867.4 2.869-.333.934-.134 1.039-.657 2.201-1.535.4-.133.732-.733.934-1.134.52-.234.802-.065 1.202-.265z"/></g></switch></svg>