<svg fill="none"xmlns="http://www.w3.org/2000/svg" width="36.096" height="36.097"><switch><g class="blacksun"><path stroke-width="1"stroke= “#000000”  d="M2.39 14.995c.269.466.564.922.868 1.352.34-.465.708-.913 1.083-1.343-.385-.43-.752-.886-1.092-1.352-.304.439-.59.887-.859 1.343z"/><path stroke-width="1"stroke= “#000000”  d="M1.602 16.517c.206.457.43.896.681 1.325.269-.457.555-.896.859-1.316-.304-.43-.591-.869-.859-1.325-.251.43-.475.869-.681 1.316z"/><path stroke-width="1"stroke= “#000000”  d="M3.384 13.482c.349.475.716.94 1.101 1.378.439-.483.896-.94 1.379-1.37-.483-.43-.949-.895-1.388-1.378-.385.439-.752.896-1.092 1.37z"/><path stroke-width="1"stroke= “#000000”  d="M5.998 25.515c.573-.501 1.182-.967 1.808-1.396-.626-.421-1.226-.887-1.79-1.379-.493.438-.958.904-1.406 1.396.439.483.905.94 1.388 1.379z"/><path stroke-width="1"stroke= “#000000”  d="M5.864 22.605c-.483-.43-.94-.886-1.379-1.37-.385.439-.752.895-1.101 1.379.34.475.708.931 1.092 1.37.439-.484.904-.941 1.388-1.379z"/><path stroke-width="1"stroke= “#000000”  d="M4.342 21.092c-.385-.43-.743-.877-1.083-1.343-.304.439-.6.886-.868 1.352.269.465.555.913.859 1.343.349-.475.716-.922 1.092-1.352z"/><path stroke-width="1"stroke= “#000000”  d="M.984 18.048c.152.438.322.859.51 1.28.206-.438.43-.868.672-1.28-.242-.421-.457-.842-.672-1.28-.187.42-.357.841-.51 1.28z"/><path stroke-width="1"stroke= “#000000”  d="M4.61 11.96c.448.492.913.958 1.406 1.396.573-.492 1.172-.958 1.79-1.378-.626-.421-1.235-.896-1.808-1.397-.483.44-.949.896-1.388 1.379z"/><path stroke-width="1"stroke= “#000000”  d="M3.133 19.57c-.305-.43-.591-.868-.859-1.316-.242.43-.466.869-.681 1.325.206.448.43.886.671 1.316.278-.457.565-.895.869-1.325z"/><path stroke-width="1"stroke= “#000000”  d="M8.156 8.935c.833.546 1.709 1.012 2.623 1.415a18.4138 18.4138 0 0 1 5.38-1.406c-1.871-.197-3.688-.671-5.398-1.415-.913.403-1.782.868-2.605 1.406z"/><path stroke-width="1"stroke= “#000000”  d="M25.568 10.465c.886.394 1.728.859 2.533 1.388.636-.43 1.253-.896 1.835-1.406-.573-.501-1.182-.967-1.826-1.388-.805.538-1.655 1.004-2.542 1.406z"/><path stroke-width="1"stroke= “#000000”  d="M30.089 10.582c-.573.501-1.182.967-1.809 1.397.627.42 1.227.886 1.791 1.378.493-.438.958-.904 1.406-1.396-.43-.484-.895-.94-1.388-1.379z"/><path stroke-width="1"stroke= “#000000”  d="M30.232 13.491c.483.43.94.886 1.379 1.37.385-.438.752-.895 1.101-1.378-.34-.475-.708-.931-1.092-1.37-.438.483-.904.94-1.388 1.378z"/><path stroke-width="1"stroke= “#000000”  d="M6.15 10.447c.582.51 1.199.976 1.835 1.406.806-.528 1.656-.994 2.534-1.388-.886-.402-1.737-.868-2.552-1.405-.626.42-1.235.886-1.817 1.387z"/><path stroke-width="1"stroke= “#000000”  d="M31.746 15.004c.385.43.743.877 1.083 1.343.305-.438.6-.886.869-1.352-.269-.465-.555-.913-.859-1.343-.341.475-.709.923-1.093 1.352z"/><path stroke-width="1"stroke= “#000000”  d="M34.494 16.517c-.206-.447-.43-.886-.672-1.316-.269.457-.555.896-.859 1.325.305.43.591.868.859 1.316.233-.429.457-.868.672-1.325z"/><path stroke-width="1"stroke= “#000000”  d="M11.011 7.421c2.211.931 4.593 1.423 7.037 1.423 2.435 0 4.825-.492 7.037-1.423-2.167-.913-4.548-1.405-7.037-1.405s-4.87.501-7.037 1.405z"/><path stroke-width="1"stroke= “#000000”  d="M19.937 8.952c1.88.197 3.697.672 5.38 1.406.914-.403 1.791-.868 2.623-1.415a17.3056 17.3056 0 0 0-2.605-1.396c-1.71.734-3.527 1.208-5.398 1.405z"/><path stroke-width="1"stroke= “#000000”  d="M25.577 7.421c.886.394 1.728.859 2.534 1.388.626-.421 1.235-.886 1.808-1.379-.582-.501-1.19-.967-1.817-1.396-.806.537-1.647.993-2.525 1.387z"/><path stroke-width="1"stroke= “#000000”  d="M31.754 11.969c.385.43.743.877 1.083 1.343.304-.43.591-.868.85-1.325a16.857 16.857 0 0 0-.868-1.352c-.34.457-.689.905-1.065 1.334z"/><path stroke-width="1"stroke= “#000000”  d="M32.963 13.482c.305.421.591.868.851 1.316.242-.421.457-.851.663-1.298-.206-.448-.43-.887-.671-1.316-.261.448-.548.878-.843 1.298z"/><path stroke-width="1"stroke= “#000000”  d="M33.939 14.995c.242.421.457.842.663 1.28.179-.412.349-.833.501-1.262-.152-.43-.322-.859-.51-1.28-.206.439-.422.859-.654 1.262z"/><path stroke-width="1"stroke= “#000000”  d="M10.528 25.631c-.886-.394-1.728-.859-2.533-1.388-.636.43-1.253.896-1.835 1.406.573.501 1.182.967 1.826 1.388.805-.537 1.656-1.003 2.542-1.406z"/><path stroke-width="1"stroke= “#000000”  d="M33.697 18.048c-.269-.466-.555-.914-.869-1.352-.34.465-.698.922-1.083 1.352.385.43.743.877 1.083 1.352.314-.439.601-.886.869-1.352z"/><path stroke-width="1"stroke= “#000000”  d="M30.242 10.447c.483.43.949.886 1.378 1.37.376-.43.734-.887 1.074-1.352-.34-.465-.707-.922-1.092-1.361-.43.466-.886.914-1.36 1.343z"/><path stroke-width="1"stroke= “#000000”  d="M35.103 18.048c-.152-.439-.322-.86-.51-1.28-.206.438-.43.868-.671 1.28.242.42.457.841.671 1.28.187-.42.358-.841.51-1.28z"/><path stroke-width="1"stroke= “#000000”  d="M30.331 7.797c-.081-.081-.17-.152-.26-.232-.564.492-1.164.949-1.781 1.37.626.42 1.226.877 1.79 1.378.484-.43.949-.886 1.379-1.37-.349-.394-.725-.778-1.128-1.146z"/><path stroke-width="1"stroke= “#000000”  d="M35.568 16.544c-.107-.412-.224-.823-.358-1.227-.152.412-.313.815-.492 1.209.179.394.349.806.501 1.217.125-.393.242-.796.349-1.199z"/><path stroke-width="1"stroke= “#000000”  d="M25.076 28.675c-2.211-.931-4.592-1.423-7.037-1.423-2.435 0-4.825.492-7.037 1.423 2.167.913 4.548 1.406 7.037 1.406 2.498 0 4.87-.502 7.037-1.406z"/><path stroke-width="1"stroke= “#000000”  d="M29.937 25.649c-.582-.51-1.2-.976-1.835-1.406-.806.528-1.656.994-2.534 1.388.886.403 1.737.869 2.551 1.406.636-.421 1.245-.887 1.818-1.388z"/><path stroke-width="1"stroke= “#000000”  d="M27.94 27.162c-.833-.546-1.709-1.011-2.623-1.414a18.4125 18.4125 0 0 1-5.38 1.405c1.871.197 3.688.671 5.398 1.415.905-.403 1.782-.869 2.605-1.406z"/><path stroke-width="1"stroke= “#000000”  d="M34.485 19.579c-.206-.457-.43-.896-.68-1.325-.269.457-.555.896-.859 1.316.304.43.591.869.859 1.325.25-.43.474-.868.68-1.316z"/><path stroke-width="1"stroke= “#000000”  d="M16.159 27.144c-1.88-.197-3.697-.671-5.38-1.406-.914.403-1.791.869-2.623 1.415a17.216 17.216 0 0 0 2.605 1.396c1.71-.734 3.527-1.208 5.398-1.405z"/><path stroke-width="1"stroke= “#000000”  d="M33.697 21.101c-.269-.466-.564-.922-.869-1.352-.34.466-.707.913-1.083 1.343.385.43.752.887 1.092 1.352.305-.439.601-.886.86-1.343z"/><path stroke-width="1"stroke= “#000000”  d="M31.486 24.136c-.448-.492-.913-.958-1.406-1.396-.573.492-1.164.958-1.79 1.379.626.42 1.235.895 1.808 1.396.484-.439.949-.896 1.388-1.379z"/><path stroke-width="1"stroke= “#000000”  d="M32.712 22.614c-.349-.474-.716-.94-1.101-1.378-.439.483-.896.94-1.379 1.37.483.43.949.896 1.388 1.379.385-.44.752-.897 1.092-1.371z"/><path stroke-width="1"stroke= “#000000”  d="M10.555 19.57c-.886-.403-1.737-.868-2.551-1.396-.636.43-1.253.896-1.835 1.396.582.501 1.191.967 1.835 1.397.814-.537 1.664-1.003 2.551-1.397z"/><path stroke-width="1"stroke= “#000000”  d="M6.168 16.526c.582.501 1.191.967 1.835 1.396.814-.528 1.665-1.003 2.551-1.396-.886-.403-1.737-.859-2.551-1.397-.635.43-1.253.896-1.835 1.397z"/><path stroke-width="1"stroke= “#000000”  d="M4.619 18.048c.439.483.904.949 1.397 1.388.573-.501 1.182-.958 1.808-1.388-.626-.421-1.235-.887-1.808-1.388-.493.439-.958.905-1.397 1.388z"/><path stroke-width="1"stroke= “#000000”  d="M8.191 15.013c.833.537 1.71 1.012 2.614 1.406 1.692-.734 3.5-1.209 5.372-1.406-1.862-.197-3.68-.671-5.381-1.405-.913.393-1.781.868-2.605 1.405z"/><path stroke-width="1"stroke= “#000000”  d="M29.919 19.57c-.582-.501-1.19-.967-1.835-1.396-.815.528-1.665 1.003-2.552 1.396.887.403 1.737.86 2.552 1.397.645-.43 1.253-.896 1.835-1.397z"/><path stroke-width="1"stroke= “#000000”  d="M25.04 22.605c-2.193-.922-4.566-1.423-6.992-1.423s-4.808.501-6.992 1.423c2.175.913 4.539 1.415 6.992 1.415 2.453-.009 4.817-.502 6.992-1.415z"/><path stroke-width="1"stroke= “#000000”  d="M31.468 18.048c-.438-.483-.904-.949-1.396-1.388-.573.501-1.173.958-1.808 1.388.626.42 1.235.886 1.808 1.388.492-.439.957-.904 1.396-1.388z"/><path stroke-width="1"stroke= “#000000”  d="M11.056 13.491c2.193.922 4.566 1.423 6.992 1.423s4.807-.501 6.992-1.423c-2.175-.913-4.539-1.415-6.992-1.415-2.453.001-4.825.502-6.992 1.415z"/><path stroke-width="1"stroke= “#000000”  d="M27.905 21.083c-.833-.537-1.71-1.012-2.614-1.405-1.692.734-3.5 1.208-5.372 1.405 1.862.197 3.68.671 5.381 1.406a17.859 17.859 0 0 0 2.605-1.406z"/><path stroke-width="1"stroke= “#000000”  d="M25.04 16.526c-2.175-.913-4.548-1.415-6.992-1.415s-4.817.501-6.992 1.415a17.973 17.973 0 0 0 6.992 1.415c2.435.009 4.807-.493 6.992-1.415z"/><path stroke-width="1"stroke= “#000000”  d="M32.712 16.526c-.34-.475-.716-.931-1.101-1.361-.439.483-.896.94-1.379 1.37.483.43.94.886 1.379 1.37.385-.447.752-.905 1.101-1.379z"/><path stroke-width="1"stroke= “#000000”  d="M35.667 16.124c.072-.313.144-.636.197-.949-.063-.394-.144-.779-.233-1.155-.099.34-.206.68-.322 1.012.134.357.25.716.358 1.092z"/><path stroke-width="1"stroke= “#000000”  d="M8.191 18.048c.833.537 1.701 1.011 2.614 1.405 1.71-.743 3.545-1.217 5.425-1.405-1.889-.188-3.715-.672-5.425-1.406-.913.395-1.79.869-2.614 1.406z"/><path stroke-width="1"stroke= “#000000”  d="M19.955 5.917c1.889.197 3.697.671 5.38 1.396.896-.394 1.764-.859 2.587-1.396-.824-.537-1.692-1.012-2.596-1.406-1.701.735-3.509 1.21-5.371 1.406z"/><path stroke-width="1"stroke= “#000000”  d="M19.919 15.013c1.871.197 3.68.671 5.372 1.406.914-.403 1.782-.869 2.614-1.406-.824-.537-1.701-1.002-2.605-1.405-1.701.734-3.51 1.208-5.381 1.405z"/><path stroke-width="1"stroke= “#000000”  d="M29.919 16.526c-.582-.501-1.19-.967-1.835-1.397-.815.528-1.665.994-2.552 1.397.887.403 1.737.868 2.552 1.396.645-.42 1.253-.885 1.835-1.396z"/><path stroke-width="1"stroke= “#000000”  d="M32.712 19.57c-.349-.474-.716-.94-1.101-1.37-.439.483-.896.94-1.379 1.37.483.43.949.887 1.379 1.37.385-.439.752-.896 1.101-1.37z"/><path stroke-width="1"stroke= “#000000”  d="M25.04 19.57a17.9722 17.9722 0 0 0-6.992-1.414c-2.436 0-4.808.501-6.992 1.414 2.175.914 4.548 1.415 6.992 1.415 2.444-.001 4.817-.502 6.992-1.415z"/><path stroke-width="1"stroke= “#000000”  d="M27.905 18.048c-.833-.537-1.701-1.012-2.614-1.406-1.71.743-3.545 1.218-5.425 1.406 1.889.188 3.715.671 5.425 1.405.904-.393 1.781-.868 2.614-1.405z"/><path stroke-width="1"stroke= “#000000”  d="M16.15 24.118c-1.871-.197-3.671-.681-5.354-1.406-.904.394-1.781.877-2.614 1.415.823.537 1.692 1.002 2.596 1.406 1.701-.743 3.51-1.227 5.372-1.415z"/><path stroke-width="1"stroke= “#000000”  d="M25.049 25.64c-2.193-.922-4.575-1.424-7.01-1.424s-4.808.501-7.01 1.424c2.167.913 4.539 1.414 7.01 1.414 2.471-.009 4.843-.51 7.01-1.414z"/><path stroke-width="1"stroke= “#000000”  d="M5.864 19.57c-.483-.43-.94-.886-1.379-1.37-.385.439-.752.896-1.101 1.37.34.475.716.931 1.101 1.361.439-.474.895-.931 1.379-1.361z"/><path stroke-width="1"stroke= “#000000”  d="M6.007 22.471c.573-.501 1.182-.958 1.809-1.388-.627-.421-1.227-.886-1.799-1.378-.494.438-.959.895-1.407 1.387.448.484.913.94 1.397 1.379z"/><path stroke-width="1"stroke= “#000000”  d="M10.537 22.605c-.887-.403-1.737-.868-2.542-1.397-.636.43-1.253.895-1.835 1.396.582.501 1.19.967 1.826 1.396.823-.536 1.674-1.001 2.551-1.395z"/><path stroke-width="1"stroke= “#000000”  d="M27.914 24.127c-.833-.537-1.701-1.021-2.614-1.415-1.683.725-3.483 1.208-5.354 1.406 1.862.197 3.671.68 5.372 1.415.904-.404 1.772-.869 2.596-1.406z"/><path stroke-width="1"stroke= “#000000”  d="M31.477 21.092c-.439-.492-.913-.949-1.406-1.387-.573.501-1.173.958-1.799 1.378.626.421 1.235.886 1.808 1.388.493-.439.958-.895 1.397-1.379z"/><path stroke-width="1"stroke= “#000000”  d="M30.08 13.625c-.573.501-1.182.958-1.808 1.388.626.421 1.227.886 1.799 1.379.493-.439.958-.896 1.406-1.388-.439-.483-.904-.94-1.397-1.379z"/><path stroke-width="1"stroke= “#000000”  d="M29.928 22.605c-.582-.501-1.191-.976-1.835-1.396-.806.528-1.656.994-2.542 1.396.886.394 1.737.868 2.552 1.396.634-.429 1.243-.895 1.825-1.396z"/><path stroke-width="1"stroke= “#000000”  d="M19.946 11.979c1.871.197 3.671.68 5.354 1.405.904-.394 1.781-.877 2.614-1.415-.823-.537-1.692-1.002-2.596-1.405-1.701.743-3.51 1.227-5.372 1.415z"/><path stroke-width="1"stroke= “#000000”  d="M11.038 10.457c2.193.922 4.575 1.423 7.01 1.423 2.435 0 4.807-.501 7.01-1.423a18.0253 18.0253 0 0 0-7.01-1.415c-2.471.009-4.834.51-7.01 1.415z"/><path stroke-width="1"stroke= “#000000”  d="M25.55 13.491c.886.403 1.737.869 2.542 1.396.636-.43 1.253-.895 1.835-1.396-.582-.501-1.191-.967-1.826-1.396a17.594 17.594 0 0 1-2.551 1.396z"/><path stroke-width="1"stroke= “#000000”  d="M8.173 11.969c.833.537 1.701 1.021 2.614 1.415 1.683-.725 3.482-1.208 5.354-1.405-1.862-.197-3.67-.681-5.372-1.415-.894.403-1.772.868-2.596 1.405z"/><path stroke-width="1"stroke= “#000000”  d="M4.619 15.004c.439.492.913.949 1.406 1.388.573-.501 1.173-.958 1.799-1.379-.626-.421-1.235-.886-1.808-1.388-.493.439-.958.896-1.397 1.379z"/><path stroke-width="1"stroke= “#000000”  d="M3.384 16.526c.349.474.716.94 1.101 1.37.439-.483.896-.94 1.379-1.37-.483-.43-.949-.886-1.379-1.37-.385.439-.761.896-1.101 1.37z"/><path stroke-width="1"stroke= “#000000”  d="M6.168 13.491c.582.501 1.191.976 1.835 1.396.806-.528 1.656-.994 2.542-1.396-.886-.394-1.737-.868-2.551-1.396-.635.429-1.253.895-1.826 1.396z"/><path stroke-width="1"stroke= “#000000”  d="M2.399 18.048c.269.465.555.913.869 1.352.34-.465.698-.922 1.083-1.352-.385-.43-.743-.877-1.083-1.352-.314.439-.601.887-.869 1.352z"/><path stroke-width="1"stroke= “#000000”  d="M16.168 21.083c-1.871-.197-3.679-.671-5.372-1.405-.913.403-1.781.868-2.614 1.405.823.537 1.701 1.003 2.605 1.406 1.702-.735 3.519-1.209 5.381-1.406z"/><path stroke-width="1"stroke= “#000000”  d="M.779 15.022a18.015 18.015 0 0 1-.322-1.011c-.09.385-.161.77-.233 1.155.054.322.125.636.197.949.107-.367.232-.726.358-1.093z"/><path stroke-width="1"stroke= “#000000”  d="M.107 18.648c-.027.197-.045.403-.072.609.027.349.054.698.099 1.047.054-.25.107-.501.17-.743-.062-.304-.134-.609-.197-.913z"/><path stroke-width="1"stroke= “#000000”  d="M0 18.048z"/><path stroke-width="1"stroke= “#000000”  d="M.322 16.535c-.063-.25-.125-.492-.17-.743-.044.349-.081.698-.098 1.047.018.206.044.403.071.609.045-.304.117-.609.197-.913z"/><path stroke-width="1"stroke= “#000000”  d="M.43 19.973c-.072.313-.144.635-.197.949.063.394.144.779.233 1.155.099-.34.206-.68.322-1.012-.135-.358-.26-.716-.358-1.092z"/><path stroke-width="1"stroke= “#000000”  d="M2.283 24.315c-.233.403-.448.814-.645 1.244.206.457.438.896.68 1.334.26-.43.537-.85.824-1.253-.304-.43-.591-.869-.859-1.325z"/><path stroke-width="1"stroke= “#000000”  d="M3.268 25.81c-.295.412-.573.841-.833 1.28.269.465.564.913.868 1.352a18.68 18.68 0 0 1 1.047-1.289c-.384-.43-.743-.878-1.082-1.343z"/><path stroke-width="1"stroke= “#000000”  d="M1.504 22.838c-.17.394-.332.788-.475 1.19.152.439.322.869.51 1.289.197-.412.412-.814.636-1.208-.251-.412-.474-.841-.671-1.271z"/><path stroke-width="1"stroke= “#000000”  d="M.886 21.387c-.125.367-.233.734-.332 1.11.107.421.233.824.367 1.235.143-.385.304-.761.465-1.128-.178-.402-.348-.805-.5-1.217z"/><path stroke-width="1"stroke= “#000000”  d="M4.351 8.943c-.367-.411-.717-.841-1.048-1.289-.313.438-.6.886-.868 1.352.259.439.537.869.833 1.28.339-.465.698-.913 1.083-1.343z"/><path stroke-width="1"stroke= “#000000”  d="M6.016 7.296c.573-.501 1.172-.958 1.79-1.379-.608-.412-1.19-.859-1.746-1.343-.492.439-.957.896-1.396 1.388.43.466.878.913 1.352 1.334z"/><path stroke-width="1"stroke= “#000000”  d="M10.519 4.396c-.859-.385-1.683-.842-2.48-1.361-.636.429-1.244.895-1.826 1.396.564.493 1.155.94 1.772 1.361.815-.528 1.657-1.002 2.534-1.396z"/><path stroke-width="1"stroke= “#000000”  d="M5.622 7.646c.081-.072.161-.144.242-.216-.466-.411-.913-.85-1.334-1.316-.385.439-.752.896-1.101 1.37.331.457.689.895 1.056 1.307.358-.394.743-.779 1.137-1.145z"/><path stroke-width="1"stroke= “#000000”  d="M1.387 13.5c-.17-.367-.322-.752-.465-1.137-.134.403-.26.814-.367 1.235.099.376.215.743.332 1.11.151-.411.321-.814.5-1.208z"/><path stroke-width="1"stroke= “#000000”  d="M16.132 2.882c-1.826-.188-3.599-.653-5.291-1.378-.913.403-1.781.868-2.614 1.414.815.528 1.665.985 2.542 1.37 1.693-.734 3.501-1.208 5.363-1.406z"/><path stroke-width="1"stroke= “#000000”  d="M5.864 28.666c-.081-.072-.161-.144-.242-.215-.394-.367-.77-.752-1.128-1.146-.367.421-.726.851-1.057 1.307.34.474.708.931 1.101 1.37.413-.466.86-.904 1.326-1.316z"/><path stroke-width="1"stroke= “#000000”  d="M2.167 11.979c-.224-.394-.439-.797-.636-1.209-.188.421-.358.851-.51 1.29.143.403.304.806.474 1.19.214-.421.429-.851.672-1.271z"/><path stroke-width="1"stroke= “#000000”  d="M3.142 10.457a20.353 20.353 0 0 1-.824-1.253c-.242.43-.474.877-.68 1.334.197.43.412.841.645 1.244.268-.457.555-.896.859-1.325z"/><path stroke-width="1"stroke= “#000000”  d="M6.016 28.8c-.475.42-.922.868-1.352 1.343.438.483.904.949 1.396 1.388.555-.483 1.146-.931 1.746-1.343-.618-.43-1.217-.887-1.79-1.388z"/><path stroke-width="1"stroke= “#000000”  d="M35.774 19.561c.063.251.125.493.17.743.044-.349.081-.698.098-1.047-.018-.206-.044-.403-.071-.609-.054.304-.117.609-.197.913z"/><path stroke-width="1"stroke= “#000000”  d="M35.317 21.074c.117.331.224.671.322 1.012.09-.385.161-.77.233-1.155-.054-.322-.125-.635-.197-.949-.116.367-.232.725-.358 1.092z"/><path stroke-width="1"stroke= “#000000”  d="M34.7 22.596c.17.367.322.752.466 1.137.134-.403.259-.814.367-1.235-.098-.376-.215-.743-.331-1.11-.153.411-.314.814-.502 1.208z"/><path stroke-width="1"stroke= “#000000”  d="M32.945 25.64c.286.403.564.823.823 1.253.242-.43.475-.877.681-1.334-.197-.43-.412-.841-.645-1.244-.268.456-.554.895-.859 1.325z"/><path stroke-width="1"stroke= “#000000”  d="M33.921 24.118c.224.394.439.796.636 1.208.188-.421.358-.851.51-1.289-.143-.403-.304-.806-.475-1.191-.205.422-.429.851-.671 1.272z"/><path stroke-width="1"stroke= “#000000”  d="M35.774 16.535c.081.304.144.6.206.904.027-.206.045-.403.072-.609-.027-.349-.054-.698-.099-1.047-.054.26-.116.51-.179.752z"/><path stroke-width="1"stroke= “#000000”  d="M36.096 18.039c0 .009 0 .009 0 0v0c0 .009 0 .009 0 0z"/><path stroke-width="1"stroke= “#000000”  d="M30.474 28.451c-.081.071-.161.143-.242.215.466.412.913.859 1.334 1.325.385-.438.752-.895 1.101-1.37-.331-.457-.689-.895-1.056-1.307-.367.385-.743.77-1.137 1.137z"/><path stroke-width="1"stroke= “#000000”  d="M19.964 33.214c1.826.188 3.599.653 5.291 1.378.913-.403 1.782-.868 2.614-1.415-.815-.528-1.665-.984-2.542-1.37-1.702.735-3.501 1.21-5.363 1.407z"/><path stroke-width="1"stroke= “#000000”  d="M31.736 27.153c.367.412.716.842 1.048 1.289.313-.438.6-.886.868-1.352-.26-.439-.537-.869-.833-1.28-.33.465-.697.913-1.083 1.343z"/><path stroke-width="1"stroke= “#000000”  d="M11.101 34.7c2.14.896 4.485 1.397 6.947 1.397 2.462 0 4.807-.493 6.947-1.397-2.202-.922-4.539-1.388-6.947-1.388-2.408 0-4.745.475-6.947 1.388z"/><path stroke-width="1"stroke= “#000000”  d="M7.985 30.304c-.618.412-1.208.868-1.772 1.361.582.501 1.19.976 1.826 1.405.797-.519 1.621-.976 2.48-1.361a21.024 21.024 0 0 1-2.534-1.405z"/><path stroke-width="1"stroke= “#000000”  d="M10.77 31.808c-.877.385-1.728.842-2.542 1.37.824.538 1.701 1.012 2.614 1.415 1.692-.725 3.465-1.19 5.291-1.378-1.863-.198-3.671-.673-5.363-1.407z"/><path stroke-width="1"stroke= “#000000”  d="M24.995 1.396C22.855.501 20.51 0 18.048 0c-2.462 0-4.808.492-6.947 1.396 2.202.913 4.539 1.388 6.947 1.388 2.409 0 4.745-.474 6.947-1.388z"/><path stroke-width="1"stroke= “#000000”  d="M25.577 31.701c.859.385 1.683.842 2.48 1.361.636-.43 1.244-.895 1.826-1.396-.564-.493-1.155-.94-1.772-1.361-.815.528-1.656.993-2.534 1.396z"/><path stroke-width="1"stroke= “#000000”  d="M30.08 28.8c-.573.501-1.172.958-1.79 1.378.608.412 1.19.859 1.746 1.343.492-.439.958-.896 1.396-1.388-.43-.465-.877-.912-1.352-1.333z"/><path stroke-width="1"stroke= “#000000”  d="M30.08 7.296c.475-.421.922-.869 1.352-1.343-.438-.483-.904-.949-1.396-1.388-.556.484-1.146.932-1.746 1.344.618.429 1.217.886 1.79 1.387z"/><path stroke-width="1"stroke= “#000000”  d="M.528 16.544c.107.403.224.806.358 1.2.152-.412.322-.814.501-1.217-.179-.394-.34-.797-.492-1.209-.143.403-.26.814-.367 1.226z"/><path stroke-width="1"stroke= “#000000”  d="M3.133 22.614c-.305-.42-.591-.868-.851-1.316-.242.421-.457.851-.663 1.298.206.447.43.886.671 1.316.261-.448.539-.877.843-1.298z"/><path stroke-width="1"stroke= “#000000”  d="M2.157 21.101c-.242-.421-.457-.842-.663-1.28-.179.412-.349.833-.501 1.262.152.43.322.859.51 1.28.198-.438.421-.859.654-1.262z"/><path stroke-width="1"stroke= “#000000”  d="M1.378 19.57c-.179-.394-.349-.806-.501-1.217-.134.394-.25.797-.358 1.2.107.412.224.824.358 1.227.161-.413.322-.816.501-1.21z"/><path stroke-width="1"stroke= “#000000”  d="M4.333 24.127c-.385-.43-.743-.877-1.083-1.343-.304.43-.582.868-.851 1.325.269.466.555.913.869 1.352.339-.457.689-.904 1.065-1.334z"/><path stroke-width="1"stroke= “#000000”  d="M5.846 25.649c-.483-.43-.949-.886-1.378-1.37-.376.43-.734.886-1.075 1.352.34.466.708.922 1.092 1.361.43-.466.886-.913 1.361-1.343z"/><path stroke-width="1"stroke= “#000000”  d="M10.51 28.675c-.887-.394-1.728-.859-2.534-1.388-.627.421-1.235.886-1.809 1.379.582.501 1.191.967 1.817 1.396.807-.537 1.658-.993 2.526-1.387z"/><path stroke-width="1"stroke= “#000000”  d="M5.756 28.299c.081.081.17.152.26.233.564-.493 1.164-.949 1.781-1.37-.626-.42-1.227-.877-1.791-1.378-.483.43-.949.886-1.378 1.37.35.393.734.778 1.128 1.145z"/><path stroke-width="1"stroke= “#000000”  d="M16.132 30.179c-1.889-.197-3.697-.671-5.38-1.396-.896.394-1.764.859-2.587 1.396.824.537 1.692 1.012 2.596 1.406 1.71-.735 3.518-1.209 5.371-1.406z"/><path stroke-width="1"stroke= “#000000”  d="M6.168 7.43c.573.502 1.182.958 1.809 1.379.806-.528 1.656-.994 2.534-1.388-.878-.394-1.72-.859-2.526-1.387-.626.429-1.235.895-1.817 1.396z"/><path stroke-width="1"stroke= “#000000”  d="M8.173 5.917c.824.537 1.692 1.002 2.587 1.396 1.683-.725 3.492-1.2 5.38-1.396-1.862-.197-3.662-.671-5.372-1.406-.903.395-1.771.861-2.595 1.406z"/><path stroke-width="1"stroke= “#000000”  d="M5.756 7.797c-.394.368-.778.752-1.137 1.155.439.484.896.94 1.379 1.37.564-.492 1.164-.958 1.791-1.379-.618-.421-1.209-.877-1.782-1.369l-.251.223z"/><path stroke-width="1"stroke= “#000000”  d="M25.327 4.288c.877-.385 1.728-.841 2.542-1.37a18.4123 18.4123 0 0 0-2.614-1.415c-1.692.725-3.465 1.19-5.291 1.378 1.862.199 3.661.673 5.363 1.407z"/><path stroke-width="1"stroke= “#000000”  d="M.994 15.022c.152.43.322.851.501 1.263.206-.439.43-.869.663-1.28-.233-.412-.457-.833-.653-1.262-.189.42-.359.84-.511 1.279z"/><path stroke-width="1"stroke= “#000000”  d="M1.611 13.5c.206.447.43.877.663 1.298.269-.457.546-.895.85-1.316-.295-.421-.582-.851-.841-1.298-.242.43-.466.869-.672 1.316z"/><path stroke-width="1"stroke= “#000000”  d="M2.399 11.979c.269.457.546.904.851 1.325.34-.465.698-.913 1.083-1.343-.376-.421-.726-.869-1.065-1.334-.305.447-.601.895-.869 1.352z"/><path stroke-width="1"stroke= “#000000”  d="M3.393 10.457c.34.465.699.922 1.075 1.352.438-.483.895-.94 1.378-1.37-.475-.421-.931-.869-1.361-1.343-.385.438-.752.895-1.092 1.361z"/><path stroke-width="1"stroke= “#000000”  d="M.206 18.048c.063.376.134.743.224 1.11.107-.376.215-.743.349-1.11-.125-.367-.242-.734-.349-1.11-.09.367-.161.734-.224 1.11z"/><path stroke-width="1"stroke= “#000000”  d="M35.201 14.709c.125-.367.233-.734.331-1.11-.107-.421-.232-.824-.367-1.235-.144.385-.305.761-.466 1.137.189.393.35.796.502 1.208z"/><path stroke-width="1"stroke= “#000000”  d="M32.82 10.286c.295-.412.573-.841.833-1.28-.269-.465-.564-.913-.868-1.352-.332.448-.681.877-1.048 1.289.385.43.752.878 1.083 1.343z"/><path stroke-width="1"stroke= “#000000”  d="M34.592 13.258c.17-.394.332-.788.475-1.19a15.982 15.982 0 0 0-.51-1.289c-.197.412-.412.814-.636 1.208.242.412.466.842.671 1.271z"/><path stroke-width="1"stroke= “#000000”  d="M35.891 18.048c-.063-.376-.134-.743-.224-1.11-.107.376-.215.743-.349 1.11.125.367.242.734.349 1.11.08-.367.161-.734.224-1.11z"/><path stroke-width="1"stroke= “#000000”  d="M30.232 7.43c.081.072.161.144.242.215.394.367.77.752 1.128 1.146.367-.42.726-.85 1.057-1.307-.34-.475-.708-.931-1.101-1.37-.412.466-.86.905-1.326 1.316z"/><path stroke-width="1"stroke= “#000000”  d="M28.102 5.792c.618-.412 1.208-.868 1.772-1.361-.582-.501-1.191-.976-1.827-1.396-.796.52-1.62.976-2.479 1.361.887.394 1.728.868 2.534 1.396z"/><path stroke-width="1"stroke= “#000000”  d="M25.067 31.692c-2.211-.931-4.583-1.415-7.019-1.415s-4.817.483-7.019 1.415c2.202.922 4.583 1.415 7.019 1.415 2.435-.001 4.817-.484 7.019-1.415z"/><path stroke-width="1"stroke= “#000000”  d="M35.568 19.552c-.107-.403-.224-.806-.358-1.2-.152.412-.322.814-.501 1.217.179.394.34.797.492 1.209.143-.402.26-.814.367-1.226z"/><path stroke-width="1"stroke= “#000000”  d="M11.029 4.404c2.211.931 4.583 1.415 7.019 1.415 2.435 0 4.816-.483 7.019-1.415-2.202-.922-4.583-1.415-7.019-1.415a17.819 17.819 0 0 0-7.019 1.415z"/><path stroke-width="1"stroke= “#000000”  d="M33.805 11.781c.232-.403.448-.824.645-1.244-.206-.457-.439-.896-.681-1.334-.259.43-.537.851-.823 1.253.304.43.59.869.859 1.325z"/><path stroke-width="1"stroke= “#000000”  d="M30.331 28.299c.394-.367.779-.752 1.137-1.155-.438-.483-.895-.94-1.378-1.37-.564.492-1.164.958-1.791 1.378.618.421 1.208.877 1.781 1.37.081-.071.17-.143.251-.223z"/><path stroke-width="1"stroke= “#000000”  d="M27.923 30.179c-.824-.537-1.692-1.002-2.587-1.396-1.683.725-3.492 1.2-5.38 1.396 1.862.197 3.662.671 5.372 1.406.894-.395 1.762-.86 2.595-1.406z"/><path stroke-width="1"stroke= “#000000”  d="M32.694 25.64c-.34-.466-.698-.922-1.074-1.352-.438.483-.895.94-1.378 1.37.474.421.931.869 1.36 1.352.394-.448.752-.905 1.092-1.37z"/><path stroke-width="1"stroke= “#000000”  d="M29.919 28.666c-.573-.501-1.182-.958-1.808-1.379-.806.528-1.656.994-2.534 1.388.877.394 1.719.859 2.525 1.388.635-.43 1.244-.896 1.817-1.397z"/><path stroke-width="1"stroke= “#000000”  d="M33.688 24.118c-.269-.457-.546-.904-.85-1.325-.34.465-.699.913-1.083 1.343.376.421.725.869 1.065 1.334.313-.448.599-.895.868-1.352z"/><path stroke-width="1"stroke= “#000000”  d="M35.103 21.074c-.152-.43-.322-.851-.501-1.262-.206.438-.43.868-.663 1.28.232.412.457.833.653 1.263.188-.421.359-.842.511-1.281z"/><path stroke-width="1"stroke= “#000000”  d="M34.485 22.596c-.206-.448-.43-.877-.663-1.298-.269.457-.546.896-.85 1.316.295.421.582.851.841 1.298.233-.43.457-.869.672-1.316z"/></g></switch></svg>