<svg fill="none"xmlns="http://www.w3.org/2000/svg" width="62.091" height="28.191"><switch><g><g class="cloud" stroke="#000" stroke-miterlimit="10"><path stroke-width="1"stroke= “#000000”  d="M29.346 27.58c-.745-.246-2.124-.974-2.789-1.471-.364-.275-.65-.378-.725-.262-.258.421-1.634.949-2.469.949-1.048 0-1.91-.408-2.594-1.227l-.511-.609-1.294.155c-.711.084-2.601.414-4.194.729-1.596.317-3.525.629-4.289.693-3.228.273-6.429-.953-9.444-3.615-.459-.408-.665-.676-.457-.596 4.257 1.617 5.471 1.715 7.738.632.808-.387 1.471-.777 1.471-.867s-.256-.41-.569-.709c-.313-.3-.75-1.02-.969-1.6-.944-2.502.203-5.435 2.612-6.664.783-.401 1.164-.465 2.56-.448l1.642.02.111-.696c.132-.821 1.083-2.757 1.688-3.429 1.983-2.203 5.295-3.06 8.064-2.089.596.21 1.093.38 1.108.38.015 0 .076-.405.136-.902.253-2.092 1.639-4.013 3.575-4.949 1.065-.517 2.941-.662 4.208-.329.9.235 2.382 1.161 3.044 1.902.56.627 1.229 2.216 1.361 3.228.065.519.161.985.208 1.034.049.047.493-.059.987-.235 2.733-.978 6.017.195 7.646 2.733l.6.936.544-.459c.748-.626 2.183-.913 3.416-.678 1.728.327 3.029 1.786 3.365 3.774.13.774.196.851.924 1.065 1.008.298 2.695 1.247 4.19 2.353 1.171.869 1.739 1.542 1.052 1.249-2.249-.96-2.852-1.105-4.606-1.119-2.093-.016-2.554.161-5.851 2.258-2.856 1.819-4.768 2.729-6.015 2.863-.105.011-.533.116-.951.235-.417.119-1.549.316-2.516.436l-1.759.224-.347.781c-.555 1.254-2.104 2.785-3.662 3.622-1.37.736-1.442.752-3.582.802-1.202.028-2.397-.019-2.66-.105v.005z"/><path stroke-width="1"stroke= “#000000”  d="M34.284 25.462c1.395-.583 2.729-1.894 3.467-3.414.332-.679.676-1.287.768-1.35.089-.065.947-.177 1.905-.249 1.974-.148 4.157-.56 5.139-.969.542-.226.708-.432.884-1.085.719-2.666 3.239-4.9 5.885-5.214.517-.06.938-.143.938-.186 0-.443-.678-1.463-1.175-1.766-1.24-.757-2.373-.432-4.065 1.168l-.989.938-.842-1.775c-.616-1.295-1.039-1.929-1.583-2.356-1.18-.922-1.614-1.086-2.928-1.099-1.108-.009-1.408.078-2.943.871l-1.708.884V7.93c0-2.16-.253-2.867-1.477-4.125-2.339-2.401-5.889-1.726-7.49 1.425-.56 1.102-.792 3.146-.468 4.079.114.322.139.586.058.586-.081 0-.94-.443-1.912-.985-1.705-.951-1.813-.983-3.214-.971-1.972.013-3.366.701-4.507 2.218-.782 1.037-1.019 1.797-1.155 3.682-.128 1.773.042 1.685-1.917.976-1.942-.703-3.523-.293-4.6 1.191-.472.651-.564.958-.557 1.845.004.633.138 1.302.331 1.652.303.551 1.563 1.786 1.82 1.786.063 0 .949-.461 1.968-1.025 3.299-1.824 6.896-2.963 9.356-2.963.907 0 .911-.004 1.198-.839.322-.947 1.56-2.71 2.323-3.311.278-.219.988-.636 1.576-.925.938-.461 1.285-.524 2.78-.515 1.493.012 1.851.083 2.825.564 1.52.754 2.581 1.905 3.104 3.369.508 1.424.526 1.958.121 3.405-.363 1.292-1.433 2.625-2.577 3.209-1.412.721-3.599.464-4.837-.568-.956-.797-1.39-1.723-1.383-2.943.007-1.166.139-1.544.855-2.433 1.457-1.809 4.649-1.3 5.225.833.244.907.038 1.909-.54 2.622-.633.781-2.594.823-3.194.067-.811-1.022-.759-2.053.146-2.813.414-.347.48-.479.25-.479-.448 0-1.347 1.021-1.48 1.681-.355 1.78 1.536 3.474 3.519 3.149.866-.141 2.028-1.031 2.478-1.9 1.902-3.668-2.129-7.644-6.337-6.247-1.413.47-2.988 2.055-3.582 3.604-.595 1.553-.598 3.563-.004 5.11 1.277 3.326 5.165 4.93 8.545 3.521z"/><path stroke-width="1"stroke= “#000000”  d="M23.889 24.914c.251-.094.598-.392.772-.658.304-.463.295-.555-.162-1.92-.266-.791-.495-1.903-.51-2.473l-.027-1.042h-1.097c-2.711 0-5.769 1.193-10.76 4.195-1.178.709-2.333 1.352-2.563 1.423-.394.128-.398.141-.054.262.417.148.761.096 5.719-.828 1.987-.372 4.212-.73 4.944-.8l1.33-.123.358.795c.197.439.578.916.846 1.061.593.323.633.325 1.204.108z"/><path stroke-width="1"stroke= “#000000”  d="M33.098 18.671c.546-.696-.034-1.938-.902-1.938-.616 0-1.171.696-1.104 1.383.098 1.003 1.374 1.356 2.006.555z"/><path stroke-width="1"stroke= “#000000”  d="M50.803 16.565c.886-.535 1.912-1.063 2.278-1.178 1.287-.394 1.267-.376.723-.663-.647-.342-2.048-.078-3.295.618-.826.461-1.88 1.583-2.366 2.514l-.24.46.643-.389c.354-.214 1.369-.827 2.257-1.362z"/></g></g></switch></svg>