    <svg class="cloud cloud--1" xmlns="http://www.w3.org/2000/svg" viewbox="0 0 56 33" preserveAspectRatio="xMidYMid meet">
        <switch><g><g id="cloud--1" ><path   d="M31.046 31.804c-.967-.203-1.972-.744-2.809-1.517-.4-.368-.88-.656-1.099-.656-.213 0-.928.187-1.59.416-1.696.585-3.993.526-5.614-.146-1.462-.604-2.963-1.964-3.78-3.421l-.623-1.109-1.838-.004c-1.812-.004-1.855-.011-3.055-.65-1.94-1.034-3.402-2.951-3.646-4.785l-.102-.784-1.29-.088c-.812-.055-1.534-.213-1.946-.424C2.588 18.09 1.53 17.038.996 15.99c-.447-.878-.5-1.14-.496-2.485.004-1.299.065-1.619.449-2.356.546-1.048 1.249-1.905 1.564-1.905.13 0 .236-.079.236-.175 0-.099.431-.376.961-.619.792-.362 1.194-.439 2.297-.431.735.005 1.533.088 1.773.187.417.169.447.146.644-.521 1.145-3.88 4.875-6.023 8.754-5.028.565.146 1.381.49 1.814.766.769.489 1.135.513 1.135.071 0-.35 1.712-1.865 2.64-2.336 1.729-.877 4.251-.877 5.982 0 1.078.545 2.21 1.595 2.795 2.594.493.841.948 2.442.948 3.335v.612l1.379.075c2.214.12 3.747 1.01 4.889 2.836.717 1.146.971 2.184.891 3.626l-.065 1.155 1.123.109c2.149.213 4.17 1.679 5.092 3.692.23.502.499.914.595.914.227 0 2.275 1.34 3.475 2.271 1.225.953 2.573 2.251 3.711 3.577l.936 1.085-1.863.01c-2.165.012-3.672.378-7.537 1.826-5.283 1.979-6.765 2.355-8.75 2.218-.928-.063-1.247-.012-1.883.305-.878.438-2.424.619-3.439.406z"/><path   d="M33.071 30.282c.364-.103 1.052-.434 1.531-.739.853-.545.873-.549 1.158-.234.461.508 1.867.423 4.194-.252 1.089-.317 2.316-.719 2.73-.893 1.18-.499 4.47-1.663 5.849-2.068l1.255-.37-.752-.234c-.414-.128-1.655-.274-2.758-.323-1.854-.083-2.232-.042-5.013.532-3.662.754-5.207.813-6.684.252-1.661-.632-2.59-1.875-2.59-3.469 0-.697-.065-.859-.479-1.164-.876-.649-.841-2.069.063-2.5.465-.221.605-.225 1.019-.026.264.126.506.366.54.536.049.256.006.276-.274.126-.25-.133-.38-.118-.53.063-.362.436-.134.836.508.889.878.075 1.243-.404 1.243-1.641 0-1.19-.353-1.735-1.5-2.325-2.05-1.056-5.218-.045-6.27 2-.278.537-.282.638-.051 1.167.288.662.338 2.547.084 3.172-.299.74-1.129 1.741-1.861 2.25-.626.433-.863.494-1.909.498-1.026.004-1.294-.059-1.913-.459-1.993-1.29-2.248-3.747-.536-5.185 2.055-1.729 5.212.615 3.845 2.856-.961 1.578-3.167 1.211-3.516-.583l-.122-.63-.02.713c-.035 1.339 1.428 2.346 2.882 1.981 1.044-.262 2.116-1.735 2.108-2.897-.006-1.288-1.089-2.762-2.443-3.327-.705-.296-2.419-.296-3.12-.004-.813.339-2.244 1.818-2.64 2.73-.244.562-.353 1.176-.362 2.055-.012 1.077.061 1.418.526 2.423.9 1.95 2.451 3.238 4.332 3.603 1.367.264 2.852.103 4.032-.439.792-.365 1.071-.414 1.846-.319.808.101.985.197 1.564.855.632.719 1.332 1.131 2.37 1.4.719.188.924.184 1.665-.021v.001z"/><path   d="M40.931 24.439c2.955-.658 5.307-.795 7.257-.428.776.146 1.44.237 1.476.201.116-.116-2.394-1.887-3.605-2.545-1.048-.567-1.217-.729-1.466-1.393-.286-.764-.932-1.747-1.4-2.135-.556-.459-1.883-1.052-2.567-1.146-.416-.057-1.274.016-2.031.173-.719.148-1.337.243-1.371.209-.033-.033.171-.693.459-1.463.412-1.113.506-1.596.455-2.336-.171-2.474-2.125-4.333-4.542-4.328-1.164.004-1.574.138-1.706.56-.292.918-1.454 2.435-2.383 3.114-1.237.9-2.013 1.19-3.28 1.225-1.844.05-3.384-.847-4.398-2.561-.593-1.001-.613-2.457-.045-3.384.21-.345.449-.585.532-.534.081.05.108-.012.061-.138-.13-.339 1.411-1.125 2.206-1.125 1.204 0 2.397 1.156 2.397 2.323 0 1.556-1.743 2.467-2.766 1.444-.475-.472-.558-1.43-.156-1.765.211-.175.238-.167.154.051-.307.8 1.034 1.359 1.442.601.268-.5-.276-1.213-.979-1.284-1.089-.109-2.041.86-2.041 2.082 0 .795.636 1.843 1.448 2.381 2.667 1.765 6.177-.295 6.747-3.959.467-3.012-1.251-5.625-4.083-6.215-2.379-.493-4.661.758-5.797 3.18-.299.64-.575 1.162-.614 1.162-.038 0-.569-.415-1.18-.922-1.476-1.225-2.584-1.641-4.121-1.544-.827.053-1.426.205-2.041.518C10.85 5.549 9.989 6.936 9.681 9.79c-.057.528-.14.96-.183.96-.045 0-.585-.258-1.2-.574-1.386-.71-2.137-.853-3.163-.605-2.299.555-3.707 2.975-2.988 5.133.373 1.125 1.107 1.956 2.199 2.49.808.396 1.05.439 1.96.349.571-.055 1.235-.148 1.473-.203.432-.103.436-.096.53 1.156.247 3.264 2.5 5.458 5.601 5.452.617 0 1.206-.059 1.308-.126.1-.066.23-.695.286-1.396.12-1.541.378-2.334 1.093-3.373 1.832-2.661 5.346-3.394 7.806-1.627l.709.509.341-.542c.508-.811 1.184-1.378 2.375-1.995 1.004-.518 1.178-.553 2.742-.553 1.526 0 1.757.043 2.661.5 1.722.873 2.512 2.586 2.035 4.419-.252.977-.565 1.38-1.369 1.761-.514.244-.569.337-.569.973 0 1.254.847 2.148 2.34 2.478.941.206 2.755.021 5.263-.537z"/><path   d="M22.527 22.602c.614-.483.608-1.336-.012-1.825-.532-.417-1.121-.34-1.647.219-.278.296-.317.469-.205.9.144.56.682 1.052 1.148 1.052.152 0 .473-.156.716-.346z"/></g></g></switch>
    </svg>
    <svg class="cloud cloud--2" xmlns="http://www.w3.org/2000/svg" viewbox="0 0 56 33" preserveAspectRatio="xMidYMid meet">
        <switch><g><g id="cloud--1" ><path   d="M31.046 31.804c-.967-.203-1.972-.744-2.809-1.517-.4-.368-.88-.656-1.099-.656-.213 0-.928.187-1.59.416-1.696.585-3.993.526-5.614-.146-1.462-.604-2.963-1.964-3.78-3.421l-.623-1.109-1.838-.004c-1.812-.004-1.855-.011-3.055-.65-1.94-1.034-3.402-2.951-3.646-4.785l-.102-.784-1.29-.088c-.812-.055-1.534-.213-1.946-.424C2.588 18.09 1.53 17.038.996 15.99c-.447-.878-.5-1.14-.496-2.485.004-1.299.065-1.619.449-2.356.546-1.048 1.249-1.905 1.564-1.905.13 0 .236-.079.236-.175 0-.099.431-.376.961-.619.792-.362 1.194-.439 2.297-.431.735.005 1.533.088 1.773.187.417.169.447.146.644-.521 1.145-3.88 4.875-6.023 8.754-5.028.565.146 1.381.49 1.814.766.769.489 1.135.513 1.135.071 0-.35 1.712-1.865 2.64-2.336 1.729-.877 4.251-.877 5.982 0 1.078.545 2.21 1.595 2.795 2.594.493.841.948 2.442.948 3.335v.612l1.379.075c2.214.12 3.747 1.01 4.889 2.836.717 1.146.971 2.184.891 3.626l-.065 1.155 1.123.109c2.149.213 4.17 1.679 5.092 3.692.23.502.499.914.595.914.227 0 2.275 1.34 3.475 2.271 1.225.953 2.573 2.251 3.711 3.577l.936 1.085-1.863.01c-2.165.012-3.672.378-7.537 1.826-5.283 1.979-6.765 2.355-8.75 2.218-.928-.063-1.247-.012-1.883.305-.878.438-2.424.619-3.439.406z"/><path   d="M33.071 30.282c.364-.103 1.052-.434 1.531-.739.853-.545.873-.549 1.158-.234.461.508 1.867.423 4.194-.252 1.089-.317 2.316-.719 2.73-.893 1.18-.499 4.47-1.663 5.849-2.068l1.255-.37-.752-.234c-.414-.128-1.655-.274-2.758-.323-1.854-.083-2.232-.042-5.013.532-3.662.754-5.207.813-6.684.252-1.661-.632-2.59-1.875-2.59-3.469 0-.697-.065-.859-.479-1.164-.876-.649-.841-2.069.063-2.5.465-.221.605-.225 1.019-.026.264.126.506.366.54.536.049.256.006.276-.274.126-.25-.133-.38-.118-.53.063-.362.436-.134.836.508.889.878.075 1.243-.404 1.243-1.641 0-1.19-.353-1.735-1.5-2.325-2.05-1.056-5.218-.045-6.27 2-.278.537-.282.638-.051 1.167.288.662.338 2.547.084 3.172-.299.74-1.129 1.741-1.861 2.25-.626.433-.863.494-1.909.498-1.026.004-1.294-.059-1.913-.459-1.993-1.29-2.248-3.747-.536-5.185 2.055-1.729 5.212.615 3.845 2.856-.961 1.578-3.167 1.211-3.516-.583l-.122-.63-.02.713c-.035 1.339 1.428 2.346 2.882 1.981 1.044-.262 2.116-1.735 2.108-2.897-.006-1.288-1.089-2.762-2.443-3.327-.705-.296-2.419-.296-3.12-.004-.813.339-2.244 1.818-2.64 2.73-.244.562-.353 1.176-.362 2.055-.012 1.077.061 1.418.526 2.423.9 1.95 2.451 3.238 4.332 3.603 1.367.264 2.852.103 4.032-.439.792-.365 1.071-.414 1.846-.319.808.101.985.197 1.564.855.632.719 1.332 1.131 2.37 1.4.719.188.924.184 1.665-.021v.001z"/><path   d="M40.931 24.439c2.955-.658 5.307-.795 7.257-.428.776.146 1.44.237 1.476.201.116-.116-2.394-1.887-3.605-2.545-1.048-.567-1.217-.729-1.466-1.393-.286-.764-.932-1.747-1.4-2.135-.556-.459-1.883-1.052-2.567-1.146-.416-.057-1.274.016-2.031.173-.719.148-1.337.243-1.371.209-.033-.033.171-.693.459-1.463.412-1.113.506-1.596.455-2.336-.171-2.474-2.125-4.333-4.542-4.328-1.164.004-1.574.138-1.706.56-.292.918-1.454 2.435-2.383 3.114-1.237.9-2.013 1.19-3.28 1.225-1.844.05-3.384-.847-4.398-2.561-.593-1.001-.613-2.457-.045-3.384.21-.345.449-.585.532-.534.081.05.108-.012.061-.138-.13-.339 1.411-1.125 2.206-1.125 1.204 0 2.397 1.156 2.397 2.323 0 1.556-1.743 2.467-2.766 1.444-.475-.472-.558-1.43-.156-1.765.211-.175.238-.167.154.051-.307.8 1.034 1.359 1.442.601.268-.5-.276-1.213-.979-1.284-1.089-.109-2.041.86-2.041 2.082 0 .795.636 1.843 1.448 2.381 2.667 1.765 6.177-.295 6.747-3.959.467-3.012-1.251-5.625-4.083-6.215-2.379-.493-4.661.758-5.797 3.18-.299.64-.575 1.162-.614 1.162-.038 0-.569-.415-1.18-.922-1.476-1.225-2.584-1.641-4.121-1.544-.827.053-1.426.205-2.041.518C10.85 5.549 9.989 6.936 9.681 9.79c-.057.528-.14.96-.183.96-.045 0-.585-.258-1.2-.574-1.386-.71-2.137-.853-3.163-.605-2.299.555-3.707 2.975-2.988 5.133.373 1.125 1.107 1.956 2.199 2.49.808.396 1.05.439 1.96.349.571-.055 1.235-.148 1.473-.203.432-.103.436-.096.53 1.156.247 3.264 2.5 5.458 5.601 5.452.617 0 1.206-.059 1.308-.126.1-.066.23-.695.286-1.396.12-1.541.378-2.334 1.093-3.373 1.832-2.661 5.346-3.394 7.806-1.627l.709.509.341-.542c.508-.811 1.184-1.378 2.375-1.995 1.004-.518 1.178-.553 2.742-.553 1.526 0 1.757.043 2.661.5 1.722.873 2.512 2.586 2.035 4.419-.252.977-.565 1.38-1.369 1.761-.514.244-.569.337-.569.973 0 1.254.847 2.148 2.34 2.478.941.206 2.755.021 5.263-.537z"/><path   d="M22.527 22.602c.614-.483.608-1.336-.012-1.825-.532-.417-1.121-.34-1.647.219-.278.296-.317.469-.205.9.144.56.682 1.052 1.148 1.052.152 0 .473-.156.716-.346z"/></g></g></switch>
    </svg>
