<svg fill="none"xmlns="http://www.w3.org/2000/svg" width="90.78" height="38.371"><switch><g><path stroke-width="1"stroke= “#000000”   d="M46.12 11.698c.361.026-.956-.671-1.885-.929l-.646-.181c-.052.077-.052.052-.026 0l-1.188-.336.284.723H42.762h-.052c.775.31 1.524.569 2.324.594.362.155 1.369.206 1.679.62.052.051.078.078.103.103.052-.077.104-.155.181-.206-.052-.078-.104-.181-.129-.284l-.748-.104zm-3.021-.801c.026-.025.026-.025 0 0 .051-.025.051 0 0 0z"/><path stroke-width="1"stroke= “#000000”   d="M32.149 16.785c.723-.956 1.42-2.118 1.266-2.815-.465.826-.672 1.834-1.266 2.815z"/><path stroke-width="1"stroke= “#000000”   d="M34.938 13.144c-.103-.104-.491-.155-.826-.232.025.154.078.31.103.464v.026c1.292.517 2.298 1.084 3.047 1.652-.619-.8-1.29-1.342-2.324-1.91z"/><path stroke-width="1"stroke= “#000000”   d="M33.466 13.712s0 .052.026.103c-.026.026-.026.052-.051.104.155.335.31.697.439 1.059.026-.44-.414-1.318-.414-1.266z"/><path stroke-width="1"stroke= “#000000”   d="M46.507 18.928c.026.026.026.051.052.077 0-.051 0-.103-.026-.128-.026 0-.026.025-.026.051z"/><path stroke-width="1"stroke= “#000000”   d="M45.913 13.919c-1.239-.181-1.885-1.084-2.22-1.912-.207 0-.439.026-.646-.025.232.697.594 1.007 1.885 1.782.517.31 1.033.645 1.42.929v-.232c-.181.232-.362-.284-.439-.542z"/><path stroke-width="1"stroke= “#000000”   d="M19.858 14.693c.594 1.266 1.317 2.944 2.091 4.829-.31-1.549-.697-3.047-1.523-4.08-.207-.232-.387-.516-.568-.749z"/><path stroke-width="1"stroke= “#000000”   d="M59.6 3.15c.181.335 1.601.31 1.808.361.207.052-1.833-2.092-2.608-3.021l-.026-.026c-.026.439-.388 1.317-.181 1.756.206.543.826.62 1.007.93z"/><path stroke-width="1"stroke= “#000000”   d="M55.003 5.655c-.129.232-.336.542-.594.93.232-.129.465-.311.671-.646.052-.052.078-.129.104-.181-.052-.051-.103-.077-.181-.103z"/><path stroke-width="1"stroke= “#000000”   d="M7.463 25.074c-.103.052-.568.361-1.472.981-.361.258-1.239 1.239-2.195 2.375.904-.878 1.885-1.781 2.918-2.66.568-.516.826-.748.749-.696z"/><path stroke-width="1"stroke= “#000000”   d="M57.379 2.996c.464-.31-1.446.801-2.195 1.317-.078.103-.129.181-.181.206-.181.078-.078-.025.181-.206.31-.439.723-1.523 1.136-2.428-.568.723-1.136 1.395-1.601 2.221-.181.284-.542.568-.439.955.749-.542 2.35-1.524 3.099-2.065z"/><path stroke-width="1"stroke= “#000000”   d="M57.198.594c-.026 0-.026 0 0 0 0 .026.026.026.026.026l-.026-.026z"/><path stroke-width="1"stroke= “#000000”   d="M51.904 8.702c.026-.052.052-.129.104-.206.826-1.524 1.782-2.428 2.427-2.893-.078 0-.155.026-.258.052-.723.232-.826 1.162-1.498 1.524-.258.231-.516.491-.749.749.051.078.078.206.026.31a.5098.5098 0 0 0-.052.464z"/><path stroke-width="1"stroke= “#000000”   d="M67.915 19.625c.078-.077.181-.723.284-1.034.258-.903.465-1.807.671-2.711-.362.775-.671 1.602-.956 2.427-.025.44-.025.88.001 1.318z"/><path stroke-width="1"stroke= “#000000”   d="M69.619 6.894c-.103.181-.207.388-.284.595-.232.62-.439 1.24-.646 1.859.232-.387.517-.749.801-1.11.052-.775.078-1.214.129-1.344z"/><path stroke-width="1"stroke= “#000000”   d="M68.276 13.996l-.181 2.324v.258c.207-.491.31-1.084.826-1.343.104-.052.155.026.155.128.207-.361.878-1.601 1.472-2.427-.207.258-1.343 1.523-1.446 1.368-.414-.284-.439-.826-.388-1.291.258-.154.93-2.943 1.059-3.434-.336 0-1.059 2.84-1.188 3.125-.102.44-.438.827-.309 1.292z"/><path stroke-width="1"stroke= “#000000”   d="M82.375 16.424h-.025c-.025 0-.052.051-.052.077.878.594 1.576 1.369 2.325 2.091.258.155.464.646.826.492-.258-.284-.568-.517-.826-.801-.749-.62-1.292-1.524-2.248-1.859z"/><path stroke-width="1"stroke= “#000000”   d="M55.855 22.001c.052.104.103.18.181.284.129.104.181.232.258.388.233-.336.491-.671.723-1.007-.258.128-.517.231-.8.31-.103.051-.232.051-.362.025z"/><path stroke-width="1"stroke= “#000000”   d="M69.335 5.552c0-.026.026-.026.026-.052-.129-.128-.258-.181-.413-.206.129.129.232.258.387.387-.026-.026 0-.078 0-.129z"/><path stroke-width="1"stroke= “#000000”   d="M48.031 13.144c.284.491.568.955.671 1.033l.387.257c-.335-.438-.697-.851-1.058-1.29z"/><path stroke-width="1"stroke= “#000000”   d="M50.716 18.386c.078.361.31.8.594 1.239-.233-.697-.465-1.394-.697-2.091 0 .31.052.594.103.852z"/><path stroke-width="1"stroke= “#000000”   d="M49.296 19.031c-.154-1.188.31-2.375.723-2.918-.078-.181-.155-.361-.258-.516-.025.155-.051.362-.128.568-.284.904-.878 2.091-.878 2.531-.026 1.163 2.272 4.623 1.962 3.822-.491-1.37-1.266-2.376-1.421-3.487z"/><path stroke-width="1"stroke= “#000000”  d="M90.768 19.884c-.181-.491-14.151-13.531-14.693-14.332-.361-.284-1.059-.774-1.833-1.291-.052-.078-.13-.104-.233-.155-1.549-1.033-3.383-2.092-3.951-2.014-.104-.052-.155-.078-.207-.052-.129.052-.156.464-1.137 1.756-.31.387-.697.877-1.084 1.342-.181.155-.361.336-.542.517-.258.284-.491.62-.723.955-.852 1.653.284-.8-1.059 1.42l-.078.387c-.491 1.034-1.266 2.815-1.627 3.047-.517.439-1.11 1.575-1.73 1.886-.464-.052.026.103-.206.335-.594 1.471-1.033 2.504-1.833 3.873-.697 1.266-1.575 2.454-2.453 3.616-.568.258-1.188.387-1.808.284-.646-1.085-1.266-2.195-1.885-3.306-.878-1.291-2.169-2.247-3.228-3.357-.775-.774-1.55-1.523-2.325-2.298.233-.413.439-.903.62-1.007.878-1.007 1.73-2.04 2.634-3.047 0 .104-.026.233-.026.336-.026.387.181.801.464.826-.025.052-.052.104-.078.155.026-.051.078-.104.104-.155h.025c.052 0-.956 1.885-.903 1.885l1.058-1.885c.801-.207 1.033 4.597 1.679 3.925.258-.284.981-6.042 1.214-6.378.18-.181.464-.026.516.284.129.438.336.878.672.981.155.026.284.155.387.362-.155-.31-.077-.774-.258-1.033-.207-.181-.362-.542-.335-.93 0-.361.051-.723.078-1.084.025-.104.025-.207.051-.31.026-.026.051-.026.078-.026.284-.336.516-.285.723-.078.025.284.052.568.077.853-.052 1.265-.18 2.505-.284 3.744-.077 1.265-.387 2.401-.723 3.435-.078.31-.258.49-.233.877.026.129.104-.026.129-.104.258-.594.465-1.213.671-1.858.387-1.214.956-2.144 1.213-3.512.077-.827.258-1.601.439-2.35.929-.594 3.047-2.84 3.279-2.375 1.11 2.297.335 1.032 2.401 3.098.852 1.42.232-.31-.052-.929-.438-.465-.568-.595-.594-.621-.074-.076-.229-.257-.513-.541C61.562 2.556 59.909.826 58.799.206c-.026-.025-.052-.025-.104-.025-.154-.13-.309-.181-.516-.181-.361 0-.749.155-.93.31h-.025c-3.1 3.564-6.224 7.205-9.297 10.769-.232.18-.387.465-.593.646-.104-.103-.207-.206-.31-.31h-.026l-.026-.025c-1.266-1.24-2.893-1.292-3.848-2.17-.362-.335-1.11-.387-1.498-.387h-.232a.054.054 0 0 0-.051.051c-.052-.026-.104 0-.181 0-1.524 1.524-2.66 3.409-4.003 5.087-.103-.104-.232-.181-.361-.284-.878-.698-1.962-1.085-2.866-1.73.258-.491-.413.155-.491.387-.671.646-1.085 1.73-1.601 2.402-1.188 2.375-2.608 4.234-4.132 6.275-.129-.284-.258-.517-.336-.723-1.059-2.635-7.824-7.67-8.495-8.109-.129-.077-.311-.103-.517-.103-.207 0-.387.026-.542.051h-.052c-.361 0-1.498 1.369-3.306 4.003-1.523 2.194-4.493 5.061-8.573 8.16-1.911 1.471-2.815 2.323-2.815 2.634 0 .387-2.841 4.855-2.841 5.371-.127.232-.231.438-.231.542 0 .103 1.291-1.111 2.866-2.66.93-.93 1.266-.311 2.221-1.266.258-.258 1.033-.284 1.24-.646 1.007-1.885 2.505-3.718 4.054-5.087.671-.593 1.395-.903 2.04-1.213-.207.671-.387 1.446-.491 2.297-.387 2.97-.31-.413-.723-1.213-.181-.361-1.549 1.137-3.382 3.434-.336.414-.517 1.576-.904 1.963-.517.568-3.125 1.472-3.693 1.937-1.679 1.446-1.266 2.066-1.42 2.091-.129 0 .051.258.413.517.207.155 6.611-3.667 7.644-4.287-4.209 2.557-6.353 4.572-5.732 4.442 1.756-.335 3.073-.361 3.77-.594.878-.284-.207 1.343 1.73.646 1.42-.517 1.989-4.751 2.35-5.552.129-.258.361-1.679.568-3.176.258-2.066.414-2.609.646-2.299.207.258-.336 2.221-.724 4.184-.335 1.678-.516 3.357-.49 4.002.026.388-.568.956-.801 1.679-.335 1.007-.31 2.169-.077 2.169.284 0 2.375-3.28 2.221-1.859-.207 1.885-.259 3.486-.129 3.537.438.181.568-.154.723-1.962.206-2.505.723-4.029 2.014-5.965.826-1.265.981-1.601.62-1.523-.258.077-.801.594-1.24 1.188-.413.594-.8 1.059-.826 1.059-.052 0-.026-.878.026-1.911.129-2.453.852-6.327.129-7.101-.026-.026-.026-.052-.051-.052.904-1.602 1.626-3.485 1.498-3.589-.413-.414-2.428 3.822-5.242 5.63-1.601 1.033-2.247 1.368-1.601.826 2.221-1.834 4.519-4.441 6.275-7.102.981-1.497 1.885-2.789 2.014-2.892.026-.025.052-.025.078 0 .077.103.181.232.31.388.026.078.078.18.104.284.155.568.232.671.258.284.026.103.078.258.129.387-.025.052-.078.904-.078 2.35 0 2.092.052 2.97.13 1.912.077-1.059.077-2.763 0-3.822-.026-.258-.026-.387-.052-.439.077.258.155.439.258.775.336 1.032.93 3.253 1.291 4.984.362 1.704.775 3.149.956 3.202.181.051.128-1.059-.129-2.608l-.439-2.686.594 1.265c.542 1.214 1.162 2.763 1.782 4.468.078.258.181.517.258.749 2.118 5.939 4.158 13.144 3.538 13.247-.129.026-1.266-1.575-2.557-3.512-2.737-4.183-5.578-6.946-5.294-5.835-.206 3.409-3.692 6.533-3.331 7.127.387.62 4.313-.439 5.449 1.472 1.136 1.911 5.268 1.472 5.552 1.678 1.343 1.007 1.292-1.781-.181-6.636-.594-1.963-1.291-4.055-2.014-6.095.387.207.852.284 1.42.181.181-.026-1.472-4.751-1.006-4.855.387-.078 2.943 4.493 3.125 4.441.335.388.929 1.395 1.317 2.247.749 1.653 3.253 6.042 3.563 6.224.104.051-.258-.672-.774-1.601-.517-.93-1.291-2.479-1.705-3.408l-.774-1.705.749.388c.413.206 4.674 5.861 4.829 5.731.31-.257-5.087-8.083-7.049-11.646.206-.207.413-.439.646-.594.723-.645 1.575-1.523 2.375-2.479.387.258 5.965 4.105 6.972 5.629.413.62.826 1.292 1.317 1.524 1.73.774 1.705 4.493 3.46 4.648.207.077 2.195-3.46 2.376-3.332.077.078.129.155.181.232-.052-.232-.129-.542-.155-1.007-.181-.258-2.453 2.531-2.685 2.428-1.498-.232-.981-3.125-2.454-3.667-.646-.129-1.239-.723-1.756-1.523-1.084-1.73-2.169-3.486-3.125-5.526.284.026.568 0 .671-.078.052-.491-.62-.517-.775-.93-.62-.981-.439-2.169-.646-3.253l.078.051c.646.956 2.092 2.324 2.634 2.867 1.162 1.188 1.963 1.42 2.195 1.135.439.594.853 1.214 1.163 1.911.361.258-.542.956.181.956.31.051.877.207 1.033-.129-.491-1.266-1.343-2.351-2.143-3.435-.517-.672-.981-1.395-1.498-2.04-.258-.439-.052-.929.31-1.213.774-1.059 1.549-2.118 2.375-3.099.336-.181.878-.232 1.059-.62.129.207.336.774.517 1.394.414 1.524.723 1.834 2.763 3.177.568.361 1.059.775 1.343 1.084 0 .542.051 1.084.078 1.575-.052.232-.129.465-.232.723-1.085 3.047-1.11 3.125-.62 3.796.672.877 1.111.955.672.103-.414-.801-.465-1.033.077-2.375.155.335.336.671.491 1.006.465.878 1.11 1.679 1.885 2.299.129.335.284.723.49 1.162 1.291 2.789 3.15 6.042 3.822 6.766.361.387.929.801 1.265.956.62.258.594.233-.077-1.394-.852-2.015-2.144-4.287-3.28-5.94.826.543 1.652 1.085 2.479 1.602.362.206.697.49 1.059.697.335.155.671-.077.723-.413.129-.336.439-.491.646-.775.284-.414.439-.878.594-1.369.155-.284.284-.568.464-.8.439-.698.853-1.394 1.292-2.092.025 0 .052-.026.077-.026.129-.077.232-.31.207-.438 2.324-3.771 4.622-7.541 6.92-11.311.104-.078.335-.335.361-.517.155-.31.284-.671.465-.956.438-.775.955-1.471 1.549-2.066.051-.051.104-.103.155-.155-.903 1.653-1.626 3.151-2.582 4.829-.232.284-4.003 8.909-4.157 9.271-.078 1.084 1.781-.801 2.763-2.583-.723 1.808-1.859 4.261-1.885 5.087 0 1.626 2.608-.078 2.505 1.549-.077.361.31.077.336-.104.129-.387.077-.801.181-1.188.103-.696.129-1.42.258-2.117.181-.568.568-1.032.697-1.626.258-1.007.542-2.014.826-2.995-.103 1.291-.103 2.608.104 3.874-.207.568-.413 1.11-.62 1.678-.335.181.052.724.336.542.31-.361.362-.826.491-1.266.258.904.723 1.756 1.472 2.324.31.232.749.414 1.111.207.335-.207.232-.801-.129-.93-.31-.206-.388-.645-.284-1.007.129-.774.025-1.548.258-2.297.155-.749.491-1.446.775-2.143.129-.336.542-.518.852-.284.284.206.517.542.904.516.465-.025.775-.465.852-.877.284-1.163-.103-2.35-.646-3.383-.542-1.033-1.188-2.015-1.756-3.021-.465-1.549-.749-3.072-.878-2.918.078-.129.181-.258.284-.361.568 1.497.904 3.899 1.782 4.286.49.207.981.439 1.446.698.361.387-.129.8-.413 1.033-.181.465.464.723.774.439.465-.233.801-.904.439-1.369-.542-.775-1.266-1.808-2.066-2.22-.516-.207.491-3.926-.025-4.106-.491.233-1.472-2.014-1.188-2.453.104-.181.956.258 1.988 1.007-.361-.077-1.394-.671-1.291-.335.052.387.594 1.084.93 1.885.413 1.111.077 2.918.232 3.409.749 2.221 2.918 3.125 4.441 4.906.517.595 1.162 1.214 1.214 2.066.103.646.078 1.343.362 1.963-.078-.671.129-1.343.103-2.04.051-.981.103-2.066-.568-2.866-.904-1.24-1.292-3.306-2.169-4.597-.542-.8-.852-1.859-1.213-2.815.284.258.594.542.852.8 1.369 1.369 2.195 3.668 2.324 4.132.232 0 2.841 2.092 5.629 4.313-.258-.13-.516-.232-.774-.335l-.026.051c-.052.361-.052.852-.439 1.007-.414.181-.8.413-1.136.697-.129.362.207.62.464.801.594.413.878 1.213 1.602 1.446.852.465 1.833.852 2.324 1.73.232.388.414.826.594 1.239-.077-.491.362-.903.207-1.394l-.258-2.117c-.285-.31-.207-.775-.31-1.163-.077-.103-.155-.232-.232-.361 2.909 2.371 5.491 4.334 5.284 3.766zM58.747.491c.026 0 .026 0 0 0 .801.929 2.841 3.099 2.634 3.046-.181-.051-1.601-.025-1.808-.361-.181-.31-.8-.387-1.033-.904-.18-.464.207-1.343.207-1.781zm-3.666 5.423c-.181.335-.414.516-.672.645.258-.361.465-.696.594-.93.077.026.129.052.181.078-.026.077-.052.155-.103.207zm2.117-5.32s.026 0 .026.026l-.026-.026c-.026 0-.026 0 0 0zM54.719 4.08c.439-.8 1.033-1.498 1.601-2.221-.413.878-.827 1.963-1.136 2.428.749-.491 2.659-1.602 2.195-1.318-.749.542-2.35 1.524-3.099 2.066-.103-.361.233-.645.439-.955zm-2.815 3.874c.233-.259.491-.517.749-.749.672-.362.801-1.291 1.498-1.523.104-.026.181-.052.258-.052-.646.465-1.601 1.369-2.428 2.893-.051.078-.078.155-.103.207-.052-.155-.052-.311.025-.439.053-.131.027-.26.001-.337zM6.714 25.745c-1.033.878-2.014 1.808-2.918 2.66.956-1.136 1.808-2.117 2.195-2.375.904-.62 1.369-.929 1.472-.981.077-.027-.181.205-.749.696zm13.144-11.052c.181.259.361.517.568.75.827 1.032 1.214 2.53 1.523 4.08-.774-1.912-1.497-3.564-2.091-4.83zm12.291 2.092c.594-.981.801-1.989 1.266-2.815.155.697-.542 1.86-1.266 2.815zm1.292-2.866c.025-.026.025-.052.051-.104-.026-.051-.026-.077-.026-.103 0-.077.414.826.414 1.266-.155-.362-.284-.724-.439-1.059zm.774-.517c0-.026 0-.026 0 0-.051-.155-.078-.336-.103-.491.361.077.723.154.826.232 1.033.594 1.705 1.11 2.35 1.885-.774-.541-1.781-1.109-3.073-1.626zm12.112 1.291c-.387-.284-.904-.62-1.421-.929-1.291-.775-1.652-1.059-1.885-1.782.232.077.439.025.646.025.336.827.981 1.73 2.221 1.912.078.258.259.748.439.516v.258zm.18 4.235c0-.026.026-.051.026-.077 0 .051 0 .103.026.128-.026 0-.052-.025-.052-.051zm.31-6.661c-.025-.027-.051-.078-.103-.104-.31-.414-1.317-.465-1.679-.619-.8-.026-1.575-.285-2.324-.595h.104-.155l-.284-.723 1.188.336c-.052.077-.026.077.026 0l.646.18c.93.258 2.247.981 1.885.93l.749.077c.026.104.078.207.129.284-.079.078-.13.155-.182.234zm1.214.903c.361.414.723.852 1.059 1.291l-.387-.258c-.104-.104-.388-.568-.672-1.033zm.748 5.5c0-.438.594-1.601.878-2.53.052-.208.103-.388.129-.569.103.181.181.335.258.517-.413.542-.878 1.73-.723 2.917.129 1.111.904 2.118 1.446 3.46.285.827-2.013-2.632-1.988-3.795zm1.937-.284c-.052-.284-.077-.568-.129-.852.258.697.465 1.394.697 2.091-.284-.438-.49-.852-.568-1.239zm5.578 4.287c-.051-.155-.129-.284-.258-.388-.051-.104-.104-.18-.181-.284.13 0 .232 0 .362-.026.284-.078.542-.181.8-.31-.258.336-.49.672-.723 1.008zM69.361 5.5c0 .026-.026.026-.026.052-.026.051-.026.104-.026.129-.129-.129-.258-.258-.388-.387.182.025.311.078.44.206zm0 1.989c.077-.207.181-.414.284-.595-.052.13-.077.569-.104 1.37-.284.361-.568.723-.8 1.11.18-.645.387-1.266.62-1.885zm-.465 8.418c-.207.904-.413 1.808-.672 2.712-.103.284-.206.956-.284 1.033-.052-.439-.026-.878 0-1.317.284-.853.594-1.654.956-2.428zm.904-6.326c-.155.491-.827 3.28-1.059 3.434-.078.465-.026 1.007.387 1.291.104.155 1.24-1.136 1.446-1.368-.594.826-1.265 2.04-1.472 2.427 0-.103-.026-.154-.155-.128-.517.258-.62.852-.827 1.343v-.258l.181-2.324c-.129-.465.207-.852.31-1.291.104-.286.853-3.126 1.189-3.126zm14.823 9.011c-.749-.722-1.447-1.497-2.325-2.091 0-.026.026-.052.052-.077h.025c.956.335 1.524 1.213 2.248 1.884.258.258.568.517.826.801-.388.129-.569-.362-.826-.517z"/><path stroke-width="1"stroke= “#000000”  d="M43.125 10.872c.025.025.025 0 0 0z"/><path stroke-width="1"stroke= “#000000”  d="M77.882 10.381c0-.026 0-.052-.025-.077-.026 0-.026.025.025.077z"/><path stroke-width="1"stroke= “#000000”  d="M82.401 13.919c.026 0 0 0 0 0z"/><path stroke-width="1"stroke= “#000000”  d="M54.977 4.493c.052-.026.129-.103.181-.206-.232.18-.362.284-.181.206z"/><path stroke-width="1"stroke= “#000000”  d="M74.292 12.705z"/><path stroke-width="1"stroke= “#000000”  d="M45.242 27.166c.18.8.336.568 0 0z"/><path stroke-width="1"stroke= “#000000”  d="M74.887 19.238c-.284-2.194 1.653-1.497 1.291-3.047-.593-2.479-1.136-2.065-1.342-2.297-.052-.078-.465-1.163-.568-1.188l.284 1.239c-.051-.181-.387-.335-.542-.439-.232-.154-.155-.207 0 .646 0 .671.336 1.136.284 1.808-.181 1.11-1.239 1.213-1.808 2.194-.464.594.362 3.409-.335 3.254-.361-.104-1.678-1.756-1.601-1.24.051.31.387.465.646.542 1.291.62-.956 5.035-.052 6.146.335.413.646.852.956 1.29.155.518-.491.646-.853.698-.361.335.052.878.491.749.542 0 1.136-.439 1.033-1.007-.104-.955-.775-1.678-1.292-2.427-.361-.439 2.608-4.338 2.221-4.726-.517-.025-.749-.853-.284-1.11.336-.207 2.453 1.652 3.279 4.235.336 1.11.362 2.453.284 3.434.284-.698.749-1.291.439-3.719-.052-.568-2.299-3.202-2.531-5.035z"/><path stroke-width="1"stroke= “#000000”  d="M79.819 17.663l-.568.491c-.465.413-.671.438-1.213.155-.543-.284-.698-.542-.981-1.472-.207-.723-.388-1.11-.465-1.136-.078-.026-.078.335.052 1.033.104.62.078 1.498-.052 1.988-.31 1.059.362 2.608.93 2.144.181-.155.31-.62.284-1.033-.052-.698 0-.749.516-.62.31.077.723.051.93-.052.464-.258.491-.207.852 2.117.258 1.653.232 1.938-.129 1.73-.414-.207-.439-.207-.388.232.026.258.258.671.491.929.284.311.542.388.775.207.387-.335-.026-4.235-.646-5.707l-.388-1.006z"/><path stroke-width="1"stroke= “#000000”  d="M75.791 19.083c-.052.052.051-.052 0 0z"/></g></switch></svg>