<svg fill="none"xmlns="http://www.w3.org/2000/svg" width="90.78" height="38.371"><switch><g><path stroke-width="1"stroke= “#000000”   d="M43.911 11.801c-.026.103-.078.206-.129.284.078.051.129.129.181.206.025-.025.051-.052.103-.103.31-.414 1.317-.465 1.679-.62.8-.025 1.549-.285 2.324-.594h-.104.155l.284-.723-1.188.336c.026.052.026.077-.026 0l-.646.181c-.93.258-2.247.955-1.885.929l-.748.104zm3.77-.904c-.026-.025-.026-.025 0 0-.052 0-.052-.025 0 0z"/><path stroke-width="1"stroke= “#000000”   d="M57.365 13.97c-.155.697.542 1.859 1.266 2.815-.594-.981-.801-1.989-1.266-2.815z"/><path stroke-width="1"stroke= “#000000”   d="M53.517 15.055c.749-.568 1.756-1.136 3.047-1.652v-.026c.025-.155.078-.31.103-.464-.335.077-.723.129-.826.232-1.033.567-1.704 1.109-2.324 1.91z"/><path stroke-width="1"stroke= “#000000”   d="M56.9 14.978c.129-.361.284-.723.439-1.059-.025-.052-.025-.078-.051-.104.026-.051.026-.103.026-.103-.001-.052-.44.826-.414 1.266z"/><path stroke-width="1"stroke= “#000000”   d="M44.247 18.877c-.026.025-.026.077-.026.128.026-.026.026-.051.052-.077-.001-.026-.001-.051-.026-.051z"/><path stroke-width="1"stroke= “#000000”   d="M44.427 14.461v.232c.388-.284.904-.62 1.42-.929 1.291-.775 1.653-1.084 1.885-1.782-.207.051-.439.025-.646.025-.335.827-.981 1.73-2.22 1.912-.076.258-.258.774-.439.542z"/><path stroke-width="1"stroke= “#000000”   d="M70.354 15.442c-.827 1.032-1.214 2.53-1.523 4.08.774-1.885 1.498-3.563 2.091-4.829-.181.233-.361.517-.568.749z"/><path stroke-width="1"stroke= “#000000”   d="M32.188 2.221c.207-.439-.155-1.317-.181-1.756l-.027.026c-.774.929-2.814 3.073-2.608 3.021.207-.052 1.628-.026 1.808-.362.181-.31.8-.387 1.008-.929z"/><path stroke-width="1"stroke= “#000000”   d="M35.776 5.655c-.077.026-.129.052-.181.103.026.052.052.129.104.181.207.335.439.517.671.646-.258-.387-.464-.697-.594-.93z"/><path stroke-width="1"stroke= “#000000”   d="M83.317 25.074c-.077-.052.181.18.749.697 1.033.878 2.014 1.782 2.918 2.66-.956-1.136-1.833-2.117-2.195-2.375-.904-.62-1.369-.93-1.472-.982z"/><path stroke-width="1"stroke= “#000000”   d="M36.5 5.061c.103-.387-.258-.671-.439-.955-.465-.826-1.033-1.498-1.601-2.221.413.904.827 1.989 1.136 2.428.258.181.362.284.181.206-.051-.025-.103-.103-.181-.206-.749-.516-2.659-1.627-2.195-1.317.749.541 2.35 1.523 3.099 2.065z"/><path stroke-width="1"stroke= “#000000”   d="M33.556.62s.026 0 .026-.026c.025 0 .025 0 0 0l-.026.026z"/><path stroke-width="1"stroke= “#000000”   d="M38.824 8.238c-.052-.104-.025-.232.026-.31-.232-.258-.491-.517-.749-.749-.672-.362-.775-1.292-1.498-1.524-.103-.026-.181-.052-.258-.052.646.465 1.601 1.369 2.427 2.893.052.077.078.154.104.206a.5098.5098 0 0 0-.052-.464z"/><path stroke-width="1"stroke= “#000000”   d="M22.865 18.308c-.284-.826-.594-1.652-.956-2.427.207.904.413 1.808.671 2.711.104.311.207.957.284 1.034.027-.439.027-.879.001-1.318z"/><path stroke-width="1"stroke= “#000000”   d="M21.29 8.238c.284.361.568.723.801 1.11-.207-.619-.414-1.239-.646-1.859-.077-.207-.181-.414-.284-.595.051.13.077.569.129 1.344z"/><path stroke-width="1"stroke= “#000000”   d="M22.193 12.705c-.128-.284-.852-3.125-1.188-3.125.129.491.801 3.28 1.059 3.434.051.465.026 1.007-.388 1.291-.103.155-1.239-1.11-1.446-1.368.594.826 1.266 2.066 1.472 2.427 0-.103.052-.181.155-.128.516.258.62.852.826 1.343v-.258l-.181-2.324c.131-.466-.205-.853-.309-1.292z"/><path stroke-width="1"stroke= “#000000”   d="M6.157 18.282c-.258.284-.568.517-.826.801.361.154.568-.336.826-.492.749-.722 1.447-1.497 2.325-2.091 0-.026-.026-.077-.052-.077h-.025c-.956.336-1.499 1.24-2.248 1.859z"/><path stroke-width="1"stroke= “#000000”   d="M34.563 21.976c-.284-.078-.542-.181-.8-.31.232.335.49.671.723 1.007.077-.155.129-.284.258-.388.078-.104.129-.18.181-.284-.13.026-.259.026-.362-.025z"/><path stroke-width="1"stroke= “#000000”   d="M21.445 5.681c.155-.129.258-.258.387-.387-.155.025-.284.078-.413.206 0 .026.026.026.026.052 0 .051.026.103 0 .129z"/><path stroke-width="1"stroke= “#000000”   d="M41.69 14.435l.387-.257c.103-.078.387-.542.671-1.033-.36.438-.722.851-1.058 1.29z"/><path stroke-width="1"stroke= “#000000”   d="M40.167 17.534c-.232.697-.464 1.394-.697 2.091.284-.439.517-.878.594-1.239.051-.258.103-.542.103-.852z"/><path stroke-width="1"stroke= “#000000”   d="M40.063 22.518c-.31.801 1.988-2.659 1.962-3.822 0-.439-.594-1.626-.878-2.531-.077-.206-.103-.413-.128-.568-.104.155-.181.335-.258.516.413.542.877 1.73.723 2.918-.155 1.111-.93 2.117-1.421 3.487z"/><path stroke-width="1"stroke= “#000000”  d="M5.306 16.113c-.078.129-.155.258-.232.361-.104.388-.025.853-.31 1.163l-.258 2.117c-.155.491.284.903.207 1.394.18-.413.361-.851.594-1.239.49-.878 1.472-1.266 2.324-1.73.723-.232 1.007-1.033 1.602-1.446.258-.181.594-.439.464-.801-.336-.284-.723-.516-1.136-.697-.387-.155-.387-.646-.439-1.007l-.026-.051c-.258.103-.516.206-.774.335 2.789-2.221 5.397-4.313 5.629-4.313.129-.464.956-2.763 2.324-4.132.258-.258.568-.542.852-.8-.361.956-.671 2.015-1.213 2.815-.878 1.291-1.265 3.357-2.169 4.597-.671.8-.619 1.885-.568 2.866-.026.697.181 1.369.103 2.04.284-.62.259-1.317.362-1.963.052-.852.697-1.471 1.214-2.066 1.523-1.782 3.693-2.685 4.441-4.906.155-.491-.181-2.297.232-3.409.336-.8.878-1.498.93-1.885.103-.336-.93.258-1.291.335 1.033-.749 1.885-1.188 1.988-1.007.284.439-.697 2.686-1.188 2.453-.516.181.491 3.899-.025 4.106-.801.413-1.524 1.445-2.066 2.22-.361.465-.026 1.136.439 1.369.31.284.955.026.774-.439-.284-.232-.774-.646-.413-1.033.465-.258.956-.491 1.446-.698.878-.387 1.214-2.789 1.782-4.286.103.103.207.232.284.361-.129-.154-.414 1.369-.878 2.918-.568 1.007-1.214 1.988-1.756 3.021s-.929 2.22-.646 3.383c.077.413.387.852.852.877.387.026.62-.31.904-.516.31-.233.723-.052.852.284.284.697.62 1.394.775 2.143.232.749.129 1.523.258 2.297.104.362.026.801-.284 1.007-.361.129-.465.723-.129.93.362.207.801.025 1.111-.207.749-.568 1.214-1.42 1.472-2.324.129.439.181.904.491 1.266.284.181.671-.361.336-.542-.207-.568-.414-1.11-.62-1.678.207-1.266.207-2.583.104-3.874.284.981.568 1.988.826 2.995.129.594.517 1.059.697 1.626.129.697.155 1.421.258 2.117.104.388.052.801.181 1.188.026.181.413.465.336.104-.104-1.627 2.505.077 2.505-1.549-.026-.826-1.162-3.28-1.885-5.087.981 1.782 2.84 3.667 2.763 2.583-.154-.362-3.925-8.987-4.157-9.271-.956-1.678-1.679-3.176-2.582-4.829.051.052.104.104.155.155.594.595 1.11 1.291 1.549 2.066.181.284.31.646.465.956.026.181.258.438.361.517 2.298 3.77 4.597 7.54 6.92 11.311-.025.129.078.361.207.438.025 0 .052.026.077.026.439.698.852 1.394 1.292 2.092.181.232.31.516.464.8.155.491.31.956.594 1.369.207.284.517.438.646.775.052.335.388.568.723.413.362-.207.697-.491 1.059-.697.826-.517 1.652-1.059 2.479-1.602-1.136 1.653-2.428 3.925-3.28 5.94-.671 1.627-.697 1.652-.077 1.394.336-.155.904-.568 1.265-.956.672-.723 2.531-3.977 3.822-6.766.206-.439.361-.826.49-1.162.775-.62 1.42-1.42 1.885-2.299.155-.335.335-.671.491-1.006.542 1.342.491 1.575.077 2.375-.439.852 0 .774.672-.103.49-.672.465-.749-.62-3.796-.103-.258-.181-.491-.232-.723.026-.491.078-1.033.078-1.575.284-.31.775-.723 1.343-1.084 2.04-1.343 2.349-1.653 2.763-3.177.181-.62.387-1.188.517-1.394.181.388.723.439 1.059.62.827.981 1.601 2.041 2.375 3.099.362.284.568.774.31 1.213-.517.645-.981 1.368-1.498 2.04-.8 1.084-1.652 2.169-2.143 3.435.155.335.723.18 1.033.129.723 0-.181-.698.181-.956.31-.697.723-1.317 1.163-1.911.232.285 1.033.052 2.195-1.135.542-.543 1.988-1.911 2.634-2.867l.078-.051c-.207 1.084-.026 2.272-.646 3.253-.155.413-.827.439-.775.93.104.078.388.104.671.078-.955 2.04-2.04 3.795-3.125 5.526-.517.8-1.11 1.394-1.756 1.523-1.472.542-.956 3.435-2.454 3.667-.232.103-2.504-2.686-2.685-2.428-.026.465-.104.774-.155 1.007.052-.077.104-.154.181-.232.181-.128 2.169 3.409 2.376 3.332 1.756-.155 1.73-3.874 3.46-4.648.491-.232.904-.904 1.317-1.524 1.007-1.524 6.585-5.371 6.972-5.629.8.956 1.652 1.833 2.375 2.479.232.155.439.388.646.594-1.962 3.563-7.359 11.388-7.049 11.646.155.13 4.416-5.526 4.829-5.731l.749-.388-.774 1.705c-.414.929-1.188 2.479-1.705 3.408-.517.929-.878 1.652-.774 1.601.31-.181 2.814-4.57 3.563-6.224.388-.852.981-1.859 1.317-2.247.181.051 2.737-4.52 3.125-4.441.465.104-1.188 4.829-1.006 4.855.568.103 1.033.025 1.42-.181-.723 2.04-1.42 4.132-2.014 6.095-1.472 4.855-1.524 7.643-.181 6.636.284-.206 4.416.233 5.552-1.678 1.136-1.912 5.062-.852 5.449-1.472.361-.594-3.125-3.718-3.331-7.127.284-1.111-2.557 1.652-5.294 5.835-1.291 1.937-2.427 3.538-2.557 3.512-.62-.103 1.42-7.308 3.538-13.247.077-.232.181-.491.258-.749.62-1.705 1.239-3.254 1.782-4.468l.594-1.265-.439 2.686c-.258 1.549-.31 2.659-.129 2.608.181-.052.594-1.498.956-3.202.361-1.73.955-3.952 1.291-4.984.104-.336.181-.517.258-.775-.026.052-.026.181-.052.439-.077 1.059-.077 2.763 0 3.822.078 1.059.13.18.13-1.912 0-1.445-.052-2.297-.078-2.35.051-.129.103-.284.129-.387.026.387.103.284.258-.284.026-.104.077-.207.104-.284.129-.155.232-.285.31-.388.026-.025.051-.025.078 0 .129.103 1.033 1.395 2.014 2.892 1.756 2.661 4.054 5.268 6.275 7.102.646.542 0 .207-1.601-.826-2.814-1.808-4.829-6.043-5.242-5.63-.129.104.594 1.988 1.498 3.589-.025 0-.025.026-.051.052-.723.774 0 4.648.129 7.101.052 1.033.078 1.911.026 1.911-.026 0-.413-.465-.826-1.059-.439-.594-.981-1.111-1.24-1.188-.361-.077-.206.258.62 1.523 1.291 1.937 1.808 3.46 2.014 5.965.155 1.808.285 2.143.723 1.962.13-.051.078-1.652-.129-3.537-.155-1.421 1.937 1.859 2.221 1.859.232 0 .258-1.162-.077-2.169-.232-.723-.827-1.291-.801-1.679.026-.645-.155-2.324-.49-4.002-.388-1.963-.93-3.926-.724-4.184.232-.31.388.233.646 2.299.207 1.497.438 2.918.568 3.176.361.8.93 5.035 2.35 5.552 1.937.697.852-.929 1.73-.646.697.232 2.014.258 3.77.594.62.129-1.523-1.886-5.732-4.442 1.033.621 7.437 4.442 7.644 4.287.362-.258.542-.517.413-.517-.155-.025.258-.645-1.42-2.091-.568-.465-3.176-1.369-3.693-1.937-.387-.387-.568-1.549-.904-1.963-1.833-2.297-3.202-3.795-3.382-3.434-.414.8-.336 4.183-.723 1.213-.104-.851-.284-1.626-.491-2.297.646.31 1.369.62 2.04 1.213 1.549 1.37 3.047 3.203 4.054 5.087.207.362.981.388 1.24.646.955.955 1.291.335 2.221 1.266 1.575 1.549 2.866 2.763 2.866 2.66 0-.104-.104-.31-.232-.543 0-.516-2.841-4.984-2.841-5.371 0-.311-.904-1.163-2.815-2.634-4.08-3.099-7.05-5.965-8.573-8.16-1.808-2.635-2.944-4.003-3.306-4.003h-.052c-.155-.025-.335-.051-.542-.051-.206 0-.387.026-.517.103-.671.438-7.437 5.474-8.495 8.109-.078.206-.207.438-.336.723-1.524-2.041-2.944-3.899-4.132-6.275-.516-.672-.93-1.756-1.601-2.402-.078-.231-.749-.877-.491-.387-.904.645-1.988 1.033-2.866 1.73-.129.103-.258.18-.361.284-1.343-1.679-2.479-3.563-4.003-5.087-.077 0-.129-.026-.181 0a.054.054 0 0 0-.051-.051h-.232c-.388 0-1.136.051-1.498.387-.955.878-2.582.93-3.848 2.17l-.026.025h-.026c-.103.104-.206.207-.31.31-.206-.18-.361-.465-.593-.646C39.78 7.515 36.655 3.874 33.556.31h-.026c-.181-.155-.568-.31-.929-.31-.207 0-.362.051-.517.181-.051 0-.078 0-.104.025-1.11.62-2.763 2.35-3.847 4.829-.283.284-.439.465-.516.542-.026.026-.155.155-.594.621-.284.619-.904 2.35-.052.929 2.066-2.066 1.291-.801 2.401-3.098.232-.465 2.35 1.781 3.279 2.375.181.749.362 1.523.439 2.35.258 1.368.827 2.298 1.213 3.512.207.645.413 1.265.671 1.858.026.078.104.233.129.104.025-.388-.155-.568-.233-.877-.335-1.034-.646-2.17-.723-3.435-.104-1.239-.232-2.479-.284-3.744.025-.284.052-.569.077-.853.207-.207.439-.258.723.078.026 0 .052 0 .078.026.026.103.026.206.051.31.027.361.078.724.078 1.084.026.388-.129.749-.335.93-.181.258-.103.723-.258 1.033.103-.207.232-.336.387-.362.336-.103.542-.542.672-.981.052-.31.336-.465.516-.284.233.335.956 6.094 1.214 6.378.646.671.878-4.132 1.679-3.925l1.058 1.885c.052 0-.955-1.885-.903-1.885h.025c.026.052.078.104.104.155-.026-.051-.052-.104-.078-.155.284-.025.491-.439.464-.826 0-.103-.026-.232-.026-.336.904 1.008 1.756 2.04 2.634 3.047.181.104.387.594.62 1.007-.775.775-1.549 1.524-2.325 2.298-1.059 1.11-2.35 2.066-3.228 3.357-.62 1.11-1.24 2.221-1.885 3.306-.62.103-1.24-.026-1.808-.284-.878-1.163-1.756-2.35-2.453-3.616-.801-1.369-1.24-2.401-1.833-3.873-.232-.233.258-.388-.206-.335-.62-.311-1.214-1.447-1.73-1.886-.361-.232-1.136-2.014-1.627-3.047l-.078-.387c-1.343-2.221-.207.233-1.059-1.42-.232-.335-.465-.671-.723-.955-.181-.181-.361-.361-.542-.517-.388-.465-.775-.956-1.084-1.342-.981-1.292-1.007-1.705-1.137-1.756-.051-.026-.103 0-.207.052-.568-.078-2.401.981-3.951 2.014-.103.052-.181.077-.233.155-.774.517-1.472 1.006-1.833 1.291-.538.8-14.508 13.84-14.689 14.331-.207.568 2.375-1.395 5.294-3.771zM32.239 2.272c-.232.517-.852.594-1.033.904-.206.336-1.627.31-1.808.361-.207.052 1.833-2.117 2.634-3.046-.026 0-.026 0 0 0 .001.438.387 1.317.207 1.781zm3.357 3.435c.052-.026.104-.052.181-.078.129.233.336.569.594.93-.258-.128-.491-.31-.671-.645-.053-.052-.078-.13-.104-.207zM33.582.594l-.026.026c0-.026.026-.026.026-.026.025 0 .025 0 0 0zM36.5 5.035c-.749-.542-2.35-1.523-3.099-2.066-.464-.284 1.446.827 2.195 1.318-.31-.465-.723-1.55-1.136-2.428.568.724 1.162 1.421 1.601 2.221.206.31.542.594.439.955zm2.376 3.254c.077.129.077.284.025.439-.025-.052-.052-.129-.103-.207-.827-1.523-1.782-2.428-2.428-2.893.078 0 .155.026.258.052.697.232.826 1.162 1.498 1.523.258.232.516.49.749.749-.025.079-.051.208.001.337zm44.441 16.759c.103.052.568.361 1.472.981.387.259 1.239 1.24 2.195 2.375-.904-.852-1.885-1.782-2.918-2.66-.568-.49-.826-.722-.749-.696zm-14.486-5.526c.31-1.549.697-3.047 1.523-4.08.207-.232.387-.491.568-.75-.594 1.267-1.317 2.919-2.091 4.83zM57.365 13.97c.465.826.672 1.833 1.266 2.815-.724-.955-1.421-2.118-1.266-2.815zm-.465 1.008c0-.439.414-1.343.414-1.266 0 .026 0 .052-.026.103.026.052.026.078.051.104-.155.335-.284.697-.439 1.059zm-3.409.051c.646-.774 1.317-1.291 2.35-1.885.103-.078.465-.155.826-.232-.025.154-.052.335-.103.491 0-.026 0-.026 0 0-1.291.516-2.298 1.084-3.073 1.626zm-9.038-.594c.181.232.362-.257.439-.516 1.239-.181 1.885-1.084 2.221-1.912.207 0 .413.052.646-.025-.232.723-.594 1.007-1.885 1.782-.517.31-1.034.645-1.421.929v-.258zm-.232 4.544c.026-.025.026-.077.026-.128 0 .026.026.051.026.077s-.026.051-.052.051zm-.439-6.946c.052-.077.104-.18.129-.284l.749-.077c-.361.052.956-.671 1.885-.93l.646-.18c.052.077.078.077.026 0l1.188-.336-.284.723h-.155.104c-.749.31-1.524.569-2.324.595-.362.154-1.369.206-1.679.619-.052.026-.078.077-.103.104-.053-.079-.105-.156-.182-.234zm-1.704 2.17l-.387.258c.335-.439.697-.877 1.059-1.291-.285.465-.569.929-.672 1.033zm-2.066 8.262c.542-1.342 1.317-2.349 1.446-3.46.155-1.188-.31-2.375-.723-2.917.078-.181.155-.335.258-.517.026.181.078.361.129.569.284.929.878 2.091.878 2.53.026 1.163-2.272 4.622-1.988 3.795zm-.516-2.84c.232-.697.439-1.394.697-2.091-.052.284-.078.568-.129.852-.078.387-.284.801-.568 1.239zm-5.733 2.041c.258.128.517.231.8.31.129.026.232.026.362.026-.078.104-.13.18-.181.284-.129.104-.207.232-.258.388-.233-.337-.465-.673-.723-1.008zM21.858 5.294c-.129.129-.258.258-.388.387 0-.026 0-.078-.026-.129 0-.026-.026-.026-.026-.052.13-.128.259-.181.44-.206zm.181 4.08c-.232-.387-.516-.749-.8-1.11-.026-.801-.051-1.24-.104-1.37.104.181.207.388.284.595.233.619.439 1.24.62 1.885zm-.155 6.533c.362.774.672 1.576.956 2.428.026.438.052.878 0 1.317-.078-.077-.181-.749-.284-1.033-.259-.905-.465-1.808-.672-2.712zm.284-3.202c.104.439.439.826.31 1.291l.181 2.324v.258c-.207-.491-.31-1.084-.827-1.343-.129-.026-.155.026-.155.128-.207-.387-.878-1.601-1.472-2.427.207.232 1.342 1.523 1.446 1.368.413-.284.464-.826.387-1.291-.232-.154-.904-2.943-1.059-3.434.337.002 1.086 2.842 1.189 3.126zM5.332 19.109c.258-.284.568-.543.826-.801.724-.671 1.292-1.549 2.248-1.884h.024c.025.025.052.051.052.077-.878.594-1.576 1.369-2.325 2.091-.258.155-.438.646-.825.517z"/><path stroke-width="1"stroke= “#000000”  d="M47.655 10.872c-.026 0-.026.025 0 0z"/><path stroke-width="1"stroke= “#000000”  d="M12.923 10.304c-.025.025-.025.051-.025.077.051-.052.051-.077.025-.077z"/><path stroke-width="1"stroke= “#000000”  d="M8.378 13.919s-.025 0 0 0z"/><path stroke-width="1"stroke= “#000000”  d="M35.622 4.287c.052.103.129.18.181.206.18.078.051-.026-.181-.206z"/><path stroke-width="1"stroke= “#000000”  d="M16.487 12.705z"/><path stroke-width="1"stroke= “#000000”  d="M45.538 27.166c-.336.568-.181.8 0 0z"/><path stroke-width="1"stroke= “#000000”  d="M13.362 24.273c-.31 2.428.155 3.021.439 3.719-.078-.981-.052-2.324.284-3.434.826-2.583 2.943-4.442 3.279-4.235.465.257.233 1.084-.284 1.11-.387.387 2.582 4.287 2.221 4.726-.516.749-1.188 1.472-1.292 2.427-.103.568.491 1.007 1.033 1.007.439.129.852-.414.491-.749-.362-.052-1.007-.18-.853-.698.31-.438.62-.877.956-1.29.904-1.111-1.342-5.527-.052-6.146.258-.077.595-.232.646-.542.078-.517-1.239 1.136-1.601 1.24-.698.154.129-2.661-.335-3.254-.568-.981-1.627-1.084-1.808-2.194-.052-.672.284-1.137.284-1.808.155-.853.232-.8 0-.646-.155.104-.491.258-.542.439l.284-1.239c-.104.025-.516 1.11-.568 1.188-.206.232-.749-.181-1.342 2.297-.362 1.55 1.575.853 1.291 3.047-.232 1.833-2.479 4.467-2.531 5.035z"/><path stroke-width="1"stroke= “#000000”  d="M10.574 18.67c-.62 1.472-1.033 5.372-.646 5.707.232.181.491.104.775-.207.232-.258.464-.671.491-.929.051-.439.026-.439-.388-.232-.361.207-.387-.078-.129-1.73.361-2.324.388-2.375.852-2.117.207.103.62.129.93.052.516-.129.568-.078.516.62-.025.413.104.877.284 1.033.568.464 1.24-1.085.93-2.144-.129-.49-.155-1.369-.052-1.988.129-.697.129-1.059.052-1.033-.078.026-.258.413-.465 1.136-.284.93-.438 1.188-.981 1.472-.542.284-.749.258-1.213-.155l-.568-.491-.388 1.006z"/><path stroke-width="1"stroke= “#000000”  d="M14.989 19.083c-.051-.052.052.052 0 0z"/></g></switch></svg>