<svg fill="none"xmlns="http://www.w3.org/2000/svg" width="80.087" height="79.979"><switch><g><path stroke-width="1"stroke= “#000000”  d="M0 79.949c0-.018.04-.122.089-.233.087-.2.595-1.516 1.207-3.129.173-.459.496-1.305.716-1.88.22-.576.479-1.256.575-1.51.178-.471.374-.983 1.049-2.742.699-1.822 1.154-3.015 1.505-3.943.192-.509.415-1.092.497-1.295.167-.414.782-2.021.991-2.588.075-.203.238-.633.363-.955.124-.322.304-.794.4-1.048s.276-.726.402-1.047c.125-.323.287-.746.361-.94l.134-.354h1.479l.208-.785c.114-.432.304-1.131.421-1.555.415-1.499.642-2.319.822-2.974.1-.364.265-.961.365-1.325s.279-1.009.396-1.433c.117-.423.3-1.089.406-1.479s.295-1.062.42-1.492l.228-.785.799-.017.799-.017.042-.186c.023-.102.17-.67.327-1.263.157-.594.45-1.717.651-2.496.202-.779.409-1.556.46-1.726.052-.169.095-.312.095-.315 0-.004-.131-.025-.292-.049-.161-.022-.361-.079-.445-.125-.132-.073-.178-.07-.339.016-.178.096-.754.127-1.48.079-.136-.009-.49.004-.789.027-.53.043-.55.04-.943-.16-.456-.231-.838-.654-.963-1.066-.05-.164-.078-.65-.078-1.363v-1.109l.777-.043c1.776-.1 3.694-.604 4.819-1.268.129-.076.25-.138.269-.138.046 0 .851-.532 1.16-.767.45-.342 1.042-.86 1.515-1.329l.467-.462.161-.74c.193-.883.281-1.324.264-1.324-.007 0-.145.045-.307.101-.358.122-.946.089-1.281-.073-.221-.106-.237-.105-.491.009-.35.157-1.101.163-1.408.01-.209-.104-.229-.104-.568.016-.418.146-.805.157-1.177.03-.245-.082-.296-.082-.508.007-.363.152-.959.097-1.409-.131-.426-.215-.851-.709-.948-1.102-.062-.249-.173-2.19-.126-2.197.013-.003.551-.027 1.195-.057 1.045-.047 1.261-.076 2.003-.271 1.15-.302 1.749-.554 2.811-1.187 1.711-1.019 3.29-2.503 4.81-4.521.781-1.037.76-.969.76-2.532 0-1.224-.011-1.361-.121-1.548-.33-.559-.386-1.443-.139-2.175.069-.203.142-.529.162-.725.021-.196.094-.501.165-.678.07-.178.181-.586.245-.906.138-.686.352-1.156.64-1.408.114-.1.238-.24.277-.313.062-.116.053-.13-.08-.13-.238 0-.532-.379-.532-.686 0-.263.312-1.121.472-1.298.085-.095.076-.13-.099-.384l-.196-.277.294-.216c.162-.119.316-.217.342-.218.026-.001.137.126.247.282l.199.283.02-.19.019-.191h.792v.376l.154-.166c.085-.092.154-.205.154-.252 0-.169.185-.15.459.047.154.11.28.231.28.271 0 .038-.069.163-.154.278-.186.252-.19.317-.033.46.158.143.393.854.393 1.19 0 .313-.167.572-.427.657-.098.033-.188.065-.199.073-.012.007.155.188.371.402.477.476.632.849.623 1.497-.004.311.026.493.111.659.064.127.146.43.18.674.035.244.119.568.187.722.295.667.28 1.594-.036 2.262-.083.175-.151.351-.151.388 0 .174 1.947-.145 2.834-.462 1.734-.621 3.249-1.61 4.748-3.101.881-.874 1.157-1.171 1.622-1.743l.285-.35v-1.146c0-1.056-.01-1.161-.126-1.324-.396-.556-.517-1.649-.263-2.368.072-.204.148-.533.169-.733.021-.199.104-.532.184-.739s.16-.547.177-.756c.038-.468.328-1.048.67-1.341.28-.239.294-.316.066-.363-.357-.073-.416-.173-.413-.699.002-.441.023-.521.242-.926l.239-.442-.165-.25c-.091-.137-.165-.261-.165-.275 0-.014.136-.124.302-.243L38.994 0l.12.135c.065.073.166.202.222.286l.102.152V.405c0-.167.002-.168.438-.168.408 0 .437.009.406.123-.05.194.053.146.246-.117l.177-.24.319.194c.176.106.321.216.322.241.001.027-.072.16-.163.297l-.163.248.225.444c.444.875.333 1.645-.237 1.645-.138 0-.116.035.265.418.428.431.63.819.671 1.292.017.195.087.475.156.62.069.146.149.451.178.678.028.227.128.593.221.813.144.343.169.489.171 1.017.003.588-.007.639-.227 1.101l-.231.483v2.157l.319.401c.175.221.376.471.447.557.43.524 2.14 2.166 2.685 2.578 1.764 1.334 3.633 2.13 5.342 2.275.231.02.497.048.591.063.252.039.27-.102.067-.544-.161-.348-.177-.443-.176-1.061.001-.549.026-.735.131-.985.071-.169.157-.521.19-.78.034-.26.118-.593.187-.74.069-.146.167-.522.219-.834.118-.711.23-.951.639-1.362.179-.181.326-.34.326-.354s-.054-.026-.12-.026c-.197 0-.436-.255-.476-.51-.055-.346.096-.946.321-1.28l.198-.294-.189-.289c-.154-.238-.172-.299-.1-.341.049-.028.184-.122.301-.209.117-.088.231-.159.254-.159s.115.111.204.247c.188.282.285.314.285.092 0-.148.014-.153.4-.153.396 0 .4.002.402.169.002.169.003.169.108.043.059-.069.15-.192.203-.273l.097-.146.211.135c.464.297.453.271.267.606l-.166.299.193.325c.375.632.42 1.326.104 1.599-.09.077-.217.141-.283.141-.178 0-.148.071.129.309.455.392.698.962.686 1.612-.005.291.029.501.114.7.067.155.149.454.183.666.034.211.135.59.226.843.218.61.226 1.271.022 1.847-.078.221-.193.467-.255.548-.103.133-.114.274-.114 1.41v1.264l.193.315c.289.471 1.151 1.604 1.688 2.218 2.012 2.301 4.196 3.771 6.561 4.415.655.18.816.197 2.126.244.779.028 1.427.054 1.439.057s.011.484-.003 1.068c-.024 1-.035 1.081-.187 1.371-.458.878-1.44 1.284-2.326.961-.358-.131-.374-.131-.571-.023-.284.154-1.167.153-1.453 0-.197-.107-.213-.107-.541.016-.186.068-.475.126-.642.126-.167 0-.455-.058-.641-.126-.323-.121-.347-.122-.542-.022-.406.21-1.012.186-1.609-.066-.092-.039-.106-.022-.081.1.016.08.12.563.229 1.07l.2.925.347.339c1.793 1.752 4.07 2.993 6.317 3.443.73.146 1.51.248 2.064.27l.401.015V39.037l-.206.379c-.207.381-.47.641-.873.859-.291.158-1.294.169-1.572.016-.17-.094-.201-.094-.37-.005-.106.057-.397.109-.683.125-.405.022-.55.004-.777-.097-.182-.08-.31-.104-.364-.068-.047.031-.204.087-.35.125-.149.038-.254.099-.239.138.048.127.343 1.227.753 2.812.454 1.756.767 2.949.802 3.065.017.057.236.077.818.077h.794l.229.816c.126.449.313 1.121.414 1.494s.28 1.024.397 1.447c.117.424.281 1.021.365 1.325.083.306.248.901.365 1.325s.313 1.131.435 1.571c.121.441.301 1.092.401 1.448.1.356.291 1.035.423 1.51l.241.862.738.018.738.018.126.352c.069.195.229.617.354.938.125.322.306.793.401 1.048.095.255.275.726.401 1.048.125.321.289.751.364.955.209.566.824 2.174.991 2.588.082.203.3.771.485 1.264.185.491.451 1.185.59 1.541.14.354.291.758.336.893.045.136.311.829.59 1.54.279.712.584 1.503.679 1.757.219.593.486 1.296.772 2.033.125.322.304.793.399 1.048.34.909 1.646 4.316 1.754 4.575.042.1-.021.107-.819.107h-.863l-.261-.678c-.143-.372-.282-.678-.307-.678s-.241.215-.479.479c-.395.437-.476.494-.948.678-.434.168-.597.199-1.026.199h-.51l-.92-.701c-.772-.591-1.004-.733-1.447-.894-1.022-.37-1.011-.37-1.556-.056-.262.151-.519.292-.569.314-.051.021-.342.188-.647.367-.59.348-.613.384-.504.8.044.169.042.169-.263.169h-.307l-.083-.284-.083-.286-1.677-.909-1.677-.909-1.277.517c-.702.284-1.312.517-1.354.517-.042 0-.132.056-.2.123-.105.105-.123.206-.123.679v.554H61.5l.037-.724c.043-.838.153-.686-.886-1.231-.373-.195-.663-.313-.708-.285-.113.067-2.348 1.531-2.834 1.856-.229.153-.416.302-.416.331s-.246.053-.545.053h-.545l-.163-.601c-.09-.33-.23-.836-.313-1.124-.666-2.345-1.014-3.587-1.241-4.431-.086-.319-.169-.601-.184-.625-.016-.024-.129-.416-.253-.869-.277-1.016-.427-1.549-.764-2.733-.145-.509-.325-1.146-.399-1.417-.127-.463-.565-2.015-1.045-3.697-.116-.407-.284-1.003-.373-1.325-.162-.587-.549-1.948-.775-2.727l-.121-.416h-4.99l.029.139c.016.076.045.318.065.539.036.385.195 1.717.585 4.899.1.813.268 2.199.374 3.08.105.882.287 2.379.403 3.328.117.949.226 1.85.242 2.003.056.517.4 3.353.555 4.564.084.662.153 1.252.153 1.309 0 .088-.07.104-.455.104-.528 0-.472.095-.6-1.005-.07-.599-.088-.658-.204-.659-.146-.002-12.108-.002-12.212 0-.041 0-.111.33-.177.832l-.108.832h-.49c-.438 0-.486-.012-.457-.107.031-.104.2-1.451.595-4.761.103-.863.269-2.223.368-3.02.098-.796.265-2.169.37-3.05.105-.881.274-2.268.376-3.081s.224-1.84.272-2.28.142-1.207.208-1.705c.067-.497.141-1.142.165-1.433l.042-.528h-4.995l-.135.509c-.074.278-.214.771-.31 1.093-.097.322-.278.961-.402 1.418s-.303 1.095-.399 1.418c-.096.321-.276.959-.4 1.416a86.515 86.515 0 0 1-.4 1.418c-.096.321-.276.959-.4 1.417-.125.458-.305 1.096-.401 1.417-.096.322-.275.961-.399 1.418s-.304 1.095-.4 1.418c-.096.321-.277.959-.402 1.416-.125.458-.322 1.165-.438 1.571-.117.407-.278.976-.36 1.264s-.246.87-.366 1.294c-.12.424-.261.93-.315 1.125l-.097.354h-.619c-.56 0-.616-.01-.587-.107.183-.63.191-.986.062-2.768-.033-.447-.051-.505-.168-.531-.072-.016-.669-.186-1.327-.377-.658-.191-1.201-.34-1.208-.331-.049.065-.985 1.824-1.181 2.221l-.146.294.158.292c.184.339.511.896.671 1.139l.111.169h-.738l-.387-.64-.386-.641-1.117-.043c-.614-.022-1.309-.032-1.543-.021l-.427.021-.271.493c-.148.271-.303.568-.342.662-.069.163-.088.169-.525.169h-.454l.236-.271c.13-.149.374-.534.542-.854l.305-.582-.271-.455c-.148-.251-.45-.756-.669-1.122l-.399-.667-.221.035c-.122.02-.665.076-1.207.127-.542.052-1.174.11-1.402.132-.229.022-.456.071-.502.108-.076.06-1.146 2.656-1.146 2.78 0 .027.111.196.247.376s.247.342.247.36c0 .018-.169.032-.376.032-.322 0-.393-.021-.49-.144-.104-.132-.191-.152-.964-.219-.468-.05-.934-.097-1.035-.113-.165-.027-.201-.004-.326.219-.137.243-.148.248-.478.248-.185 0-.337-.015-.337-.033 0-.061.201-.424.332-.602.125-.17.126-.177.015-.37-.162-.278-.555-1.013-.947-1.768-.186-.355-.373-.685-.418-.732-.069-.072-.203-.07-.896.013-.449.055-.836.12-.861.146-.025.027-.177.396-.337.82s-.389 1.02-.508 1.324c-.119.305-.264.693-.322.863l-.105.308-.872.018c-.481.009-.873.003-.873-.015zm76.069-.716c.384-.16.537-.271.969-.712.282-.288.521-.547.531-.574.01-.028-.166-.533-.391-1.122-.224-.589-.437-1.154-.471-1.256-.035-.102-.139-.254-.232-.339-.093-.084-.513-.457-.933-.828-.42-.37-.83-.738-.911-.816s-.183-.143-.226-.143c-.104 0-.458.203-.458.263 0 .024-.033.045-.072.045-.065 0-1.501.81-2.032 1.146l-.225.143.03 1.035c.043 1.486-.024 1.357.864 1.651.759.252.913.341 1.896 1.108.816.637.855.659 1.033.624.095-.02.377-.119.628-.225zm-19.377-.125c.201-.136 1.858-1.219 2.511-1.64.28-.181.509-.363.509-.405 0-.042.041-.493.089-1.001.155-1.636.168-1.502-.176-1.75-.185-.133-.801-.402-1.627-.715l-1.33-.501-.604.158-.604.157-.215.41c-.119.226-.215.464-.215.531s.112.521.25 1.008c.394 1.393.604 2.131.796 2.797.098.339.209.734.247.879.07.276.07.276.369.072zM9.086 78.003c.194-.491.43-1.073.525-1.293.095-.221.192-.456.216-.524.059-.166.216-4.118.165-4.168-.021-.021-.278-.098-.569-.169-.292-.07-.708-.185-.925-.252-.644-.202-.635-.207-.835.429-.097.305-.195.554-.221.555-.025 0-.472.211-.994.468l-.948.468-.073.593c-.04.328-.115.853-.167 1.166l-.095.569.352.663c.37.696 1.27 2.354 1.284 2.363.004.004.41.04.902.081.632.054.913.056.961.01.038-.035.228-.467.422-.959zm60.625.306c.482-.273.918-.523.969-.556s.155-.09.231-.13c.151-.077.15-.071.141-1.252-.003-.339-.022-.772-.042-.963l-.037-.346-.81-.259c-.445-.144-1.003-.324-1.241-.403-.88-.295-.753-.303-2.007.118l-1.135.381-.175 1.037c-.145.861-.161 1.049-.092 1.116.116.113 3.146 1.751 3.242 1.752.045.001.474-.223.956-.495zm-45.405-1.223c.089-.318.153-.587.144-.596-.01-.011-.139.015-.287.054l-.269.071.038.402c.021.22.041.566.043.77l.006.371.082-.247c.045-.136.155-.507.243-.825zm38.171.893c.19-.082.79-.326 1.331-.542l.984-.394.169-.983c.092-.541.169-1.061.171-1.156.002-.139-.193-.393-.968-1.259-.534-.598-1.054-1.179-1.156-1.293l-.185-.207-.516.357c-.284.195-.645.447-.801.559s-.5.346-.762.519c-.263.174-.478.338-.478.363s.08.111.176.19l.176.143-.151 1.409c-.083.774-.127 1.43-.099 1.456s.357.208.729.402c.373.195.748.405.832.468.193.139.14.142.548-.032zm-43.21-.946c.301-.567.614-1.161.697-1.32l.15-.287-.171-.544c-.095-.3-.248-.78-.341-1.067l-.169-.522-.365-.075c-.69-.146-2.047-.39-2.166-.39-.107 0-.419.339-1.311 1.422-.119.144-.244.292-.277.328-.034.038-.265.31-.513.604l-.451.536.6 1.035c.33.569.636 1.074.68 1.123.079.087.999.151 2.528.179l.564.011.545-1.033zm26.855.062c-.02-.127-.069-.495-.111-.816l-.076-.585H34.17l-.069.462c-.038.254-.089.621-.112.816l-.043.354h12.211l-.035-.231zM24.27 75.864l.391-.11.143-.462c.078-.254.271-.934.43-1.509.159-.577.339-1.215.401-1.418.137-.447.493-1.725.493-1.769 0-.037-.517.054-1.664.289-.831.171-.994.239-1.787.744-.243.155-1.178.696-1.992 1.154-.299.169-.559.345-.577.392s-.004.161.031.253c.036.094.18.536.322.984l.257.816.256.065c.14.035.491.135.779.221.288.086.772.224 1.075.308.303.083.566.166.585.186.045.047.377-.01.857-.144zm-20.129-.052l.413-.04.039-.285c.055-.399.27-1.737.306-1.898.024-.106-.026-.166-.252-.298-.155-.091-.291-.156-.302-.145-.032.034-.587 1.45-.837 2.136l-.231.636.226-.033c.124-.02.411-.052.638-.073zm8.13-.25l1.518-.167.423-.497c.233-.273.794-.938 1.248-1.478.938-1.114.883-.909.499-1.855-.377-.932-.473-1.172-.575-1.448-.169-.458-.121-.438-1.28-.565l-1.07-.117-.648.665c-.355.367-.888.92-1.184 1.229l-.537.563-.063 1.776c-.081 2.243-.084 2.055.043 2.056.06.003.792-.072 1.626-.162zm33.534-.871c.014-.025-.019-.393-.075-.816l-.101-.771-5.583-.016-5.583-.016-.073.602c-.041.33-.089.705-.108.832l-.035.23h5.766c3.17.001 5.777-.019 5.792-.045zm25.677-.323c.084-.066.178-.121.208-.122.029-.001.224-.104.431-.232.208-.127.478-.286.601-.354 1.033-.572 1.532-.87 1.533-.915 0-.029.107-.28.238-.558.13-.278.255-.579.277-.669.049-.195.153-.173-1.611-.354l-1.25-.127-1.307.16c-.719.088-1.365.183-1.436.212-.08.031-.155.144-.194.288-.035.131-.165.608-.288 1.063-.123.453-.216.831-.207.838.034.025 2.73.883 2.79.887.033.001.13-.051.215-.117zm-4.527-.522l.865-.293.135-.501c.564-2.097.523-1.883.413-2.16-.056-.139-.166-.391-.245-.56-.079-.17-.267-.574-.417-.899l-.273-.591-.671-.137c-.369-.076-1.035-.219-1.481-.319-.445-.099-.858-.18-.918-.18-.061 0-.236.079-.392.176-1.422.883-1.615 1.019-1.586 1.112.017.054.16.459.318.898.158.441.303.857.323.925.049.173.149.311.493.671.164.174.507.551.762.839s.554.621.665.74c.111.118.298.331.416.473l.214.258.258-.08c.14-.044.645-.212 1.121-.372zm9.116.045c-.037-.089-.264-.694-.659-1.756-.035-.094-.085-.171-.112-.171-.026 0-.137.216-.247.478l-.199.477.578.54c.576.535.725.637.639.432zm-15.425-.998c.215-.149.558-.387.761-.525.756-.521 1.017-.724 1.017-.795 0-.039-.099-.348-.219-.687-.12-.338-.271-.783-.337-.988l-.119-.371-.509-.134c-.281-.073-.843-.221-1.25-.329l-.739-.197-.675.21-.676.211-.134.646c-.14.674-.301 1.305-.52 2.038-.071.238-.12.476-.11.527.013.062.383.216 1.079.45.583.196 1.148.412 1.257.48l.197.125.292-.194c.162-.107.469-.316.685-.467zm-54.501-.375c.448-.22.815-.422.816-.45.002-.028.1-.274.22-.546l.217-.495-.178-.287c-.098-.156-.379-.652-.624-1.102-.429-.786-.578-.946-.659-.709-.02.06-.13.351-.244.647-.115.296-.301.781-.415 1.078-.114.296-.321.83-.461 1.186-.226.574-.243.654-.155.71.054.033.213.137.353.229s.269.161.286.152c.015-.008.396-.195.844-.413zm49.666.152c.231-.052.468-.109.527-.127.068-.021.143-.159.204-.382.053-.193.191-.684.307-1.091.342-1.199.409-1.719.229-1.775-.059-.019-.343-.115-.631-.217s-.922-.324-1.409-.494l-.884-.311-.348.256c-.191.142-.355.261-.363.265-.009.005.056.256.144.558.18.615.533 1.875.702 2.507.081.302.159.455.284.555.485.386.58.405 1.238.256zm-35.63-.314c.271-.157.646-.375.832-.483.187-.109.707-.414 1.157-.677l.818-.479-.167-.224c-.092-.123-.261-.35-.376-.501-.115-.153-.472-.633-.793-1.066l-.584-.788-.214.188c-.118.104-.254.188-.303.188-.049 0-.429-.053-.845-.118s-1.103-.164-1.526-.22c-.424-.056-.813-.113-.865-.129-.06-.016-.219.125-.431.381-.186.224-.492.592-.681.816l-.344.41.167.4c.157.373.452 1.12.715 1.805.073.19.156.304.236.32 1.07.223 2.327.454 2.496.457.15.005.364-.081.708-.28zm25.296-.407c-.001-.19-.115-1.216-.154-1.387l-.032-.139h-5.239c-4.134 0-5.245.016-5.267.077-.016.043-.064.417-.109.832l-.08.755h10.882l-.001-.138zm-34.094-1.711l1.114-1.171-.262-.662c-.144-.364-.405-1.013-.579-1.441-.175-.429-.317-.812-.317-.849 0-.039-.037-.084-.082-.102s-.722.133-1.504.333c-1.345.344-1.433.375-1.604.571-.1.115-.459.527-.8.917l-.619.708.209.402c.285.545.503.938.794 1.437.242.413.251.42.646.533 1.267.365 1.706.485 1.792.49.055.003.6-.521 1.212-1.166zm58.681.402c.491-.052 1.102-.123 1.356-.159.359-.051.654-.045 1.324.028.475.052 1.137.113 1.471.137l.608.043-.044-.147c-.024-.081-.137-.384-.25-.672-.23-.583-.742-1.925-1.023-2.684l-.184-.497-1.12.141c-.616.077-1.187.17-1.268.207-.147.065-2.044 1.178-2.485 1.456-.126.08-.258.145-.293.145-.104 0-.077.088.251.814.172.383.356.793.408.911.118.268.197.37.286.369.039-.001.472-.042.963-.092zm-46.013-.305c.21-.05.688-.148 1.06-.221 1.154-.221 1.103-.196 1.279-.6.085-.194.284-.813.441-1.374l.285-1.02-.112-.367-.111-.366-.676-.136c-.372-.075-1.244-.302-1.938-.503-.961-.279-1.281-.351-1.336-.295-.04.039-.167.251-.283.471-.116.221-.319.591-.451.821-.133.231-.272.475-.31.542-.038.066-.131.188-.207.269-.16.171-.183.119.395.887.239.317.476.636.527.709.385.555.945 1.271.994 1.271.034.001.232-.039.443-.088zm21.118-.93c0-.154-.123-1.28-.156-1.431l-.031-.139h-9.898l-.073.755c-.04.415-.072.789-.072.832 0 .061 1.065.076 5.115.076 4.564.001 5.115-.009 5.115-.093zm-29.321-.721c.785-.906.824-.968.726-1.131-.087-.145-.468-.697-1.354-1.967-.237-.338-.52-.746-.628-.905l-.197-.292-.896.471c-.493.259-1.055.551-1.25.649-.194.099-.365.199-.381.224-.015.025.029.168.098.319.117.256.224.523.576 1.445.147.386.525 1.28.555 1.313.021.023 1.944.24 2.225.25.163.007.242-.05.526-.376zm47.035-.361c.878-.536 1.015-.64.992-.755-.093-.459-.176-.842-.227-1.042l-.058-.23h-2.936l-.219.478c-.121.262-.301.657-.402.878-.102.22-.202.461-.224.535-.045.15-.231.081 2.042.755.006.001.471-.277 1.032-.619zm-4.404.122l.586-.187.536-1.165.537-1.165-.366-.787-.366-.787-1.002-.037c-.941-.035-1.088-.024-2.389.179-.763.118-1.4.236-1.417.262s-.023.712-.013 1.524l.018 1.478.599.186c.329.103.89.278 1.246.39 1.273.4 1.135.393 2.031.109zm9.429-.366c.084-.056.362-.223.616-.369.517-.298 1.866-1.107 1.903-1.143.024-.022-.152-.288-1.278-1.936l-.61-.894-.3.012c-.165.006-.793.029-1.395.053l-1.095.041-.715 1.048-.715 1.048.037.348c.02.191.068.559.107.818l.071.472.501.124c.276.067.627.143.779.165.152.023.541.107.863.187.911.224.936.224 1.231.026zm-14.259-.199l.251-.171.03-1.092c.017-.601.014-1.283-.006-1.518l-.037-.425-.581-.233-.581-.232-.235.12c-.136.068-.236.165-.236.227 0 .102.139.613.589 2.171.112.39.249.869.303 1.064.07.253.12.343.174.309.043-.027.191-.125.329-.22zM7.35 66.904c.228-.258.415-.516.415-.572s-.059-.219-.131-.359c-.072-.141-.164-.368-.204-.506l-.074-.25-.198.524c-.109.288-.271.718-.361.954-.09.238-.242.622-.337.854-.096.232-.174.44-.174.462 0 .052.523-.492 1.064-1.107zm13.39.692c.242-.229.411-.462.793-1.093.1-.165.354-.584.564-.932l.383-.632-.104-.539-.105-.539-.675-.335-.675-.334-.894-.044a185.21 185.21 0 0 0-2.28-.087l-1.387-.044-.277.21c-.153.115-.479.341-.724.503-.5.329-.496.296-.11.803.12.155.196.283.171.284-.025 0-.015.021.021.046.037.024.175.198.305.385.407.579.952 1.369 1.22 1.77.237.354.277.385.534.422.152.021.776.117 1.386.212 1.514.236 1.546.235 1.854-.056zm24.104-.77c.015-.016-.021-.39-.079-.833l-.106-.806h-4.613c-2.537 0-4.613.02-4.614.044 0 .026-.042.324-.091.663-.049.339-.09.691-.091.783l-.002.167.539.018c.836.029 9.025-.005 9.057-.036zm27.404-.624c.438-.051.807-.104.819-.116s-.076-.269-.197-.569c-.121-.301-.453-1.156-.737-1.901l-.517-1.355-.206.005c-.469.014-.791.1-1.018.272-.13.098-.341.257-.469.352-.128.094-.356.273-.507.398l-.273.226.228.329c.125.181.409.593.63.918 1.104 1.62 1.036 1.536 1.252 1.536.109-.001.557-.044.995-.095zM9.12 65.86c.288-.068.704-.176.924-.238s.6-.159.844-.216c.263-.062.678-.23 1.017-.415.315-.171.969-.519 1.454-.77.484-.253 1.053-.583 1.263-.733.211-.152.57-.403.799-.56.229-.157.416-.305.416-.328s-.34-.608-.755-1.302l-.755-1.258-1.567-.017c-1.547-.017-1.574-.015-2.064.146-.88.287-1.293.474-1.519.686-.219.205-.277.323-.691 1.405-.117.305-.318.826-.447 1.159l-.234.604.105.596c.058.328.179.785.27 1.017.142.362.182.416.29.385.07-.02.362-.092.65-.161zm17.987-.473c.107-.195.221-.396.252-.447.59-.961.926-1.708.925-2.06 0-.07-.271-.465-.601-.876-.33-.412-.752-.945-.939-1.187-.187-.24-.356-.43-.378-.422-.039.015-.682.594-1.593 1.433-1.915 1.764-1.85 1.696-1.85 1.887 0 .102.031.374.07.606l.069.422.593.165c.326.092.828.238 1.116.326.527.162 1.855.487 2.041.5.061.004.176-.132.295-.347zm36.857-.025c.119-.172.28-.421.359-.553.079-.132.169-.24.2-.24s.057-.027.057-.061c0-.035.15-.285.333-.558.379-.562.375-.392.027-1.609l-.188-.657-.379-.065c-.208-.035-.765-.11-1.237-.167-.955-.114-.839-.132-1.948.296l-.651.251-.144.53c-.079.293-.212.75-.294 1.018l-.151.486.385.822.384.822 1.454.016c.8.009 1.482.009 1.516 0 .033-.009.158-.158.277-.331zm-19.411-1.176c0-.043-.045-.418-.101-.833l-.101-.754h-4.305c-2.368 0-4.306.02-4.307.046-.001.025-.042.323-.091.662-.049.339-.09.692-.091.786l-.001.169h4.499c3.557 0 4.498-.016 4.498-.076zm10.087-.11c.163-.033.837-.142 1.498-.237 1.058-.155 1.324-.172 2.229-.146l1.027.029.076-.27c.042-.147.139-.477.217-.73.274-.892.447-.69-1.362-1.579l-1.585-.779-.224.107c-.124.06-.516.23-.871.381-.356.151-.813.351-1.017.445-.203.094-.611.279-.906.412l-.537.242-.002.592c-.001.326-.02.718-.04.869l-.038.277.546.218c.636.255.606.25.989.169zm-2.258-.409l.247-.163-.018-.682-.018-.683-.542-.21c-.298-.114-.557-.193-.576-.175s.064.376.184.793c.12.417.249.876.286 1.021s.095.263.128.263c.034 0 .173-.074.309-.164zm15.171-.551l1.093-.04.355-.272c.195-.149.501-.384.68-.521l.325-.247-.325-.39c-.179-.214-.561-.668-.85-1.01l-.523-.619-.767-.004-.766-.004-.702.709c-.798.805-.752.645-.473 1.645.253.903.229.868.566.828.162-.018.785-.052 1.387-.075zm-44.637-.441c.292-.263.614-.555.716-.649.102-.094.635-.58 1.185-1.078l1-.906-2.319-.017c-1.275-.009-2.333-.001-2.352.017-.019.02-.045.601-.06 1.293l-.027 1.259.239.097c.131.053.405.177.608.276.204.099.394.183.424.184.031 0 .295-.213.586-.476zm-2.442-1.386c.018-.687.025-1.256.017-1.267-.02-.021-5.41-.017-5.431.005-.008.008.078.167.192.354.114.186.265.435.335.554.368.619.746 1.217.846 1.337.107.13.178.14 1.53.191.779.029 1.656.059 1.948.063l.53.01.033-1.247zm8.196.323c.05-.187.168-.609.264-.939s.159-.615.141-.633c-.018-.019-.508-.025-1.088-.017l-1.055.018.785.995c.432.548.803.978.825.955s.079-.192.128-.379zm42.381.056c.256-.055.308-.087.275-.17a49.53 49.53 0 0 1-.225-.578c-.174-.449-.204-.487-.542-.692-.336-.205-.39-.218-.893-.218h-.535l.235.291c.129.159.277.335.328.391.05.056.268.313.483.572s.428.472.475.472c.046-.001.226-.031.399-.068zm-26.806-.105c0-.024-.045-.384-.102-.799l-.101-.755-.408-.001c-3.681-.007-7.549.004-7.565.021-.028.028-.204 1.265-.205 1.443l-.001.138 2.819.016c3.44.02 5.562-.005 5.563-.063zm9.435-.512c1.433-.662 1.599-.735 1.949-.867.178-.066.324-.133.324-.147s-1.125-.026-2.5-.026c-2.351 0-2.498.007-2.47.107.017.061.075.271.131.47.064.229.139.371.205.388.058.016.368.136.69.268.322.133.616.242.654.243.038 0 .495-.195 1.017-.436zm7.141.173c.221-.085.572-.22.781-.297.368-.138.387-.155.54-.51.087-.201.15-.374.14-.384-.02-.02-1.581-.03-3.556-.024l-1.264.005 1.417.701c.78.386 1.445.693 1.479.684.035-.011.243-.089.463-.175zm4.511-.671c.261-.279.451-.523.422-.541-.029-.018-.66-.024-1.403-.015L63 60.015l-.134.276c-.137.283-.17.456-.088.462.025.003.435.068.909.146 1.24.206 1.101.236 1.645-.346zM29.417 58.93c.032-.083.391-.092 3.026-.076l2.99.016v-.307c.007-3.43-.004-6.279-.024-6.3-.015-.015-.119.021-.232.081-.459.237-1.032.063-1.259-.385l-.128-.254-.115.215c-.393.729-1.369.714-1.728-.027-.093-.19-.117-.211-.139-.109-.075.366-.474.647-.918.647-.365 0-.642-.175-.832-.524-.093-.169-.169-.258-.169-.197-.001.062-.044.194-.097.296-.283.548-1.229.573-1.557.043-.142-.229-.163-.369-.146-.952l.011-.381.416-.039c1.764-.162 3.129-.594 4.779-1.511l.358-.199-.296-.139c-.296-.139-.51-.399-.515-.628-.002-.064-.062.007-.139.164-.178.362-.469.555-.838.554-.411-.001-.753-.211-.864-.53l-.087-.251-.131.247c-.072.137-.204.303-.293.37-.22.163-.699.204-.989.083-.237-.099-.475-.41-.479-.627-.001-.086-.031-.058-.096.093-.14.322-.324.485-.66.585-.284.085-.323.082-.605-.04-.215-.093-.344-.199-.445-.368l-.142-.239-.149.229c-.412.631-1.294.613-1.636-.033l-.136-.257-.113.23c-.159.323-.46.509-.827.509-.478 0-.915-.342-.92-.721-.002-.062-.066.014-.144.166-.191.377-.467.555-.858.555-.478 0-.897-.332-.911-.721-.003-.086-.018-.078-.062.033-.032.08-.116.227-.186.325-.39.546-1.257.479-1.575-.121-.114-.217-.142-.239-.174-.14-.241.759-1.366.854-1.735.146l-.137-.262-.113.227c-.366.735-1.427.69-1.719-.073l-.106-.276h-.665c-.581 0-.669.013-.696.107-.017.06-.119.427-.225.816-.107.39-.29 1.055-.408 1.479-.117.424-.297 1.075-.398 1.448-.102.373-.279 1.012-.393 1.418s-.31 1.113-.434 1.571c-.124.457-.29 1.054-.367 1.325-.143.494-.212.773-.209.831.001.018-.029.11-.065.206-.037.096-.147.484-.246.862-.099.379-.198.737-.222.797-.04.102.416.107 9.047.107 8.094 0 9.092-.01 9.125-.094zm-15.552-3.757v-2.188h3.999l.004 2.032c.002 1.118-.013 2.102-.034 2.188l-.039.155h-3.93v-2.187zm1.28-.016l-.017-1.34-.2-.02-.201-.02v2.718h.434l-.016-1.338zm.986 0l-.017-1.34-.192-.019c-.156-.016-.199.007-.23.123-.05.187-.051 1.924 0 2.29.038.276.046.285.248.285h.208l-.017-1.339zm.877-.015v-1.355h-.37v2.71h.37v-1.355zm2.095.033v-2.189h3.944v4.369l-1.972.005-1.972.005v-2.19zm1.236 1.245c.002-.062.001-1.72-.003-2.469-.001-.158-.018-.172-.201-.153l-.201.02-.016 1.34-.017 1.34h.217c.131-.001.219-.031.221-.078zm.982-1.282v-1.359l-.2.02-.2.02-.017 1.34-.016 1.34h.434v-1.361zm.894.004v-1.324l-.169-.02-.169-.02V56.505l.169-.02.169-.02v-1.323zm2.106 2.178c-.023-.023-.042-1.008-.042-2.189v-2.146h4l-.013 2.172-.013 2.172-1.945.017c-1.07.008-1.964-.003-1.987-.026zm1.252-2.178v-1.355h-.432v2.71h.432v-1.355zm.972.015l-.017-1.34-.2-.02-.2-.02v2.718h.434l-.017-1.338zm.877-.015v-1.355h-.37v2.71h.37v-1.355zm2.095.031v-2.188h3.944v4.376h-3.944v-2.188zm1.28-.016l-.017-1.34h-.432l-.016 1.34-.017 1.34h.498l-.016-1.34zm.938-.019v-1.359l-.2.02-.2.02-.017 1.34-.017 1.34h.434v-1.361zm.911.019l-.017-1.34-.169-.02-.169-.02v2.718h.372l-.017-1.338zm36.218 3.76c-.023-.06-.111-.372-.195-.694a40.447 40.447 0 0 0-.269-.985c-.064-.221-.217-.775-.341-1.232-.224-.83-.423-1.549-.769-2.773-.275-.977-.86-3.113-.995-3.636-.066-.254-.158-.587-.206-.739s-.117-.396-.154-.539l-.067-.262-.66.001-.66.002-.143.328c-.106.245-.202.362-.377.461-.469.264-1.096.12-1.357-.31l-.108-.178-.166.218c-.343.45-.931.544-1.378.221-.138-.1-.269-.241-.292-.314-.04-.126-.051-.122-.226.09-.237.287-.471.406-.802.406-.336 0-.657-.16-.825-.412l-.131-.197-.137.186c-.424.574-1.327.569-1.656-.009-.129-.227-.163-.229-.252-.015-.039.093-.179.232-.312.309-.472.271-1.092.13-1.357-.308l-.11-.181-.115.197c-.133.23-.538.43-.875.43-.29 0-.621-.176-.787-.418l-.129-.191-.137.186c-.197.267-.488.423-.786.424-.376 0-.576-.093-.836-.387-.139-.157-.231-.223-.231-.164 0 .105-.263.373-.474.481-.074.038-.271.069-.438.069-.238 0-.357-.039-.554-.182-.138-.101-.269-.238-.291-.309-.055-.172-.111-.159-.202.048-.108.243-.489.442-.848.442-.343 0-.654-.167-.813-.437-.059-.099-.121-.179-.139-.177-.019 0-.089.09-.156.197-.068.108-.228.254-.354.325l-.231.13.785.408c.924.479 1.59.734 2.444.937.887.209.921.215 1.654.271.364.028.678.065.696.085.019.018.038.265.043.548.008.47-.006.538-.162.772-.436.649-1.426.499-1.69-.257-.041-.117-.066-.143-.07-.071-.005.124-.222.46-.372.575-.208.161-.589.207-.882.107-.286-.098-.592-.446-.604-.687-.003-.061-.031-.021-.062.086-.181.624-1.104.864-1.561.408l-.162-.162-.168.158c-.401.38-1.127.316-1.386-.122l-.127-.214-.111.145c-.104.136-.113.372-.129 3.351-.01 1.763-.009 3.294.001 3.403l.02.2 3 .017c1.65.009 7.101.023 12.112.031 8.659.016 9.113.012 9.072-.091zm-22.463-3.744v-2.188h3.944v4.376h-3.944v-2.188zm1.241.154c.009-1.689.028-1.552-.208-1.529l-.2.02-.017 1.344-.017 1.343.218-.019.218-.02.006-1.139zm.978-.185v-1.355h-.431v2.71h.431v-1.355zm.873.399c.014-.526.014-1.139 0-1.359-.025-.393-.029-.402-.188-.383l-.162.019-.017 1.34-.017 1.34h.357l.027-.957zm2.127 1.779c-.023-.023-.042-1.008-.042-2.189v-2.147l1.987.016 1.987.016V57.329l-1.945.017c-1.07.008-1.964-.003-1.987-.026zm1.252-2.178v-1.355h-.432v2.71h.431v-1.355zm.972.015l-.017-1.34-.2-.02-.201-.02v2.718h.434l-.016-1.338zm.876-.015v-1.355h-.37v2.71h.37v-1.355zm2.096.028v-2.185h3.944v4.376l-1.972-.004-1.972-.004V55.17zm1.28-.013l-.017-1.34h-.431l-.017 1.262c-.009.693-.003 1.297.013 1.34.017.043.128.078.249.078h.219l-.016-1.34zm.938-.019v-1.359l-.2.02-.201.02-.017 1.34-.017 1.34h.434v-1.361zm.91.019l-.017-1.34-.169-.02-.169-.02v2.718h.373l-.018-1.338zm2.091 2.164c-.021-.022-.04-1.007-.04-2.188v-2.147h4.002v4.376h-1.962c-1.078-.002-1.979-.02-2-.041zm1.251-2.179v-1.355h-.432v2.71h.431v-1.355zm.986 0v-1.355h-.432v2.71h.432v-1.355zm.862-.004v-1.359l-.169.019-.169.02-.016 1.341-.017 1.34h.373v-1.361zm-28.345.481v-3.004h-.494v6.013l.247-.003.247-.002v-3.004zm1.478.185v-2.818h3.512v5.608h.678v-5.977h-4.806v6.008h.616v-2.821zm5.546-.185v-3.004h-.554v2.983c0 1.935.021 2.991.062 3.004.034.011.159.021.277.021h.216v-3.004zm-14.576-3.691c.259-.118.18-.175-.244-.175-.409 0-.521.078-.262.183.193.077.323.075.506-.008zm1.909.011c.284-.108.174-.187-.258-.185l-.416.002.146.121c.162.136.293.151.528.062zm1.954-.061l.146-.121h-.863l.146.121c.08.067.208.121.286.121.076 0 .205-.054.285-.121zm1.91 0l.146-.121-.416-.003c-.229-.001-.416.012-.416.027 0 .05.333.213.44.215.055.002.166-.051.246-.118zm1.56.05c.259-.118.18-.175-.244-.175-.22 0-.4.013-.4.028 0 .043.326.212.413.215.041.002.144-.029.231-.068zm1.91 0c.254-.116.182-.175-.213-.175-.379 0-.483.081-.231.183.191.076.262.075.444-.008zm1.947-.024c.1-.051.182-.106.182-.123 0-.016-.18-.028-.4-.028-.409 0-.521.078-.262.183.199.08.276.075.48-.032zm1.874.024c.254-.116.182-.175-.213-.175-.387 0-.465.058-.231.171.183.088.256.089.444.004zm2.03-.052c.103-.103.002-.131-.403-.11l-.392.018.185.108c.188.108.492.101.61-.016zm1.667.052c.254-.116.182-.175-.213-.175-.38 0-.483.081-.231.183.19.076.262.075.444-.008zm1.639-.024c.1-.051.182-.106.182-.123 0-.016-.18-.028-.4-.028-.409 0-.521.078-.262.183.198.08.276.075.48-.032zm1.91 0c.1-.051.182-.106.182-.123 0-.016-.18-.028-.4-.028-.415 0-.501.056-.262.171.192.093.271.089.48-.02zm1.874.024c.254-.116.182-.175-.213-.175-.379 0-.482.081-.231.183.19.076.261.075.444-.008zm-16.218-1.483c1.667-1.292 3.298-3.05 4.347-4.686.222-.346.234-.354.507-.354.271 0 .286.01.48.324.11.177.324.489.475.692.15.204.322.439.38.524.58.837 2.343 2.594 3.511 3.497l.258.199 1.16.006c.638.004 1.243.004 1.344-.001.15-.007.041-.08-.585-.394-1.549-.776-2.949-1.827-4.344-3.262-1.088-1.118-1.7-1.856-2.433-2.935-.197-.29-.308-.387-.31-.27-.001.062-.687.993-1.162 1.578-.114.141-.309.38-.432.531-.326.404-1.881 1.96-2.354 2.354-.938.782-1.988 1.483-2.949 1.966-.399.2-.757.364-.796.364s-.071.021-.071.047c0 .024.611.04 1.357.032l1.357-.013.26-.199zm8.567.165c-.007-.019-.285-.278-.618-.576-.332-.299-.857-.816-1.166-1.15l-.562-.607-.223.17c-.643.49-1.603.53-2.289.095l-.294-.186-.662.697c-.363.383-.885.89-1.158 1.125s-.487.443-.476.463c.03.044 7.465.014 7.448-.031zm-26.888-2.282c.079-.077.041-.089-.292-.089-.393 0-.499.08-.245.185.167.069.414.025.537-.096zm1.86.037l.146-.121-.416-.002c-.229-.002-.416.011-.416.026 0 .05.333.213.44.216.055.001.166-.052.246-.119zm1.961-.037c.079-.077.037-.089-.324-.089-.227 0-.413.014-.413.029 0 .017.076.071.169.122.186.103.427.077.568-.062zm1.86.037l.146-.121-.416-.002c-.229-.002-.416.011-.416.026 0 .05.333.213.439.216.056.001.166-.052.247-.119zm1.96-.037c.079-.077.037-.089-.323-.089-.228 0-.414.014-.414.029 0 .017.076.071.169.122.186.103.427.077.568-.062zm1.86.037l.146-.121-.432-.001-.431-.002.185.122c.232.155.349.156.532.002zm1.91 0l.146-.121-.416-.002c-.229-.002-.417.011-.417.026 0 .05.334.213.44.216.056.001.167-.052.247-.119zm1.91 0l.146-.121-.416-.002c-.229-.002-.416.011-.416.026 0 .05.333.213.44.216.055.001.167-.052.246-.119zm1.962-.037c.079-.077.037-.089-.324-.089-.228 0-.414.014-.414.029 0 .017.076.071.169.122.186.103.427.077.569-.062zm1.859.037l.146-.121-.416-.002c-.229-.002-.416.011-.416.026 0 .05.333.213.439.216.056.001.167-.052.247-.119zm12.47-.002c.094-.041.057-.054-.154-.057-.201-.002-.251.013-.185.057.11.072.174.072.339 0zm1.91 0c.091-.039.042-.053-.185-.053s-.275.014-.185.053c.068.029.151.053.185.053s.117-.023.185-.053zm1.941 0c.067-.044.017-.061-.185-.061s-.252.017-.186.061c.051.033.134.06.186.06.051 0 .134-.027.185-.06zm1.91 0c.067-.044.017-.061-.185-.061s-.252.017-.185.061c.051.033.134.06.185.06.052 0 .135-.027.185-.06zm1.911 0c.066-.043.005-.059-.215-.057-.229.003-.276.018-.185.057.166.072.289.072.4 0zm1.879 0c.094-.041.057-.054-.154-.057-.2-.002-.251.013-.185.057.11.072.174.072.339 0zm1.941 0c.066-.043.005-.059-.215-.057-.229.003-.276.018-.186.057.167.072.29.072.401 0zm1.911 0c.067-.044.016-.061-.186-.061-.201 0-.251.017-.185.061.051.033.134.06.185.06.052 0 .135-.027.186-.06zm1.879 0c.094-.041.057-.054-.154-.057-.201-.002-.251.013-.185.057.11.072.174.072.339 0zm1.911 0c.094-.041.057-.054-.154-.057-.201-.002-.252.013-.185.057.109.072.173.072.339 0zm-23.163-.469c.116-.055.225-.123.242-.15.033-.054-.618-.999-.709-1.032-.029-.01-.183.177-.342.415s-.329.465-.375.503c-.127.106-.106.154.115.264.258.126.801.127 1.069 0zm-22.482-1.103c2.357-.24 4.939-1.01 7.245-2.161l.607-.303-1.023-.017-1.023-.017v-4.374h3.944v1.602c0 1.242.018 1.603.077 1.602.102-.002.6-.333 1.711-1.139 1.168-.847 3.188-2.613 3.906-3.412l.117-.131h-1.052l-.072.289c-.131.519-.613.831-1.132.733-.231-.043-.658-.402-.658-.554 0-.055-.028-.1-.062-.1s-.062.038-.062.086c0 .133-.458.514-.676.561-.431.095-.915-.15-1.082-.548l-.078-.186-.092.219c-.287.688-1.338.708-1.669.032l-.116-.235-.106.236c-.192.428-.81.64-1.23.423-.214-.11-.497-.438-.498-.577 0-.057-.063.006-.139.138-.185.323-.405.476-.744.514-.363.041-.785-.189-.962-.525-.066-.126-.122-.183-.123-.126-.004.156-.311.488-.538.583-.444.187-.975-.001-1.18-.414l-.122-.246-.114.232c-.25.51-.941.657-1.408.301-.131-.1-.235-.241-.257-.348-.04-.2-.123-.183-.209.045-.035.092-.086.134-.129.107-.041-.025-.054-.018-.032.019.091.148-.458.419-.759.375-.182-.026-.189-.018-.306.379-.066.223-.159.57-.208.774-.091.382-.51 1.992-.842 3.234-.104.39-.233.89-.288 1.109-.055.221-.179.689-.276 1.044-.25.912-.266.866.288.866.256.003.873-.038 1.372-.09zm1.061-4.683V39.92h3.944v4.374l-1.972.001-1.972.002v-2.189zm1.294-.031v-1.355h-.425l-.019 1.063c-.01.585-.009 1.194 0 1.355.019.289.021.293.231.293h.213v-1.356zm.972.016l-.017-1.34-.2-.02-.2-.02V43.432h.434l-.017-1.339zm.877-.016v-1.355h-.37V43.433h.37v-1.356zm4.923 4.519c.292-.158.669-.375.838-.483s.447-.282.616-.388c.598-.372 1.608-1.097 2.681-1.925 1.315-1.018 4.149-3.778 5.126-4.997.091-.113.42-.512.731-.885s.61-.747.665-.831c.055-.085.268-.376.472-.647.206-.271.414-.553.464-.625.187-.275.658-.986.819-1.239.16-.251.18-.262.475-.262h.308l.223.354c.292.465.593.911.818 1.217.1.136.282.385.404.555.438.606.497.685.74.987.364.454 1.226 1.491 1.559 1.876.16.186.817.876 1.462 1.534 2.095 2.142 3.89 3.593 6.501 5.256.186.119.577.345.869.503l.53.288 2.366-.004 2.366-.005-.523-.173c-1.938-.641-3.831-1.538-5.661-2.684-.538-.337-2.055-1.399-2.495-1.747-.666-.526-1.546-1.259-1.826-1.519-1.032-.957-1.434-1.339-1.779-1.692-.505-.519-1.257-1.312-1.613-1.699-.296-.322-1.489-1.734-1.694-2.006-.066-.088-.329-.431-.583-.764-.577-.755-1.053-1.43-1.553-2.203-.213-.329-.402-.598-.419-.597-.017.002-.271.367-.565.815-.447.679-.886 1.287-1.988 2.748-.18.239-1.438 1.723-1.73 2.039-1.217 1.323-2.137 2.253-2.928 2.958-.285.254-.561.507-.612.561-.192.202-1.227 1.04-1.978 1.603-1.139.853-2.536 1.771-3.403 2.236-.228.122-.593.318-.811.436-.219.116-.684.34-1.033.496-.349.155-.759.341-.912.412-.153.07-.707.276-1.232.456l-.955.327 2.366.003 2.366.002.528-.287zm9.686-.251c.728-.761 1.042-1.119 1.042-1.188 0-.036-.601-.06-1.57-.06h-1.57l-.017-1.628-.016-1.63-.555.527c-.821.78-2.237 1.988-3.014 2.57-.649.486-1.703 1.229-1.933 1.362-.298.173-.877.545-.877.563 0 .013 1.799.021 3.997.021h3.997l.516-.537zm14.907.518c0-.012-.192-.136-.427-.276-1.448-.864-3.833-2.729-5.426-4.244l-.462-.44-.017 1.597-.017 1.597h-1.601c-.881 0-1.602.023-1.602.051 0 .072.449.586 1.049 1.2l.526.536h3.988c2.195 0 3.989-.009 3.989-.021zm12.14-.087c0-.06-.082-.412-.182-.786-.188-.695-.566-2.135-.835-3.173-.314-1.213-.654-2.51-.758-2.896l-.108-.4-.317-.039c-.393-.048-.675-.242-.819-.563l-.109-.244-.071.219c-.04.12-.169.291-.293.386-.474.361-1.143.209-1.412-.323l-.13-.257-.131.27c-.342.704-1.437.657-1.677-.073l-.074-.225-.136.27c-.275.549-.928.704-1.41.337-.122-.094-.256-.263-.297-.377l-.075-.207-.104.235c-.159.354-.446.529-.869.529-.422 0-.636-.133-.832-.514l-.133-.261-.07.213c-.039.118-.171.29-.298.387-.187.144-.29.175-.567.175-.413 0-.701-.179-.86-.533l-.106-.238-.108.24c-.165.366-.426.531-.84.531-.44 0-.754-.216-.868-.597-.042-.14-.088-.215-.102-.168-.156.52-.569.832-1.03.78-.48-.055-.829-.413-.829-.852v-.181h-.944l.117.132c.065.072.325.329.577.57.252.24.53.507.616.592.476.469 2.056 1.777 2.716 2.249.9.646 1.17.832 1.198.832.018 0 .032-.652.032-1.448V39.92h3.944v4.372l-.749.019-.749.017.658.326c2.702 1.343 5.942 2.194 8.465 2.225.503.004.569-.007.569-.103zm-6.593-4.669V39.92h3.944v4.376l-1.972-.002-1.972-.001v-2.186zm1.28-.014l-.017-1.34h-.432l-.016 1.34-.017 1.341h.498l-.016-1.341zm.938-.015v-1.356h-.432V43.433h.432v-1.355zm.869 1.064c.004-.162.018-.432.032-.602.014-.169.008-.647-.012-1.063-.038-.745-.04-.756-.186-.756h-.148l-.009 1.155c-.009 1.176-.008 1.428.003 1.511.003.025.075.046.16.046.141.001.154-.023.16-.291zm-24.347-.202v-1.355h-.215c-.119 0-.216.028-.218.062-.001.034-.001.603-.001 1.264 0 .66 0 1.243.001 1.294.002.064.068.092.218.092h.215V42.94zm.972-.014l.017-1.341h-.218c-.119 0-.217.026-.217.06s-.002.553-.006 1.155c-.009 1.646-.028 1.508.207 1.485l.2-.02.017-1.339zm.876.014v-1.355h-.37v2.71h.37V42.94zm4.819.509c.01-.467.011-1.076.001-1.356l-.017-.508h-.426v2.71h.424l.018-.846zm.987.493c.01-.195.01-.805 0-1.355l-.019-1.002h-.418l-.019.755c-.01.415-.011 1.025-.001 1.355l.018.601h.421l.018-.354zm.897-1.016l.017-1.341h-.367l-.018 1.254c-.01.689-.008 1.301.003 1.359.015.074.069.1.185.086l.164-.019.016-1.339zm-5.27.347l.447-.7.277.001.277.001.493.751c.271.414.528.762.57.773.061.019.077-.347.077-1.677v-1.7h1.392c.797 0 1.383-.023 1.371-.055-.011-.031-.246-.302-.522-.602s-.604-.67-.729-.822-.333-.402-.462-.557c-.268-.316-.718-.891-1.003-1.276-.181-.246-.201-.257-.32-.17-.42.305-.613.364-1.18.367-.505.002-.595-.016-.924-.186l-.365-.188-.4.52c-.608.789-1.375 1.706-1.933 2.313-.275.3-.51.57-.521.602-.012.031.587.055 1.402.055h1.422v1.702c0 1.503.011 1.693.092 1.626.05-.042.293-.392.539-.778zm-14.202-1.18l-.017-1.34-.2-.02-.2-.02V43.432h.434l-.017-1.339zm.947.339c.005-.551.012-1.153.016-1.34l.006-.339h-.431l-.017 1.34-.017 1.341h.434l.009-1.002zm.915-.355v-1.355h-.37V43.433h.37v-1.356zm26.005-.003v-1.36l-.2.02-.201.02-.017 1.262c-.009.693-.003 1.297.014 1.34.016.043.114.079.217.079h.187v-1.361zm.972.019l-.017-1.34-.2-.02-.201-.02V43.432h.434l-.016-1.339zm.877-.02v-1.359l-.169.02-.17.02-.016 1.34-.017 1.341h.372v-1.362zm-41.838-3.139c.216-.116.125-.184-.25-.184-.371 0-.463.063-.262.18.14.082.362.084.512.004zm1.894-.011c.041-.041.074-.097.074-.123 0-.069-.663-.062-.706.008-.095.153.488.258.632.115zm1.866.011c.216-.116.124-.184-.251-.184-.371 0-.463.063-.262.18.14.082.363.084.513.004zm1.893-.011c.135-.135.077-.173-.265-.173-.187 0-.339.022-.339.05 0 .105.157.197.339.197.105 0 .224-.033.265-.074zm1.865.011c.216-.116.124-.184-.251-.184-.371 0-.463.063-.262.18.141.082.364.084.513.004zm1.894-.011c.135-.135.077-.173-.265-.173-.187 0-.339.022-.339.05 0 .105.156.197.339.197.105 0 .224-.033.265-.074zm1.865.011c.216-.116.125-.184-.25-.184-.371 0-.463.063-.262.18.14.082.362.084.512.004zm1.894-.011c.135-.135.078-.173-.265-.173-.186 0-.339.022-.339.05 0 .105.157.197.339.197.105 0 .225-.033.265-.074zm1.865.011c.217-.116.125-.184-.25-.184-.371 0-.462.063-.262.18.14.082.362.084.512.004zm1.937-.06c.111-.122.108-.124-.268-.124-.208 0-.379.022-.379.05 0 .214.472.267.647.074zm1.868.049c.137-.137.076-.173-.296-.173-.204 0-.37.026-.37.059 0 .165.524.254.666.114zm16.811-.033c.103-.104.091-.109-.249-.128-.403-.021-.49.021-.316.148.163.119.434.11.565-.02zm1.876.044c.216-.116.125-.184-.25-.184-.371 0-.463.063-.262.18.14.082.362.084.512.004zm1.91 0c.216-.116.125-.184-.25-.184-.203 0-.37.022-.37.05 0 .179.382.261.62.134zm1.91 0c.217-.116.125-.184-.25-.184-.371 0-.463.063-.262.18.141.082.363.084.512.004zm1.911 0c.216-.116.124-.184-.25-.184-.372 0-.463.063-.262.18.14.082.362.084.512.004zm1.91 0c.216-.116.125-.184-.25-.184-.371 0-.463.063-.262.18.14.082.362.084.512.004zm1.911 0c.216-.116.124-.184-.251-.184-.371 0-.462.063-.262.18.14.082.363.084.513.004zm1.91 0c.217-.116.125-.184-.25-.184-.204 0-.37.022-.37.05-.001.179.382.261.62.134zm1.91 0c.216-.116.125-.184-.25-.184-.371 0-.463.063-.262.18.14.082.362.084.512.004zm1.91 0c.216-.116.125-.184-.25-.184-.371 0-.463.063-.262.18.14.082.363.084.512.004zm1.911 0c.216-.116.125-.184-.25-.184-.371 0-.462.063-.262.18.139.082.362.084.512.004zm-48.519-1.963c1.335-1.092 2.783-2.687 3.735-4.116l.382-.573h.277c.275 0 .279.003.542.415.936 1.467 2.713 3.429 3.959 4.374l.589.447 1.321-.001 1.321-.002-.771-.39c-1.553-.785-2.666-1.601-4.043-2.965-.988-.978-2.212-2.466-2.728-3.313-.078-.127-.161-.231-.185-.231-.036 0-.359.436-.93 1.256-.228.326-1.33 1.598-1.796 2.071-.738.751-1.341 1.276-2.131 1.861-.911.674-1.01.735-2.02 1.261l-.863.448 1.335.003 1.335.001.671-.546zm7.875.319c-.629-.573-1.273-1.205-1.707-1.675l-.474-.514-.336.192c-.642.367-1.416.377-2.042.027l-.285-.159-.822.854c-.452.47-.977.979-1.165 1.132-.188.152-.344.298-.346.323s1.668.046 3.71.045l3.713-.002-.246-.223zm24.997-.275c.681-.538 2.173-2.006 2.579-2.535.329-.429.827-1.086.968-1.275.063-.085.225-.325.359-.537.24-.375.25-.382.521-.384l.277-.002.382.573c1.057 1.588 2.651 3.303 4.066 4.375l.38.288 1.314-.002 1.314-.002-.708-.355c-1.105-.552-2.111-1.229-3.174-2.134-.632-.537-1.76-1.703-2.297-2.375-.258-.321-.568-.71-.691-.862-.122-.152-.365-.492-.54-.755l-.317-.479-.32.479c-.693 1.033-1.491 1.995-2.517 3.032-1.395 1.412-2.568 2.276-4.195 3.094l-.708.355 1.334.002 1.334.002.639-.503zm6.919-.696l-1.202-1.199-.429.224c-.389.203-.476.225-.918.225-.431 0-.536-.023-.891-.205l-.403-.203-.448.483c-.414.446-1.075 1.094-1.681 1.646l-.247.225 3.71.002 3.711.001-1.202-1.199zm-24.016.706c.518-.553 1.805-2.097 1.805-2.166 0-.029-.846-.053-1.879-.053h-1.88V30.43h3.942l.017 2.104.016 2.103.631-.855c.347-.47.682-.924.743-1.009.233-.32.714-1.05 1.206-1.833.158-.251.177-.263.471-.263.286 0 .316.016.446.225.68 1.097 2.071 3.096 2.158 3.101.025.001.046-.802.046-1.784v-1.787h3.944v4.376h-1.664c-.916 0-1.664.022-1.664.051 0 .086 1.387 1.734 2.021 2.404.18.188.216.202.458.166 2.025-.309 3.582-.971 5.408-2.304 1.547-1.128 3.633-3.403 4.591-5.008.129-.217.273-.438.319-.492.071-.084.067-.136-.027-.347l-.111-.248-.113.271c-.2.484-.792.666-1.311.401-.2-.103-.278-.191-.362-.413l-.108-.282-.117.271c-.213.493-.82.681-1.34.414-.191-.097-.264-.187-.364-.446-.069-.179-.126-.269-.128-.201-.005.192-.228.512-.449.646-.439.269-1.106.077-1.333-.382-.109-.219-.12-.227-.153-.096-.104.413-.726.726-1.172.588-.278-.086-.577-.375-.651-.632-.032-.108-.057-.139-.06-.072-.018.358-.5.734-.937.729-.25-.003-.597-.156-.712-.313-.065-.088-.086-.085-.216.032-.217.199-.403.278-.659.281-.299.004-.703-.203-.797-.41l-.074-.161-.231.242c-.132.139-.33.271-.463.307-.412.113-.896-.113-1.093-.511-.067-.136-.123-.209-.123-.161 0 .137-.296.489-.5.595-.515.266-1.188-.02-1.324-.563l-.045-.179-.067.187c-.149.417-.464.644-.893.644-.387 0-.662-.165-.826-.494l-.143-.285-.111.269c-.29.7-1.385.697-1.675-.006l-.109-.263-.144.289c-.16.32-.461.502-.833.502-.231 0-.694-.207-.747-.334-.024-.061-.052-.056-.113.02-.142.173-.504.322-.773.317-.349-.005-.68-.217-.817-.521l-.107-.241-.12.232c-.147.282-.355.445-.659.514-.418.094-.872-.122-1.024-.489-.08-.192-.186-.251-.186-.104 0 .131-.237.401-.443.508-.251.131-.685.123-.929-.017-.121-.069-.259-.234-.35-.419l-.151-.303-.055.212c-.103.397-.414.613-.889.613-.365 0-.624-.149-.788-.452-.066-.124-.138-.226-.158-.226-.02 0-.082.097-.139.215-.307.645-1.349.615-1.645-.045l-.109-.242-.146.264c-.081.146-.236.316-.345.38-.244.143-.675.151-.929.02-.215-.111-.443-.403-.444-.57 0-.072-.058-.017-.159.15l-.158.265.321.506c.53.835 1.07 1.551 1.895 2.507.636.737 1.924 1.975 2.056 1.975.029 0 .052-.912.052-2.025V30.51l.286-.039c.157-.021 1.044-.039 1.972-.039h1.686v4.376h-1.818c-1 0-1.818.022-1.818.052 0 .046.347.304 1.246.924.442.305 1.697.91 2.373 1.146.729.253 1.783.501 2.224.521.102.003.258-.118.547-.426zm12.466-4.403v-2.185l1.957.012 1.956.013.016 2.173.017 2.172H47.45v-2.185zm1.233.027v-1.355h-.432V34.005h.431v-1.356zm.985 0v-1.355h-.431V34.005h.431v-1.356zm.873.269c.012-.598.012-1.208 0-1.355-.02-.25-.034-.269-.2-.269h-.179V34.005h.358l.021-1.087zm-9.944 3.723c.112-.067.195-.141.185-.164-.054-.121-.694-.992-.73-.992-.023 0-.119.118-.213.262-.094.145-.267.382-.385.527-.205.254-.209.27-.1.354.108.082.177.107.485.172.204.042.542-.029.758-.159zM24.08 34.63c.258-.14.265-.215.04-.499-.118-.148-.271-.362-.341-.475-.069-.113-.149-.206-.177-.206-.046 0-.292.315-.657.845-.152.219-.129.262.218.407.211.089.686.052.917-.072zm32.846.024c.338-.183.339-.185.217-.378-.227-.36-.587-.826-.64-.826-.029 0-.083.055-.118.121-.036.065-.202.3-.37.519-.323.421-.323.457.002.587.23.092.723.079.909-.023zm-27.347-2.005v-1.355h-.494V34.005h.494v-1.356zm.924 0v-1.355h-.431V34.005h.431v-1.356zm.924 0v-1.355h-.37V34.005h.37v-1.356zm2.835 0v-1.355h-.431V34.005h.431v-1.356zm.986 0v-1.355h-.432V34.005h.432v-1.356zm.924 0v-1.355h-.37V34.005h.37v-1.356zm7.765 0v-1.355h-.431V34.005h.431v-1.356zm.985 0v-1.355h-.431V34.005h.431v-1.356zm.925 0v-1.355h-.185c-.102 0-.186.028-.186.062-.002.034-.002.562-.002 1.171 0 .61 0 1.192.002 1.294.001.164.022.186.186.186h.185v-1.358zm-24.112-.939c.684-.878 1.348-1.852 1.278-1.875-.221-.075-.475-.301-.59-.526l-.135-.264-.071.209c-.039.115-.171.296-.293.401-.218.187-.228.214-.452 1.3-.126.61-.243 1.172-.259 1.248-.016.076-.016.139 0 .139s.251-.285.522-.632zm37.093.157c-.054-.23-.174-.791-.267-1.245-.145-.71-.197-.859-.368-1.064-.109-.131-.217-.295-.239-.364-.035-.109-.057-.092-.168.132-.098.197-.198.291-.425.396l-.297.138.252.391c.498.77 1.531 2.116 1.583 2.063.014-.016-.017-.217-.071-.447zm-44.59-2.578c.1-.052.182-.106.182-.123 0-.016-.188-.028-.417-.027l-.416.002.154.12c.188.146.262.15.497.028zm1.617-.013l.197-.107-.199-.02c-.11-.011-.304-.012-.432 0l-.232.019.185.105c.233.133.243.133.481.003zm2.013-.05c.079-.076.036-.088-.327-.088-.281 0-.404.021-.377.065.116.187.524.199.704.023zm1.911 0c.078-.076.036-.088-.324-.088-.228 0-.414.013-.414.028s.076.071.169.123c.186.102.427.075.569-.063zm1.91 0c.078-.076.036-.088-.327-.088-.281 0-.404.021-.376.065.114.187.522.199.703.023zm1.851.035l.154-.12-.419-.002c-.422-.001-.498.066-.206.184.203.081.303.069.471-.062zm1.918.002l.146-.121-.416-.002c-.229-.002-.416.01-.416.026 0 .05.333.213.44.215.056.002.166-.052.246-.118zm1.961-.037c.079-.076.037-.088-.323-.088-.228 0-.414.013-.414.028s.076.071.169.123c.187.102.427.075.568-.063zm1.911 0c.079-.076.037-.088-.327-.088-.281 0-.404.021-.377.065.115.187.523.199.704.023zm1.91 0c.079-.076.037-.088-.323-.088-.228 0-.414.013-.414.028s.076.071.169.123c.186.102.427.075.568-.063zm1.86.037l.146-.121-.416-.002c-.229-.002-.416.01-.416.026 0 .05.333.213.44.215.055.002.166-.052.246-.118zm1.91 0l.146-.121-.416-.002c-.229-.002-.416.01-.416.026 0 .05.333.213.44.215.055.002.166-.052.246-.118zm1.602 0l.145-.121-.385-.002c-.4-.002-.483.054-.247.169.208.099.326.087.487-.046zm1.868.05c.254-.116.182-.175-.213-.175-.386 0-.465.058-.231.171.184.087.256.088.444.004zm1.953-.05l.146-.121-.385-.002c-.4-.002-.483.054-.246.169.205.099.323.087.485-.046zm1.91 0l.146-.121h-.8l.146.121c.08.066.195.121.255.121s.173-.055.253-.121zm1.91 0l.146-.121-.416-.002c-.229-.002-.416.01-.416.026 0 .05.333.213.44.215.055.002.166-.052.246-.118zm1.788 0l.146-.121-.385-.002c-.4-.002-.484.054-.247.169.206.099.324.087.486-.046zm1.596.026c.1-.051.182-.106.182-.123 0-.016-.187-.028-.416-.026l-.416.002.146.121c.174.145.265.15.504.026zm1.91 0c.1-.051.182-.106.182-.123 0-.016-.201-.028-.447-.027l-.447.002.154.12c.187.145.319.152.558.028zm1.969-.028l.154-.12-.447-.002c-.246-.001-.447.012-.447.027 0 .055.34.213.462.214.069 0 .193-.053.278-.119zm1.853.059c.216-.116.124-.183-.251-.183-.394 0-.478.073-.2.175.226.083.309.084.451.008zm1.909-.031c.1-.051.181-.106.181-.123 0-.016-.187-.028-.416-.026l-.416.002.146.121c.176.145.266.15.505.026zm1.873.024c.257-.117.181-.175-.228-.173l-.385.002.146.121c.168.139.25.148.467.05zm1.953-.05l.146-.121h-.8l.146.121c.08.066.194.121.255.121s.173-.055.253-.121zm1.868.05c.261-.119.179-.175-.259-.175h-.416l.185.123c.215.141.277.147.49.052zm1.947-.024c.1-.051.182-.106.182-.123 0-.016-.18-.028-.4-.028-.415 0-.501.056-.262.171.192.091.27.089.48-.02zm1.911 0c.1-.051.182-.106.182-.123 0-.016-.187-.028-.416-.026l-.417.002.146.121c.175.145.266.15.505.026zm1.873.024c.257-.117.181-.175-.229-.173l-.385.002.146.121c.168.139.251.148.468.05zm-48.34-1.532c0-.136-.01-.246-.023-.246s-.124.042-.247.094c-.172.071-.224.128-.224.246 0 .138.025.153.247.153h.246v-.247zm1.479-.462c0-.39-.014-.708-.032-.708-.017 0-.169.089-.337.2l-.307.2-.001.508-.001.509h.678v-.709zm1.356-.523c0-.678-.017-1.232-.038-1.232s-.146.085-.277.189l-.24.19v2.085h.554v-1.232zm1.479-.753v-1.985l-.339.335-.339.334v3.301h.678v-1.985zm1.356-.8c0-1.669-.022-2.763-.056-2.728-.031.032-.156.18-.277.327l-.222.268v4.918h.554v-2.785zm1.479-1.898v-4.684h.555c.4 0 .555-.021.559-.077.002-.042.003-.424.003-.847l-.001-.771-.681-.018-.681-.018v1.595c0 1.715-.052 2.175-.288 2.553l-.144.229V28.026h.677l.001-4.681zm1.341.416l-.016-4.268-.262-.019-.262-.019v8.572h.556l-.016-4.266zm1.493-.046V19.4h-.678V28.027h.678v-4.312zm6.739 3.982c1.675-1.265 3.375-3.08 4.493-4.799.217-.334.246-.354.475-.354.242 0 .25.008.654.616 1.037 1.563 2.783 3.399 4.292 4.516l.477.353 1.125-.004 1.125-.005-.462-.229c-.441-.219-1.14-.605-1.602-.887-.634-.387-1.732-1.286-2.609-2.137-.914-.888-2.353-2.625-2.822-3.409-.076-.127-.156-.23-.177-.23-.021 0-.101.104-.177.23-.258.431-.763 1.104-1.423 1.896-1.62 1.94-3.483 3.475-5.363 4.414l-.708.354 1.132.003 1.132.004.438-.332zm8.975.306c0-.015-.202-.197-.447-.407-.545-.466-1.42-1.316-1.846-1.794l-.315-.354-.254.175c-.427.294-.686.372-1.229.372-.45 0-.543-.021-.917-.214-.229-.117-.451-.2-.493-.184s-.229.203-.415.414c-.292.331-.964.973-1.88 1.794l-.247.22 4.021.002c2.212.001 4.022-.01 4.022-.024zm6.963-4.288V19.4h-.708l.007 4.224c.003 2.322.024 4.24.045 4.261.035.036.39.119.58.136.06.005.076-.893.076-4.306zm1.294.03v-4.282h-.493V28.028h.493v-4.283zm1.42 3.867c.001-.229 0-2.336-.003-4.684l-.005-4.268h1.053v-1.725h-1.356v1.232c0 1.167-.006 1.232-.116 1.232-.094 0-.124.063-.157.331-.045.362-.033 8.012.013 8.188.021.083.092.109.298.109h.27l.003-.415zm1.353-3.061c0-2.3-.021-3.492-.063-3.518-.034-.021-.145-.183-.246-.358l-.183-.318V28.029h.493l-.001-3.478zm1.547 1.274c.003-1.212.001-2.314-.005-2.449-.011-.239-.068-.334-.631-1.038-.101-.126-.106.01-.107 2.779l-.001 2.911h.739l.005-2.203zm1.349.49v-1.713l-.247-.241-.246-.24v3.907h.493v-1.713zm1.479.678v-1.034l-.276-.23c-.152-.127-.296-.229-.32-.229-.025.001-.039.522-.033 1.157.007.635.013 1.204.013 1.264 0 .088.056.107.308.107h.308v-1.035zm1.356.489v-.547l-.246-.164-.247-.163v1.42h.493v-.546zm1.448.265c-.305-.149-.559-.272-.563-.272-.005 0-.02.123-.032.276l-.022.277.586-.004.586-.004-.555-.273zm-32.598.081c.019-.076.026-1.982.017-4.236l-.017-4.099-.262-.019-.262-.019v8.511h.245c.204.001.252-.024.279-.138zm1.332-.211l.178-.035V19.4h-.678v8.333l.161-.04c.089-.023.241-.056.339-.076zm18.479-4.025v-4.129h-.492v8.13l.2.058c.11.031.221.06.247.063.025.003.045-1.852.045-4.122zm-17.163 3.531l.218-.104-.016-3.764-.016-3.763h-.494l-.016 3.867c-.01 2.478.006 3.866.044 3.866.035.002.16-.045.28-.102zm15.869-3.81V19.4h-.678v7.577l.231.122c.488.258.447.602.447-3.786zm-14.462 3.052l.29-.184V19.4h-.677v3.574c0 1.967.022 3.574.049 3.574.026.001.179-.081.338-.183zm12.922-3.39v-3.512h-.494V26.23l.201.128c.11.07.221.128.246.129.026-.001.047-1.58.047-3.512zm-1.294-.462V19.4h-.678l-.002 1.557c-.006 3.955 0 4.199.104 4.258.053.029.184.133.291.229.106.098.214.178.24.179s.045-1.398.045-3.11zm-10.225 2.855l.244-.196-.016-2.839-.016-2.84-.262-.019-.262-.019v3.053c0 1.68.016 3.055.035 3.055s.143-.087.277-.195zm5.466-.349c.192-.137.193-.14.088-.305-.217-.343-.581-.814-.629-.814-.045 0-.292.317-.657.846-.077.111-.111.214-.079.234.426.263.939.279 1.277.039zm-3.745-3.413V19.4h-.678v5.08l.339-.334.339-.335v-2.205zm6.976-.992l-.018-1.158-.229.019-.229.019-.016 2.185-.017 2.184.232.238.232.237.031-1.282c.019-.706.024-1.804.014-2.442zm-1.307.543V19.4h-.339c-.31 0-.339.013-.341.14-.021 1.276.019 2.617.082 2.7.041.054.17.228.287.386.117.157.235.287.262.287.027 0 .049-.79.049-1.756zm-4.543 1.383l.232-.305-.017-1.371-.017-1.371-.262-.019-.262-.019v1.697c0 .935.021 1.697.046 1.694.027.001.152-.139.28-.306zm1.542-2.164c.127-.22.167-.37.167-.632V19.4h-.678v1.744l.172-.24c.094-.132.247-.37.339-.528zm1.509-.158l-.018-.725-.262-.019-.262-.019v.369c0 .313.034.429.218.743.121.205.246.373.279.373.039.001.056-.277.045-.722zm1.277-1.925l1.787-.005-.339-.284c-.186-.157-.787-.733-1.333-1.282l-.995-.996-.23.172c-.506.377-1.314.478-1.946.241-.187-.069-.4-.184-.475-.252l-.135-.126-.363.388c-.539.575-1.403 1.41-1.847 1.783l-.392.329 1.84.031c1.012.017 2.02.025 2.24.019.22-.007 1.205-.015 2.188-.018zm-7.16-.381c1.658-1.249 3.309-3.019 4.432-4.75.194-.299.258-.354.411-.354.272 0 .36.052.51.299.923 1.527 2.809 3.555 4.469 4.806l.504.38 1.128-.002 1.128-.002-.739-.375c-1.252-.634-2.587-1.583-3.628-2.578-.748-.715-1.766-1.85-2.267-2.524l-.453-.612-.585-.003c-.553-.004-.59.005-.678.144-.119.19-.631.848-1.02 1.31-.567.673-2.151 2.217-2.739 2.669-.848.651-1.698 1.195-2.517 1.609l-.718.362 1.128.002 1.128.001.506-.382zm-8.052-1.87c.082-.214-.048-.655-.264-.895-.533-.589-1.51-.46-1.872.249-.12.235-.164.614-.082.698.023.021.523.04 1.111.04.899.001 1.077-.014 1.107-.092zm28.174-.089c.054-.385-.272-.933-.648-1.09-.257-.107-.708-.107-.963-.002-.306.128-.583.482-.632.808-.072.485-.109.471 1.126.451l1.095-.017.022-.15zm-14.872-.577c.102-.04.24-.105.308-.146.122-.072.122-.073-.014-.246-.075-.096-.236-.319-.357-.497-.122-.179-.243-.324-.271-.324-.027 0-.197.201-.377.447-.18.245-.354.48-.386.522-.042.057.015.111.211.199.301.138.609.153.886.045zM25.912 14.01c.237 0 .496.022.575.051.132.048.138.042.075-.076-.218-.407-.964-.413-1.229-.009-.095.145-.094.148.024.093.068-.033.318-.058.555-.059zm28.081-.017c.193-.017.436 0 .539.036.218.076.246.007.068-.171-.136-.137-.487-.22-.702-.165-.174.044-.473.27-.473.357 0 .037.045.045.108.018.06-.024.267-.059.46-.075zm-27.786-1.262c-.122-.136-.408-.142-.537-.012-.053.053-.097.102-.097.108s.165.012.366.012c.347.001.361-.005.268-.108zm28.162 0c-.11-.122-.335-.142-.515-.045-.205.109-.133.153.247.153.346.001.361-.005.268-.108zm-13.76-2.419V9.233h-1.232v2.157h1.232v-1.078zm.493-2.123c0-.52-.184-.829-.629-1.058-.352-.18-.77-.155-1.104.065-.305.202-.546.605-.546.913 0 .394-.031.384 1.178.384h1.103v-.304zM39.81 6.233c.153-.019.388-.003.521.033.297.083.341.05.148-.111-.368-.306-.808-.291-1.109.039l-.147.161.154-.045c.084-.024.279-.059.433-.077zm.405-1.241c-.122-.121-.448-.119-.571.003-.087.088-.061.097.284.094.338-.004.369-.015.287-.097zm29.747 17.429c-.357-.075-.727-.274-1.036-.559-.148-.137-.325-.243-.405-.243-.079 0-.342.069-.586.153-.625.217-1.473.194-2.071-.054-.539-.223-1.092-.724-1.394-1.261l-.23-.41-.678-.001c-.668-.002-.684-.004-1.127-.24-.715-.381-1.254-1.088-1.344-1.765l-.039-.288-.476-.033c-.299-.021-.565-.079-.717-.156-.393-.201-.784-.589-.98-.976-.165-.323-.184-.421-.183-.917.001-.479.024-.598.166-.869.201-.387.46-.702.577-.702.048 0 .086-.028.086-.064s.16-.139.354-.228c.293-.135.441-.163.848-.159.271.001.565.032.654.068.153.063.165.054.237-.192.423-1.431 1.799-2.221 3.229-1.854.208.054.509.181.669.283.283.18.418.188.418.026 0-.13.631-.688.974-.862.638-.323 1.568-.323 2.206 0 .398.202.815.589 1.031.957.182.31.35.9.35 1.23v.226l.508.027c.817.045 1.382.373 1.803 1.047.264.422.358.805.329 1.337l-.024.426.415.041c.792.078 1.538.618 1.877 1.36.085.186.184.337.22.337.083 0 .839.494 1.282.839.451.351.948.83 1.369 1.318l.345.4-.688.004c-.798.005-1.354.139-2.779.673-1.949.73-2.495.868-3.227.818-.343-.023-.46-.004-.695.112-.323.163-.893.23-1.268.151zm.747-.563c.135-.036.388-.16.564-.271.314-.202.322-.203.428-.087.17.188.688.157 1.546-.093.401-.116.854-.265 1.007-.329.435-.184 1.648-.612 2.157-.764l.462-.136-.277-.086c-.152-.048-.61-.102-1.017-.119-.684-.03-.823-.016-1.849.195-1.351.278-1.92.301-2.465.094-.613-.233-.955-.691-.955-1.279 0-.257-.025-.316-.177-.43-.323-.238-.31-.763.023-.922.171-.082.223-.082.375-.01.098.047.187.136.199.198.019.094.002.102-.101.047-.092-.05-.14-.045-.195.022-.134.161-.049.309.187.328.325.027.458-.149.458-.605 0-.438-.129-.64-.553-.857-.756-.39-1.924-.017-2.313.737-.102.198-.104.235-.019.432.106.244.125.938.031 1.169-.11.272-.416.643-.687.83-.231.159-.318.182-.704.184-.378.001-.477-.022-.705-.17-.735-.476-.829-1.381-.198-1.911.758-.639 1.922.227 1.419 1.053-.355.582-1.168.446-1.297-.216l-.045-.231-.007.263c-.013.495.526.865 1.063.73.385-.096.78-.639.778-1.068-.003-.475-.402-1.018-.901-1.227-.26-.109-.892-.109-1.151-.002-.299.126-.827.671-.973 1.007-.09.208-.13.435-.134.759-.004.396.022.522.194.894.332.719.903 1.193 1.598 1.328.504.098 1.052.037 1.486-.162.292-.135.395-.152.681-.117.298.037.364.072.577.314.233.266.491.417.874.517.268.069.343.067.616-.009zm2.899-2.154c1.089-.242 1.957-.293 2.676-.157.286.054.531.088.544.074.043-.043-.883-.696-1.33-.938-.386-.209-.449-.269-.541-.515-.105-.28-.343-.644-.516-.786-.205-.17-.694-.389-.947-.423-.153-.021-.47.006-.749.063-.266.055-.493.089-.506.077-.013-.013.063-.256.168-.54.152-.41.188-.588.168-.861-.063-.912-.783-1.599-1.675-1.596-.429.001-.58.05-.629.206-.107.338-.536.897-.879 1.147-.456.333-.742.439-1.209.452-.68.019-1.248-.313-1.623-.944-.218-.369-.225-.905-.016-1.247.078-.127.166-.216.196-.197s.04-.005.022-.051c-.048-.125.52-.415.813-.415.444 0 .884.427.884.857 0 .573-.643.909-1.02.532-.174-.176-.206-.527-.057-.65.078-.065.087-.063.057.018-.113.295.381.501.531.222.099-.185-.101-.447-.36-.474-.402-.04-.753.317-.753.769 0 .293.235.679.534.878.983.65 2.278-.108 2.488-1.46.172-1.111-.461-2.075-1.505-2.292-.878-.182-1.719.279-2.139 1.173-.11.235-.212.428-.226.428-.014 0-.21-.152-.435-.34-.544-.452-.954-.604-1.521-.569-.304.02-.525.076-.753.191-.79.402-1.107.913-1.22 1.966-.021.195-.052.354-.068.354s-.215-.096-.443-.212c-.511-.262-.787-.314-1.166-.224-.848.206-1.367 1.097-1.102 1.894.138.415.409.722.811.918.298.146.388.162.723.129.211-.021.455-.054.543-.074.159-.038.16-.036.195.426.091 1.204.922 2.013 2.065 2.011.228 0 .444-.021.482-.047.038-.024.085-.256.105-.515.044-.567.14-.86.404-1.244.675-.981 1.972-1.251 2.879-.6l.262.188.125-.201c.187-.299.436-.508.876-.735.37-.191.434-.204 1.011-.204.563 0 .648.016.981.185.635.322.926.954.751 1.63-.093.359-.209.508-.505.648-.189.09-.21.125-.21.359 0 .463.312.792.863.914.352.077 1.021.008 1.946-.198zm-6.787-.678c.227-.178.225-.491-.004-.672-.196-.154-.413-.126-.607.08-.103.108-.117.173-.076.332.053.207.251.388.424.388.055 0 .173-.056.263-.128zm-55.852 1.862c-.242-.079-.689-.315-.905-.478-.119-.089-.212-.122-.235-.084-.084.136-.531.308-.801.308-.341 0-.62-.132-.843-.398l-.166-.197-.42.05c-.231.027-.844.135-1.361.237s-1.144.204-1.392.225c-1.048.089-2.086-.309-3.064-1.173-.149-.132-.217-.219-.149-.193 1.382.524 1.775.557 2.511.205.263-.126.478-.252.478-.281s-.083-.133-.185-.229c-.102-.098-.243-.332-.314-.521-.307-.812.066-1.764.847-2.163.254-.129.377-.151.831-.145l.533.007.036-.226c.042-.268.352-.896.548-1.113.644-.715 1.719-.993 2.618-.678.192.067.354.123.359.123s.025-.132.044-.293c.082-.679.532-1.302 1.161-1.605.346-.168.954-.216 1.366-.107.292.076.772.378.987.618.182.203.399.719.442 1.047.021.169.052.32.068.336s.16-.019.32-.076c.887-.317 1.953.063 2.482.887l.195.304.177-.148c.242-.204.708-.297 1.108-.221.561.106.983.58 1.092 1.225.042.252.064.276.299.346.327.097.875.404 1.36.765.38.281.564.499.342.404-.73-.312-.926-.359-1.495-.363-.68-.005-.829.053-1.899.733-.927.591-1.547.886-1.952.93-.034.004-.173.037-.309.075-.136.039-.503.103-.817.143l-.571.072-.112.254c-.181.406-.683.903-1.188 1.175-.445.239-.468.244-1.163.261-.39.005-.778-.01-.863-.038zm1.602-.688c.453-.188.885-.614 1.125-1.107.107-.22.219-.418.249-.438.03-.021.308-.058.618-.08.641-.049 1.349-.183 1.668-.315.175-.074.23-.141.287-.353.233-.865 1.051-1.59 1.91-1.691.168-.021.305-.047.305-.061 0-.145-.221-.476-.382-.573-.403-.246-.77-.141-1.319.38l-.322.304-.272-.576c-.2-.421-.338-.626-.515-.765-.382-.3-.523-.353-.95-.357-.36-.003-.457.026-.955.283l-.555.286v-.626c0-.701-.082-.93-.479-1.339-.759-.779-1.911-.56-2.431.464-.181.356-.257 1.02-.151 1.323.036.104.044.19.019.19-.026 0-.306-.144-.621-.319-.554-.31-.588-.319-1.043-.316-.64.005-1.093.229-1.464.72-.253.337-.33.584-.375 1.196-.042.575.014.546-.621.316-.631-.229-1.145-.096-1.493.386-.153.212-.184.312-.182.599.002.206.045.423.108.537.099.178.507.579.59.579.021 0 .308-.15.639-.333 1.07-.592 2.238-.961 3.036-.961.295 0 .296-.002.389-.273.105-.308.507-.88.754-1.074.09-.07.321-.206.512-.3.304-.149.417-.17.902-.167.484.003.6.026.917.184.494.244.838.618 1.008 1.093.165.462.171.636.039 1.104-.118.42-.465.853-.836 1.042-.459.234-1.168.15-1.57-.185-.31-.259-.451-.56-.449-.956.002-.378.045-.5.277-.789.473-.587 1.509-.422 1.695.271.08.294.013.619-.174.85-.206.255-.842.268-1.037.022-.263-.332-.247-.666.046-.912.135-.113.157-.156.082-.156-.146 0-.438.332-.48.545-.116.578.499 1.128 1.142 1.023.281-.047.658-.335.804-.617.618-1.19-.69-2.481-2.056-2.027-.459.152-.97.667-1.163 1.169-.193.505-.194 1.157-.001 1.659.416 1.079 1.678 1.598 2.775 1.141zm-3.373-.177c.081-.032.194-.128.25-.215.099-.149.096-.181-.053-.623-.086-.256-.16-.617-.165-.803l-.009-.338h-.355c-.879 0-1.872.387-3.492 1.362-.382.229-.757.438-.832.462-.128.041-.129.046-.018.085.135.047.247.031 1.856-.27.645-.12 1.367-.236 1.604-.259l.432-.04.116.259c.064.141.188.296.275.343.193.106.205.108.391.037zm2.988-2.026c.177-.227-.011-.63-.293-.63-.2 0-.38.227-.358.449.032.326.446.44.651.181zm5.746-.684c.288-.174.621-.346.74-.382.417-.128.411-.123.234-.216-.209-.111-.665-.025-1.069.2-.268.15-.61.515-.767.816l-.078.149.208-.127c.114-.067.444-.267.732-.44z"/></g></switch></svg>