    <svg id="sun" viewbox="0 0 100 100" preserveAspectRatio="xMidYMid meet" xmlns="http://www.w3.org/2000/svg" >
        <switch><g  class="sun"><path    d="M2.604 22.972c.285.624.597 1.221.922 1.804.366-.624.759-1.221 1.166-1.804-.42-.583-.813-1.18-1.18-1.804-.325.583-.637 1.18-.908 1.804z"/><path    d="M3.675 20.896c.366.638.76 1.248 1.18 1.845.461-.638.963-1.248 1.479-1.831-.529-.597-1.017-1.207-1.492-1.844-.407.583-.801 1.194-1.167 1.83z"/><path    d="M8.814 14.672c.8.692 1.627 1.329 2.509 1.926 1.098-.719 2.251-1.355 3.458-1.898a24.8522 24.8522 0 0 1-3.485-1.912c-.868.569-1.695 1.206-2.482 1.884z"/><path    d="M6.699 16.747c.61.664 1.248 1.302 1.925 1.898.773-.678 1.6-1.302 2.455-1.885a27.8842 27.8842 0 0 1-2.468-1.898c-.678.597-1.315 1.221-1.912 1.885z"/><path    d="M5.031 18.822c.475.65.977 1.274 1.505 1.871.597-.651 1.221-1.274 1.885-1.871-.665-.597-1.289-1.221-1.899-1.872-.528.597-1.03 1.221-1.491 1.872z"/><path    d="M1.763 25.046c.204.597.448 1.181.692 1.75.285-.597.583-1.18.909-1.75-.326-.569-.624-1.152-.909-1.749a23.067 23.067 0 0 0-.692 1.749z"/><path    d="M46.405 25.046c-.366-.637-.759-1.247-1.18-1.844-.461.637-.963 1.247-1.478 1.844a24.355 24.355 0 0 1 1.478 1.845c.421-.597.814-1.207 1.18-1.845z"/><path    d="M6.346 29.196c-.515-.584-1.017-1.193-1.478-1.831-.42.597-.813 1.207-1.18 1.844.366.638.759 1.248 1.18 1.845.448-.638.949-1.262 1.478-1.858z"/><path    d="M4.692 27.135c-.42-.583-.8-1.18-1.166-1.804-.326.583-.638 1.193-.922 1.804.285.61.583 1.207.922 1.79.352-.611.745-1.207 1.166-1.79z"/><path    d="M47.49 22.972c-.285-.61-.583-1.207-.922-1.79-.366.624-.759 1.221-1.18 1.804.42.583.8 1.18 1.166 1.804.352-.598.651-1.208.936-1.818z"/><path    d="M41.686 18.822c.665.583 1.288 1.206 1.885 1.871.529-.597 1.03-1.221 1.505-1.871-.475-.651-.962-1.275-1.492-1.872-.61.665-1.248 1.288-1.898 1.872z"/><path    d="M43.747 20.896c.515.583 1.017 1.193 1.478 1.831.42-.597.813-1.207 1.18-1.845-.366-.637-.759-1.247-1.18-1.844-.448.651-.949 1.275-1.478 1.858z"/><path    d="M8.598 35.244c.786-.691 1.613-1.329 2.468-1.898-.854-.57-1.668-1.207-2.455-1.885-.678.596-1.315 1.233-1.925 1.898.61.664 1.247 1.288 1.912 1.885z"/><path    d="M41.496 14.862c-.786.691-1.614 1.329-2.468 1.898.854.569 1.668 1.207 2.455 1.885.678-.597 1.315-1.234 1.925-1.898-.61-.664-1.248-1.288-1.912-1.885z"/><path    d="M11.54 12.611c1.139.746 2.333 1.383 3.58 1.926 2.306-.99 4.773-1.654 7.35-1.912a24.6266 24.6266 0 0 1-7.364-1.926c-1.247.542-2.44 1.18-3.566 1.912z"/><path    d="M15.446 10.55c3.01 1.274 6.278 1.939 9.601 1.939 3.322 0 6.59-.679 9.601-1.939-2.956-1.247-6.21-1.926-9.601-1.926-3.391 0-6.645.679-9.601 1.926z"/><path    d="M27.623 12.625c2.577.271 5.045.922 7.35 1.912 1.248-.543 2.441-1.193 3.58-1.926-1.125-.732-2.319-1.37-3.553-1.912-2.332 1.017-4.828 1.668-7.377 1.926z"/><path    d="M35.312 14.699c1.207.543 2.36 1.18 3.458 1.898.868-.583 1.708-1.22 2.509-1.926-.787-.678-1.614-1.314-2.481-1.898-1.113.733-2.279 1.384-3.486 1.926z"/><path    d="M8.408 31.271c-.665-.583-1.289-1.207-1.885-1.871-.529.597-1.03 1.221-1.505 1.871.475.651.963 1.274 1.492 1.871.609-.651 1.247-1.275 1.898-1.871z"/><path    d="M43.76 16.747c.516.583 1.017 1.193 1.478 1.831.407-.583.8-1.193 1.167-1.817-.366-.624-.759-1.248-1.193-1.845-.462.638-.936 1.248-1.452 1.831z"/><path    d="M45.415 18.822c.407.583.8 1.18 1.166 1.803.325-.569.624-1.166.909-1.776-.285-.61-.583-1.206-.922-1.79-.367.596-.746 1.193-1.153 1.763z"/><path    d="M14.781 35.406c-1.207-.542-2.36-1.18-3.458-1.898-.868.583-1.708 1.221-2.509 1.926.787.679 1.614 1.315 2.481 1.898 1.113-.732 2.279-1.383 3.486-1.926z"/><path    d="M48.968 22.999c-.149-.57-.312-1.126-.488-1.668-.203.556-.434 1.111-.678 1.641.244.542.475 1.099.678 1.654.176-.529.338-1.071.488-1.627z"/><path    d="M48.331 25.046c-.204-.597-.448-1.18-.692-1.749-.285.597-.583 1.18-.909 1.749.326.57.624 1.153.909 1.75.257-.569.488-1.153.692-1.75z"/><path    d="M41.699 14.672c.665.584 1.288 1.207 1.885 1.872.516-.583 1.003-1.207 1.465-1.845a24.052 24.052 0 0 0-1.492-1.857c-.583.637-1.207 1.247-1.858 1.83z"/><path    d="M35.326 10.55c1.207.542 2.359 1.18 3.458 1.898.854-.569 1.682-1.207 2.468-1.885-.786-.691-1.627-1.329-2.481-1.898-1.099.719-2.252 1.343-3.445 1.885z"/><path    d="M41.821 11.052c-.122-.108-.23-.203-.353-.313-.773.679-1.587 1.303-2.428 1.872.854.569 1.668 1.207 2.455 1.885.665-.583 1.289-1.207 1.885-1.858-.501-.556-1.016-1.084-1.559-1.586z"/><path    d="M46.73 20.883c.326.57.624 1.153.909 1.75.244-.557.475-1.14.678-1.723-.204-.597-.434-1.18-.692-1.749-.271.597-.569 1.166-.895 1.722z"/><path    d="M38.553 37.495c-1.139-.746-2.333-1.383-3.58-1.926-2.305.99-4.773 1.654-7.35 1.912 2.549.258 5.031.908 7.364 1.926 1.247-.543 2.441-1.179 3.566-1.912z"/><path    d="M34.647 39.557c-3.01-1.275-6.278-1.939-9.601-1.939-3.323 0-6.591.678-9.601 1.939 2.956 1.233 6.21 1.925 9.601 1.925 3.391-.001 6.645-.678 9.601-1.925z"/><path    d="M22.47 37.481c-2.577-.271-5.044-.922-7.336-1.912-1.248.543-2.441 1.193-3.58 1.926 1.125.732 2.319 1.369 3.553 1.912 2.319-1.017 4.814-1.668 7.363-1.926z"/><path    d="M41.279 35.434c-.8-.691-1.627-1.329-2.509-1.926-1.098.719-2.251 1.356-3.458 1.898 1.207.543 2.373 1.181 3.485 1.912.868-.569 1.695-1.206 2.482-1.884z"/><path    d="M47.49 27.135c-.285-.624-.597-1.221-.922-1.804-.366.624-.759 1.221-1.166 1.804.42.583.813 1.18 1.18 1.804.324-.584.636-1.18.908-1.804z"/><path    d="M46.418 29.209c-.366-.637-.759-1.247-1.18-1.844-.461.638-.962 1.247-1.478 1.831.529.596 1.017 1.206 1.492 1.844.407-.583.8-1.193 1.166-1.831z"/><path    d="M43.394 33.359c-.61-.665-1.248-1.303-1.925-1.898-.773.678-1.6 1.302-2.455 1.885.854.583 1.682 1.22 2.468 1.898.678-.597 1.316-1.221 1.912-1.885z"/><path    d="M45.062 31.284c-.475-.651-.976-1.274-1.505-1.871-.597.65-1.221 1.274-1.885 1.871.665.597 1.289 1.221 1.899 1.871.529-.596 1.03-1.219 1.491-1.871z"/><path    d="M34.593 22.985a24.6418 24.6418 0 0 0-9.546-1.926c-3.336 0-6.577.678-9.547 1.926 2.983 1.247 6.224 1.938 9.547 1.938 3.322-.012 6.563-.691 9.546-1.938z"/><path    d="M8.842 22.985c.8.691 1.627 1.329 2.508 1.912 1.112-.732 2.265-1.37 3.485-1.912-1.207-.543-2.373-1.18-3.485-1.898-.881.569-1.722 1.206-2.508 1.898z"/><path    d="M6.712 25.046c.597.665 1.234 1.302 1.912 1.886.787-.679 1.614-1.315 2.468-1.886-.854-.583-1.682-1.207-2.468-1.885-.664.597-1.301 1.221-1.912 1.885z"/><path    d="M14.822 27.135c-1.207-.543-2.373-1.18-3.485-1.912-.868.583-1.709 1.221-2.509 1.912.787.691 1.627 1.329 2.495 1.912 1.126-.746 2.292-1.37 3.499-1.912z"/><path    d="M11.594 20.91c1.139.732 2.333 1.383 3.566 1.926 2.306-1.004 4.773-1.654 7.323-1.926-2.549-.271-5.017-.908-7.35-1.926-1.22.543-2.413 1.18-3.539 1.926z"/><path    d="M38.499 29.196c-1.139-.732-2.333-1.384-3.566-1.926-2.306 1.003-4.773 1.654-7.323 1.926 2.55.257 5.018.908 7.35 1.925 1.22-.542 2.413-1.193 3.539-1.925z"/><path    d="M22.483 29.196c-2.549-.271-5.017-.923-7.323-1.926-1.248.542-2.441 1.18-3.566 1.926 1.125.731 2.319 1.369 3.553 1.911 2.319-.989 4.787-1.64 7.336-1.911z"/><path    d="M45.062 22.972c-.475-.651-.976-1.262-1.505-1.858-.597.651-1.221 1.275-1.885 1.872.665.583 1.289 1.207 1.885 1.871.529-.611 1.03-1.235 1.505-1.885z"/><path    d="M43.381 25.046c-.597-.664-1.234-1.302-1.912-1.885-.787.678-1.614 1.315-2.468 1.885.854.583 1.682 1.207 2.468 1.886.664-.584 1.302-1.221 1.912-1.886z"/><path    d="M15.5 18.836c2.983 1.261 6.224 1.938 9.547 1.938 3.322 0 6.563-.678 9.546-1.938-2.97-1.248-6.197-1.926-9.546-1.926-3.35 0-6.577.678-9.547 1.926z"/><path    d="M41.251 27.121c-.8-.691-1.627-1.329-2.508-1.912-1.112.732-2.265 1.369-3.485 1.912 1.207.542 2.373 1.18 3.485 1.898.882-.569 1.722-1.206 2.508-1.898z"/><path    d="M11.594 25.046c1.139.732 2.333 1.384 3.566 1.926 2.333-1.017 4.828-1.668 7.404-1.926-2.577-.257-5.072-.908-7.404-1.925-1.247.556-2.44 1.193-3.566 1.925z"/><path    d="M49.104 22.429c.095-.434.189-.867.271-1.302-.082-.528-.19-1.058-.312-1.586-.136.461-.271.922-.434 1.383.163.488.325.99.475 1.505z"/><path    d="M27.65 8.488c2.577.271 5.044.923 7.336 1.912 1.22-.542 2.4-1.18 3.526-1.912-1.126-.731-2.306-1.383-3.54-1.925a24.3188 24.3188 0 0 1-7.322 1.925z"/><path    d="M41.251 22.985c-.786-.692-1.627-1.329-2.495-1.912-1.112.732-2.278 1.355-3.485 1.898 1.207.542 2.373 1.18 3.485 1.912.869-.582 1.709-1.22 2.495-1.898z"/><path    d="M27.609 20.91c2.55.271 5.018.922 7.323 1.926 1.248-.543 2.44-1.18 3.566-1.926-1.126-.732-2.319-1.369-3.553-1.912-2.318.99-4.786 1.641-7.336 1.912z"/><path    d="M38.499 25.046c-1.139-.731-2.333-1.383-3.566-1.925-2.333 1.017-4.828 1.668-7.404 1.925 2.576.258 5.072.909 7.404 1.926 1.247-.542 2.44-1.18 3.566-1.926z"/><path    d="M45.062 27.135c-.475-.651-.976-1.274-1.505-1.871-.597.65-1.221 1.288-1.885 1.871.665.583 1.289 1.207 1.885 1.871.529-.61 1.03-1.221 1.505-1.871z"/><path    d="M34.593 27.121c-2.983-1.248-6.224-1.939-9.546-1.939-3.323 0-6.563.679-9.547 1.939a24.643 24.643 0 0 0 9.547 1.926c3.335.014 6.577-.665 9.546-1.926z"/><path    d="M22.457 33.332c-2.549-.271-5.018-.922-7.309-1.912-1.234.542-2.428 1.193-3.566 1.926 1.125.732 2.319 1.369 3.553 1.912 2.304-1.004 4.772-1.654 7.322-1.926z"/><path    d="M14.795 31.271c-1.207-.542-2.374-1.18-3.472-1.912-.868.583-1.708 1.221-2.509 1.912.787.691 1.627 1.329 2.495 1.912 1.126-.733 2.279-1.37 3.486-1.912z"/><path    d="M8.421 27.135c-.665-.583-1.289-1.207-1.885-1.871-.529.597-1.03 1.22-1.505 1.871.475.65.977 1.261 1.505 1.857.597-.65 1.221-1.274 1.885-1.857z"/><path    d="M8.611 31.095a27.652 27.652 0 0 1 2.468-1.898c-.854-.584-1.682-1.207-2.455-1.886-.665.597-1.315 1.221-1.912 1.898.597.651 1.235 1.289 1.899 1.886z"/><path    d="M34.607 35.406c-2.997-1.261-6.251-1.938-9.56-1.938-3.323 0-6.563.678-9.561 1.938 2.956 1.248 6.197 1.926 9.561 1.926 3.363 0 6.604-.678 9.56-1.926z"/><path    d="M43.381 29.209c-.61-.664-1.248-1.302-1.912-1.898-.787.679-1.6 1.315-2.455 1.886.854.583 1.682 1.206 2.468 1.898.664-.597 1.302-1.235 1.899-1.886z"/><path    d="M41.265 31.271c-.8-.691-1.627-1.329-2.509-1.912-1.098.719-2.265 1.356-3.471 1.912 1.207.543 2.373 1.18 3.471 1.912.882-.583 1.723-1.221 2.509-1.912z"/><path    d="M38.526 33.346c-1.139-.732-2.333-1.384-3.566-1.939-2.292.99-4.76 1.654-7.309 1.912 2.536.271 5.018.922 7.336 1.926 1.22-.53 2.413-1.167 3.539-1.899z"/><path    d="M6.712 20.896c.61.665 1.248 1.302 1.912 1.898.787-.678 1.6-1.315 2.455-1.885-.854-.583-1.682-1.207-2.468-1.885-.664.584-1.302 1.208-1.899 1.872z"/><path    d="M15.486 14.699c2.997 1.262 6.251 1.939 9.561 1.939 3.322 0 6.563-.678 9.56-1.939-2.956-1.247-6.197-1.926-9.56-1.926-3.363 0-6.605.679-9.561 1.926z"/><path    d="M27.637 16.774c2.549.271 5.018.922 7.309 1.912 1.234-.543 2.427-1.193 3.567-1.939-1.126-.732-2.319-1.369-3.553-1.912-2.306 1.018-4.774 1.668-7.323 1.939z"/><path    d="M11.567 16.761c1.139.732 2.333 1.383 3.566 1.926 2.292-.99 4.76-1.654 7.309-1.912-2.536-.271-5.017-.922-7.336-1.926-1.22.542-2.413 1.179-3.539 1.912z"/><path    d="M35.298 18.836c1.207.542 2.374 1.18 3.472 1.911.868-.583 1.708-1.22 2.509-1.911-.787-.692-1.627-1.329-2.495-1.912-1.126.731-2.279 1.369-3.486 1.912z"/><path    d="M3.688 25.046c.366.638.759 1.248 1.18 1.845.461-.638.963-1.248 1.478-1.845a24.5385 24.5385 0 0 1-1.478-1.844c-.42.597-.813 1.221-1.18 1.844z"/><path    d="M5.031 22.972c.475.65.977 1.274 1.505 1.871.597-.65 1.221-1.288 1.885-1.871-.665-.583-1.289-1.207-1.885-1.871-.529.609-1.03 1.219-1.505 1.871z"/><path    d="M41.482 19.012c-.787.678-1.614 1.315-2.468 1.898.854.583 1.682 1.207 2.455 1.885.665-.597 1.315-1.22 1.912-1.898-.597-.665-1.235-1.289-1.899-1.885z"/><path    d="M8.828 18.836c.8.691 1.627 1.328 2.509 1.911 1.098-.719 2.265-1.355 3.471-1.911-1.207-.543-2.373-1.181-3.471-1.912-.882.583-1.722 1.22-2.509 1.912z"/><path    d="M34.593 31.271c-2.983-1.261-6.224-1.939-9.546-1.939-3.323 0-6.563.679-9.547 1.939 2.97 1.248 6.197 1.926 9.547 1.926 3.349-.001 6.577-.678 9.546-1.926z"/><path    d="M34.525 2.318C31.61 1.098 28.396.42 25.047.42c-3.363 0-6.563.678-9.479 1.898 3.01 1.248 6.197 1.898 9.479 1.898 3.295.001 6.482-.65 9.478-1.898z"/><path    d="M.99 27.677c-.095.435-.189.868-.271 1.302.082.529.19 1.059.312 1.587.135-.461.271-.922.434-1.383-.163-.489-.326-.991-.475-1.506z"/><path    d="M.569 25.873c-.041.271-.067.557-.095.828.027.475.082.962.136 1.424.068-.34.149-.679.244-1.018-.108-.406-.203-.813-.285-1.234z"/><path    d="M1.478 20.924c-.163-.447-.298-.908-.434-1.383-.122.515-.23 1.044-.312 1.572.081.435.163.868.271 1.303.136-.502.299-1.004.475-1.492z"/><path    d="M.841 22.999c-.082-.34-.163-.679-.244-1.018-.054.475-.108.949-.136 1.424.027.271.054.556.095.827.095-.419.19-.827.285-1.233z"/><path    d="M3.526 33.616c-.312.557-.61 1.112-.881 1.695.285.624.597 1.221.922 1.817.353-.583.732-1.152 1.125-1.709-.407-.596-.8-1.192-1.166-1.803z"/><path    d="M1.627 29.616c-.163.502-.326 1.004-.461 1.519.149.57.312 1.126.502 1.682.204-.528.407-1.044.637-1.546-.244-.556-.474-1.099-.678-1.655z"/><path    d="M4.868 35.65c-.393.57-.787 1.14-1.139 1.75.366.637.76 1.247 1.18 1.844.447-.61.922-1.193 1.424-1.763-.502-.583-.99-1.193-1.465-1.831z"/><path    d="M2.455 31.596c-.23.529-.448 1.071-.651 1.628.217.597.447 1.18.705 1.763.271-.556.556-1.112.868-1.641-.339-.583-.638-1.166-.922-1.75z"/><path    d="M6.346 12.625c-.501-.57-.976-1.153-1.424-1.764-.42.597-.813 1.207-1.18 1.845.353.597.732 1.18 1.139 1.749.462-.637.95-1.247 1.465-1.83z"/><path    d="M14.768 6.414a25.8105 25.8105 0 0 1-3.39-1.858c-.868.583-1.709 1.22-2.496 1.912.773.665 1.586 1.289 2.427 1.858 1.112-.732 2.265-1.37 3.459-1.912z"/><path    d="M8.625 10.374c.787-.679 1.6-1.315 2.441-1.886-.827-.556-1.627-1.166-2.387-1.83-.665.597-1.302 1.22-1.912 1.885.596.65 1.207 1.261 1.858 1.831z"/><path    d="M8.082 10.849c.108-.096.217-.19.326-.285-.637-.57-1.248-1.167-1.818-1.804-.528.596-1.03 1.22-1.505 1.871.461.624.936 1.221 1.451 1.79.488-.542 1.004-1.071 1.546-1.572z"/><path    d="M22.429 4.353c-2.495-.258-4.909-.895-7.228-1.885-1.248.542-2.441 1.193-3.566 1.926 1.112.719 2.278 1.342 3.471 1.871 2.32-1.004 4.788-1.655 7.323-1.912z"/><path    d="M8.408 39.543c-.108-.096-.217-.19-.326-.285-.542-.502-1.058-1.03-1.546-1.56-.501.569-.99 1.166-1.451 1.79.475.651.976 1.274 1.505 1.871.584-.65 1.194-1.247 1.818-1.816z"/><path    d="M3.376 16.774c-.312-.529-.597-1.085-.868-1.641-.258.569-.488 1.166-.705 1.763.203.556.42 1.099.651 1.627.285-.596.584-1.179.922-1.749z"/><path    d="M2.305 18.849c-.23-.501-.447-1.017-.637-1.546-.19.557-.353 1.112-.502 1.682.136.516.285 1.018.461 1.52.204-.571.434-1.113.678-1.656z"/><path    d="M4.706 14.686c-.393-.556-.773-1.125-1.125-1.708-.339.597-.637 1.193-.922 1.816.271.584.57 1.153.881 1.695.352-.61.745-1.207 1.166-1.803z"/><path    d="M.407 25.046c0 .014 0 .014 0 0 0 .014 0 .014 0 0z"/><path    d="M47.788 31.257c.23.502.447 1.018.637 1.546.19-.556.353-1.111.501-1.682-.135-.515-.285-1.017-.461-1.519-.202.57-.433 1.113-.677 1.655z"/><path    d="M49.252 27.107c.082.339.163.678.244 1.018.054-.476.108-.95.136-1.424-.027-.271-.054-.557-.095-.828-.095.421-.189.828-.285 1.234z"/><path    d="M15.459 6.428c3.011 1.274 6.265 1.925 9.588 1.925 3.322 0 6.577-.664 9.587-1.925-2.997-1.262-6.252-1.939-9.587-1.939-3.336-.001-6.577.663-9.588 1.939z"/><path    d="M46.717 33.332c.312.528.597 1.085.868 1.641.258-.569.488-1.166.705-1.763-.203-.556-.42-1.099-.651-1.628-.285.598-.583 1.181-.922 1.75z"/><path    d="M49.252 22.999c.108.406.204.827.285 1.233.041-.271.068-.556.095-.827-.027-.475-.082-.949-.136-1.424-.081.339-.162.678-.244 1.018z"/><path    d="M45.388 35.406c.394.557.773 1.126 1.125 1.709.339-.597.637-1.193.922-1.817-.271-.583-.57-1.152-.882-1.694-.352.623-.745 1.219-1.165 1.802z"/><path    d="M49.687 25.046v0z"/><path    d="M27.664 45.754c2.495.257 4.909.895 7.228 1.885 1.248-.543 2.441-1.193 3.566-1.926-1.112-.719-2.278-1.343-3.471-1.871-2.319 1.003-4.787 1.64-7.323 1.912z"/><path    d="M15.568 47.787c2.916 1.221 6.129 1.899 9.479 1.899 3.363 0 6.563-.679 9.479-1.899-3.01-1.247-6.197-1.898-9.479-1.898-3.296 0-6.483.651-9.479 1.898z"/><path    d="M8.625 39.732c-.651.569-1.261 1.18-1.844 1.831.597.664 1.234 1.288 1.912 1.885.759-.665 1.56-1.274 2.387-1.831-.855-.569-1.683-1.207-2.455-1.885z"/><path    d="M15.106 43.842c-1.193.528-2.359 1.152-3.471 1.871 1.125.732 2.319 1.383 3.566 1.926 2.305-.99 4.732-1.628 7.228-1.885-2.535-.272-5.003-.909-7.323-1.912z"/><path    d="M11.323 41.78c-.841.569-1.654 1.18-2.427 1.857.786.692 1.614 1.329 2.495 1.912 1.085-.705 2.21-1.329 3.39-1.857-1.207-.543-2.36-1.179-3.458-1.912z"/><path    d="M41.469 39.732c-.787.678-1.6 1.315-2.441 1.885.827.557 1.627 1.166 2.387 1.831.665-.597 1.302-1.221 1.912-1.885-.597-.651-1.207-1.261-1.858-1.831z"/><path    d="M35.326 43.692c1.166.528 2.305 1.152 3.39 1.857.868-.583 1.708-1.22 2.495-1.912-.773-.664-1.586-1.288-2.427-1.857a25.3679 25.3679 0 0 1-3.458 1.912z"/><path    d="M42.011 39.258c-.108.095-.217.189-.326.285.638.569 1.248 1.166 1.817 1.804a25.345 25.345 0 0 0 1.505-1.872c-.461-.624-.936-1.22-1.451-1.79-.487.543-1.002 1.071-1.545 1.573z"/><path    d="M43.747 37.481c.501.569.976 1.152 1.424 1.763.42-.597.813-1.207 1.18-1.844-.353-.597-.732-1.18-1.139-1.75-.462.638-.95 1.248-1.465 1.831z"/><path    d="M48.615 29.183c.163.447.298.908.434 1.383.123-.516.231-1.044.312-1.587-.081-.434-.163-.867-.271-1.302-.136.515-.298 1.017-.475 1.506z"/><path    d="M4.678 31.284c-.407-.583-.8-1.18-1.166-1.804-.326.569-.624 1.166-.909 1.776.285.61.583 1.207.922 1.79.367-.596.746-1.192 1.153-1.762z"/><path    d="M3.363 29.223c-.326-.569-.624-1.152-.909-1.749-.244.556-.475 1.139-.678 1.723.204.596.434 1.18.691 1.749.272-.597.571-1.167.896-1.723z"/><path    d="M2.292 27.135c-.244-.543-.475-1.099-.678-1.654-.176.542-.339 1.085-.488 1.641.149.556.312 1.125.488 1.668.217-.57.434-1.113.678-1.655z"/><path    d="M6.333 33.359c-.516-.584-1.017-1.193-1.479-1.831-.407.583-.8 1.193-1.166 1.817.366.637.759 1.247 1.193 1.844.462-.636.936-1.247 1.452-1.83z"/><path    d="M8.272 39.055c.122.108.23.203.353.312.773-.678 1.586-1.302 2.427-1.871-.854-.569-1.668-1.207-2.454-1.885-.665.583-1.289 1.207-1.885 1.857.501.555 1.016 1.085 1.559 1.587z"/><path    d="M14.768 39.557c-1.207-.543-2.359-1.181-3.458-1.898-.854.569-1.682 1.206-2.468 1.885.786.691 1.613 1.329 2.481 1.898 1.098-.719 2.251-1.343 3.445-1.885z"/><path    d="M8.394 35.434c-.665-.583-1.288-1.207-1.885-1.871-.516.583-1.003 1.207-1.465 1.844.461.638.963 1.262 1.492 1.858.583-.638 1.207-1.248 1.858-1.831z"/><path    d="M.691 25.046c.082.516.19 1.018.298 1.52.149-.516.298-1.018.475-1.52-.176-.501-.325-1.003-.475-1.519-.108.516-.216 1.018-.298 1.519z"/><path    d="M11.567 8.488c1.125.732 2.305 1.37 3.526 1.912 2.292-.989 4.76-1.641 7.336-1.912a24.3405 24.3405 0 0 1-7.323-1.925c-1.22.542-2.413 1.194-3.539 1.925z"/><path    d="M8.272 11.052c-.542.502-1.058 1.03-1.546 1.573.597.664 1.234 1.274 1.885 1.857.773-.678 1.6-1.302 2.455-1.885a24.5094 24.5094 0 0 1-2.427-1.871c-.137.123-.259.217-.367.326z"/><path    d="M22.443 41.617c-2.577-.271-5.044-.922-7.336-1.912-1.22.543-2.4 1.18-3.525 1.912 1.125.732 2.305 1.384 3.539 1.926a24.3498 24.3498 0 0 1 7.322-1.926z"/><path    d="M34.987 6.265c1.193-.529 2.359-1.152 3.471-1.871-1.125-.732-2.319-1.384-3.566-1.926-2.305.99-4.732 1.627-7.228 1.885 2.536.257 5.004.908 7.323 1.912z"/><path    d="M5.044 14.686c.461.638.949 1.262 1.465 1.845.597-.651 1.22-1.274 1.885-1.871-.651-.584-1.275-1.193-1.858-1.845-.529.61-1.03 1.234-1.492 1.871z"/><path    d="M1.125 22.999c.149.556.312 1.098.488 1.641.203-.569.434-1.112.678-1.654-.244-.543-.461-1.085-.678-1.642-.175.529-.338 1.085-.488 1.655z"/><path    d="M1.763 20.924c.204.583.434 1.152.678 1.723.285-.597.583-1.181.909-1.75-.326-.556-.624-1.125-.895-1.722-.245.569-.475 1.152-.692 1.749z"/><path    d="M3.688 16.774c.366.624.746 1.233 1.166 1.817.461-.638.95-1.248 1.479-1.831-.516-.583-.99-1.193-1.451-1.817-.434.583-.827 1.194-1.194 1.831z"/><path    d="M2.617 18.849c.285.61.583 1.193.909 1.776.366-.623.746-1.22 1.166-1.803-.407-.57-.787-1.167-1.153-1.777-.339.584-.651 1.193-.922 1.804z"/><path    d="M8.828 10.563c.787.678 1.614 1.315 2.468 1.885 1.099-.719 2.251-1.356 3.458-1.898-1.193-.542-2.346-1.166-3.444-1.898-.855.582-1.682 1.22-2.482 1.911z"/><path    d="M48.968 27.107c-.149-.556-.312-1.099-.488-1.641-.203.569-.434 1.111-.678 1.654.244.542.461 1.085.678 1.641.176-.528.338-1.084.488-1.654z"/><path    d="M48.466 20.49c.163-.502.326-1.004.461-1.52-.149-.569-.312-1.125-.501-1.681-.204.528-.407 1.044-.637 1.546.243.557.474 1.099.677 1.655z"/><path    d="M34.634 43.679c-3.011-1.274-6.265-1.926-9.587-1.926-3.323 0-6.577.665-9.588 1.926 2.997 1.261 6.252 1.939 9.588 1.939 3.335 0 6.577-.665 9.587-1.939z"/><path    d="M46.567 16.489c.312-.556.61-1.111.882-1.695-.285-.623-.597-1.22-.922-1.816-.353.583-.732 1.152-1.125 1.708.406.596.799 1.193 1.165 1.803z"/><path    d="M47.639 18.51c.23-.528.448-1.071.651-1.627-.217-.597-.447-1.18-.705-1.763-.271.556-.556 1.111-.868 1.641.339.583.637 1.166.922 1.749z"/><path    d="M41.469 10.374c.651-.57 1.261-1.181 1.844-1.831-.597-.665-1.234-1.288-1.912-1.885-.759.664-1.56 1.274-2.387 1.83a23.585 23.585 0 0 1 2.455 1.886z"/><path    d="M38.77 8.326c.841-.569 1.654-1.18 2.427-1.858-.786-.691-1.614-1.329-2.495-1.912-1.085.705-2.21 1.329-3.39 1.858 1.207.542 2.36 1.18 3.458 1.912z"/><path    d="M45.225 14.455c.393-.569.787-1.139 1.139-1.749-.366-.638-.76-1.248-1.18-1.845-.447.61-.922 1.193-1.424 1.764.502.583.99 1.193 1.465 1.83z"/><path    d="M41.686 10.563c.108.095.217.189.326.285.542.501 1.058 1.017 1.546 1.559.501-.569.99-1.166 1.451-1.79-.475-.65-.976-1.274-1.505-1.871-.585.651-1.194 1.248-1.818 1.817z"/><path    d="M49.402 25.046c-.082-.515-.19-1.017-.298-1.519-.149.516-.298 1.018-.475 1.519.176.502.325 1.004.475 1.52.108-.503.216-1.004.298-1.52z"/><path    d="M48.331 29.183c-.204-.583-.434-1.153-.678-1.723-.285.597-.583 1.18-.909 1.749.326.557.624 1.126.895 1.723.244-.57.474-1.153.692-1.749z"/><path    d="M41.821 39.055c.542-.502 1.058-1.031 1.546-1.573-.597-.664-1.234-1.274-1.885-1.857-.773.678-1.601 1.302-2.455 1.885.841.569 1.654 1.193 2.427 1.871.137-.123.259-.218.367-.326z"/><path    d="M41.265 39.543c-.787-.679-1.614-1.315-2.468-1.885-1.099.718-2.251 1.355-3.458 1.898 1.193.542 2.346 1.166 3.444 1.898.855-.582 1.682-1.22 2.482-1.911z"/><path    d="M38.526 41.617A25.404 25.404 0 0 0 35 39.705c-2.292.99-4.76 1.642-7.336 1.912 2.536.258 5.004.909 7.323 1.926 1.22-.542 2.413-1.193 3.539-1.926z"/><path    d="M47.476 31.257c-.285-.61-.583-1.193-.909-1.776-.366.624-.746 1.221-1.166 1.79.407.569.787 1.166 1.152 1.776.34-.569.652-1.18.923-1.79z"/><path    d="M46.405 33.332c-.366-.624-.746-1.234-1.167-1.817-.461.638-.949 1.248-1.478 1.831.516.583.99 1.193 1.451 1.816.435-.583.828-1.193 1.194-1.83z"/><path    d="M45.049 35.42c-.461-.637-.949-1.261-1.465-1.844-.597.65-1.22 1.274-1.885 1.871.651.583 1.274 1.193 1.858 1.845.529-.624 1.03-1.234 1.492-1.872z"/><path   d="M25.047 0C11.228 0 0 11.241 0 25.046c0 13.818 11.228 25.061 25.047 25.061 13.818 0 25.046-11.242 25.046-25.047C50.093 11.241 38.865 0 25.047 0zm24.314 21.127c-.081.435-.163.868-.271 1.302-.136-.501-.298-1.003-.475-1.505.163-.447.298-.908.434-1.383.122.528.231 1.044.312 1.586zm-26.796 3.919c-2.577.258-5.072.909-7.404 1.926-1.248-.542-2.441-1.18-3.566-1.926 1.139-.731 2.333-1.383 3.566-1.925 2.332 1.017 4.827 1.668 7.404 1.925zM15.5 22.985a24.643 24.643 0 0 1 9.547-1.926c3.335 0 6.577.678 9.546 1.926-2.983 1.261-6.224 1.938-9.546 1.938-3.323-.012-6.564-.691-9.547-1.938zm9.547 2.21c3.322 0 6.563.678 9.546 1.939-2.97 1.247-6.211 1.926-9.546 1.926-3.336 0-6.577-.679-9.547-1.926 2.983-1.261 6.224-1.939 9.547-1.939zm2.481-.149c2.576-.257 5.072-.908 7.404-1.925 1.248.542 2.44 1.18 3.566 1.925-1.139.732-2.333 1.384-3.566 1.926-2.332-1.003-4.828-1.655-7.404-1.926zm7.743-2.074c1.207-.543 2.373-1.18 3.485-1.898.868.583 1.709 1.22 2.495 1.912-.8.691-1.627 1.329-2.508 1.912-1.098-.733-2.264-1.384-3.472-1.926zm-.338-.15c-2.306-1.004-4.773-1.654-7.323-1.926 2.55-.258 5.018-.908 7.35-1.926 1.234.543 2.427 1.18 3.553 1.912-1.14.761-2.333 1.398-3.58 1.94zm-9.886-2.048c-3.323 0-6.563-.678-9.547-1.938 2.97-1.248 6.197-1.926 9.547-1.926 3.349 0 6.577.678 9.546 1.926-2.983 1.261-6.224 1.938-9.546 1.938zm-2.564.136c-2.549.271-5.017.922-7.323 1.926-1.248-.543-2.441-1.18-3.566-1.926 1.125-.732 2.319-1.369 3.553-1.912 2.319.99 4.787 1.641 7.336 1.912zm-7.661 2.062c-1.207.542-2.373 1.18-3.485 1.912a26.1174 26.1174 0 0 1-2.509-1.912c.787-.691 1.627-1.329 2.495-1.912 1.126.746 2.292 1.369 3.499 1.912zm-3.729 2.074c-.854.583-1.682 1.207-2.468 1.886-.665-.597-1.302-1.221-1.912-1.886.597-.664 1.234-1.302 1.912-1.885.786.678 1.613 1.316 2.468 1.885zm.244.177c1.112.732 2.265 1.369 3.485 1.912-1.207.542-2.373 1.18-3.485 1.898-.868-.583-1.709-1.221-2.495-1.912.786-.691 1.627-1.315 2.495-1.898zm3.824 2.061c2.306 1.003 4.773 1.654 7.323 1.925-2.549.258-5.017.909-7.35 1.926-1.234-.542-2.427-1.18-3.553-1.912 1.139-.759 2.332-1.397 3.58-1.939zm9.886 2.047c3.322 0 6.563.679 9.546 1.939-2.97 1.248-6.197 1.926-9.546 1.926-3.35 0-6.577-.678-9.547-1.926 2.983-1.26 6.224-1.939 9.547-1.939zm2.562-.135c2.55-.271 5.018-.923 7.323-1.926 1.248.542 2.44 1.18 3.566 1.926-1.126.731-2.319 1.369-3.553 1.911a25.5707 25.5707 0 0 0-7.336-1.911zm7.662-2.061c1.207-.543 2.373-1.18 3.485-1.912.868.583 1.709 1.221 2.509 1.912-.787.691-1.627 1.329-2.495 1.912-1.125-.746-2.291-1.37-3.499-1.912zM39 25.046c.854-.583 1.682-1.207 2.468-1.885.665.597 1.302 1.221 1.912 1.885-.597.665-1.234 1.302-1.912 1.886-.786-.665-1.613-1.303-2.468-1.886zm2.672-2.074c.665-.583 1.289-1.207 1.885-1.871.529.596 1.03 1.22 1.505 1.857-.475.65-.976 1.274-1.505 1.871-.597-.637-1.221-1.261-1.885-1.857zm-.203-.177c-.787-.678-1.6-1.315-2.455-1.885.854-.583 1.682-1.207 2.468-1.898.664.597 1.302 1.221 1.898 1.885-.609.678-1.247 1.301-1.911 1.898zm-2.713-2.048c-1.098-.719-2.265-1.355-3.471-1.911 1.207-.543 2.373-1.181 3.471-1.912.868.583 1.709 1.22 2.495 1.912-.786.691-1.613 1.328-2.495 1.911zm-3.81-2.06c-2.292-.99-4.76-1.654-7.309-1.912 2.536-.271 5.018-.922 7.336-1.926 1.234.542 2.427 1.18 3.553 1.912-1.139.732-2.333 1.383-3.58 1.926zm-9.899-2.048c-3.323 0-6.563-.678-9.561-1.939 2.956-1.247 6.197-1.926 9.561-1.926 3.363 0 6.604.679 9.56 1.926-2.997 1.261-6.238 1.939-9.56 1.939zm-2.59.135c-2.549.271-5.018.922-7.309 1.912-1.234-.543-2.428-1.193-3.566-1.926 1.125-.732 2.319-1.37 3.553-1.912 2.304 1.005 4.772 1.655 7.322 1.926zm-7.662 2.062c-1.207.542-2.374 1.18-3.472 1.911-.868-.583-1.708-1.22-2.509-1.911.787-.692 1.627-1.329 2.495-1.912 1.126.731 2.279 1.369 3.486 1.912zm-3.702 2.074c-.854.583-1.682 1.207-2.455 1.885-.665-.597-1.315-1.22-1.912-1.898.597-.664 1.234-1.288 1.898-1.885.773.691 1.601 1.315 2.469 1.898zm-2.672 2.062c-.665.583-1.289 1.207-1.885 1.871-.529-.597-1.03-1.221-1.505-1.871.475-.651.977-1.262 1.505-1.858.597.651 1.221 1.275 1.885 1.858zm-2.075 2.074a24.355 24.355 0 0 0-1.478 1.845c-.42-.597-.813-1.207-1.18-1.845.366-.637.759-1.247 1.18-1.844.461.651.949 1.261 1.478 1.844zm.19.218c.597.65 1.221 1.288 1.885 1.871-.665.583-1.289 1.207-1.885 1.871-.529-.597-1.03-1.221-1.505-1.857.475-.666.976-1.289 1.505-1.885zm2.089 2.047c.787.679 1.6 1.315 2.455 1.886-.854.583-1.682 1.206-2.468 1.898-.664-.597-1.302-1.221-1.898-1.886.609-.678 1.246-1.302 1.911-1.898zm2.712 2.047c1.098.719 2.265 1.356 3.471 1.912-1.207.543-2.373 1.18-3.471 1.912-.868-.583-1.709-1.221-2.495-1.912.786-.691 1.613-1.329 2.495-1.912zm3.81 2.062c2.292.99 4.76 1.654 7.309 1.912-2.536.271-5.018.922-7.336 1.926-1.234-.543-2.427-1.18-3.553-1.912 1.14-.733 2.333-1.384 3.58-1.926zm9.9 2.048c3.322 0 6.563.678 9.56 1.938-2.956 1.248-6.197 1.926-9.56 1.926-3.363 0-6.604-.678-9.561-1.926 2.997-1.26 6.238-1.938 9.561-1.938zm2.59-.136c2.549-.271 5.018-.922 7.309-1.912 1.234.542 2.427 1.193 3.567 1.939-1.126.731-2.319 1.369-3.553 1.912-2.306-1.017-4.774-1.667-7.323-1.939zm7.661-2.061c1.207-.542 2.374-1.18 3.472-1.912.868.583 1.708 1.221 2.509 1.912-.787.691-1.627 1.329-2.495 1.912-1.126-.733-2.279-1.37-3.486-1.912zM39 29.196c.854-.584 1.682-1.207 2.455-1.886.665.597 1.315 1.221 1.912 1.898-.597.665-1.234 1.289-1.898 1.886-.773-.692-1.6-1.315-2.469-1.898zm2.672-2.061c.665-.583 1.289-1.207 1.885-1.871.529.597 1.03 1.22 1.505 1.871-.475.65-.976 1.261-1.505 1.857-.597-.65-1.221-1.274-1.885-1.857zm2.075-2.089c.515-.583 1.017-1.207 1.478-1.844.42.597.813 1.207 1.18 1.844-.366.638-.759 1.248-1.18 1.845-.461-.638-.949-1.248-1.478-1.845zm1.654-2.074c.42-.583.813-1.18 1.18-1.804.325.583.637 1.18.922 1.79-.285.624-.597 1.221-.922 1.804-.38-.611-.759-1.207-1.18-1.79zm-.163-.231c-.461-.638-.962-1.248-1.478-1.831.529-.597 1.017-1.207 1.492-1.844.42.597.814 1.206 1.18 1.844-.38.611-.773 1.235-1.194 1.831zm-1.667-2.048c-.597-.651-1.221-1.274-1.885-1.871.665-.597 1.288-1.221 1.898-1.872.529.597 1.031 1.221 1.492 1.872-.475.651-.976 1.275-1.505 1.871zm-2.102-2.047c-.773-.678-1.6-1.302-2.455-1.885.854-.583 1.682-1.221 2.468-1.898.664.597 1.302 1.221 1.898 1.885-.596.663-1.234 1.301-1.911 1.898zm-2.699-2.048c-1.098-.719-2.251-1.355-3.458-1.898 1.207-.542 2.373-1.18 3.485-1.912.868.583 1.695 1.221 2.481 1.898-.786.678-1.627 1.329-2.508 1.912zm-3.797-2.048c-2.305-.989-4.773-1.654-7.35-1.912 2.549-.257 5.031-.908 7.364-1.925 1.234.542 2.427 1.18 3.553 1.912-1.126.732-2.333 1.369-3.567 1.925zm-9.926-2.061c-3.336 0-6.591-.679-9.601-1.939 2.956-1.247 6.21-1.926 9.601-1.926 3.39 0 6.645.679 9.601 1.926-3.011 1.274-6.279 1.939-9.601 1.939zm-2.577.136c-2.577.271-5.044.922-7.35 1.912-1.248-.543-2.441-1.193-3.58-1.926 1.125-.732 2.319-1.37 3.553-1.912 2.333 1.017 4.828 1.668 7.377 1.926zm-7.689 2.074c-1.207.543-2.36 1.18-3.458 1.898-.868-.583-1.708-1.22-2.509-1.926.787-.678 1.614-1.314 2.481-1.898 1.113.733 2.279 1.384 3.486 1.926zm-3.716 2.062c-.854.569-1.668 1.207-2.455 1.885-.678-.597-1.315-1.234-1.925-1.898.597-.664 1.234-1.288 1.898-1.885.801.677 1.628 1.315 2.482 1.898zm-2.657 2.061c-.665.583-1.289 1.206-1.885 1.871-.529-.597-1.03-1.221-1.505-1.871.475-.651.963-1.275 1.492-1.872.609.665 1.247 1.288 1.898 1.872zm-2.062 2.074c-.515.583-1.017 1.193-1.478 1.831-.42-.597-.813-1.207-1.18-1.845.366-.637.759-1.247 1.18-1.844.461.651.949 1.275 1.478 1.858zm-1.654 2.076c-.42.583-.8 1.18-1.166 1.804-.326-.583-.638-1.193-.922-1.804.285-.61.583-1.207.922-1.79.352.61.745 1.207 1.166 1.79zm-1.329 2.074c-.326.57-.624 1.153-.909 1.75-.258-.569-.488-1.153-.692-1.75.204-.597.448-1.18.692-1.749.285.61.584 1.193.909 1.749zm.163.285c.366.624.759 1.221 1.166 1.804-.42.583-.813 1.18-1.18 1.804-.326-.583-.637-1.18-.922-1.79.298-.625.597-1.235.936-1.818zm1.328 2.034c.461.638.963 1.247 1.479 1.831-.529.596-1.017 1.206-1.492 1.844-.42-.597-.814-1.207-1.18-1.844.38-.61.774-1.234 1.193-1.831zm1.668 2.048c.597.65 1.221 1.274 1.885 1.871-.665.597-1.289 1.221-1.898 1.871-.529-.597-1.031-1.22-1.492-1.871.475-.651.977-1.274 1.505-1.871zm2.103 2.048c.773.678 1.6 1.302 2.455 1.885-.854.583-1.682 1.22-2.468 1.898-.664-.597-1.302-1.221-1.898-1.885.595-.665 1.233-1.302 1.911-1.898zm2.698 2.047c1.098.719 2.251 1.356 3.458 1.898a25.0586 25.0586 0 0 0-3.485 1.912c-.868-.583-1.695-1.22-2.481-1.898.786-.691 1.627-1.329 2.508-1.912zm3.797 2.048c2.306.99 4.773 1.654 7.336 1.912-2.549.258-5.031.908-7.363 1.926-1.234-.543-2.428-1.18-3.553-1.912 1.139-.733 2.346-1.37 3.58-1.926zm9.927 2.061c3.322 0 6.59.678 9.601 1.939-2.956 1.233-6.21 1.925-9.601 1.925-3.391 0-6.645-.678-9.601-1.925 3.01-1.275 6.278-1.939 9.601-1.939zm2.576-.136c2.577-.271 5.045-.922 7.35-1.912 1.248.543 2.441 1.193 3.58 1.926-1.125.732-2.319 1.369-3.553 1.912-2.332-1.017-4.828-1.668-7.377-1.926zm7.689-2.075c1.207-.542 2.36-1.18 3.458-1.898.868.583 1.708 1.221 2.509 1.926-.787.679-1.614 1.315-2.481 1.898-1.113-.732-2.279-1.383-3.486-1.926zm3.716-2.06c.854-.57 1.668-1.207 2.455-1.885.678.596 1.315 1.233 1.925 1.898-.597.664-1.234 1.288-1.898 1.885-.801-.691-1.628-1.329-2.482-1.898zm2.658-2.075c.665-.583 1.288-1.207 1.885-1.871.529.597 1.03 1.221 1.505 1.871-.475.651-.962 1.274-1.492 1.871-.61-.651-1.248-1.275-1.898-1.871zm2.061-2.075c.515-.584 1.017-1.193 1.478-1.831.42.597.813 1.207 1.18 1.844-.366.638-.759 1.248-1.18 1.845-.448-.638-.949-1.262-1.478-1.858zm1.654-2.061c.42-.583.8-1.18 1.166-1.804.326.583.637 1.193.922 1.804-.285.61-.583 1.207-.922 1.79-.352-.611-.745-1.207-1.166-1.79zm1.329-2.089c.326-.569.624-1.152.909-1.749.258.569.488 1.152.692 1.749-.204.597-.448 1.181-.692 1.75-.285-.597-.583-1.18-.909-1.75zm1.072-2.074c.244-.543.461-1.085.678-1.641.19.556.353 1.111.488 1.668-.149.556-.312 1.098-.488 1.641-.204-.57-.435-1.126-.678-1.668zm-.163-.339c-.285-.597-.583-1.18-.909-1.75.326-.556.624-1.125.895-1.722.258.569.488 1.152.692 1.749-.19.597-.421 1.166-.678 1.723zm-1.058-2.021c-.366-.624-.746-1.221-1.167-1.804.407-.57.787-1.166 1.153-1.776.326.583.637 1.18.922 1.79-.284.623-.596 1.22-.908 1.79zm-1.343-2.034c-.461-.638-.949-1.248-1.478-1.831.516-.583.99-1.193 1.451-1.817.42.597.813 1.207 1.193 1.845-.365.623-.745 1.22-1.166 1.803zm-1.654-2.034c-.597-.651-1.22-1.275-1.885-1.872.651-.583 1.274-1.193 1.858-1.844.529.597 1.03 1.221 1.492 1.857-.462.638-.949 1.262-1.465 1.859zm-2.102-2.048c-.773-.678-1.601-1.302-2.455-1.885.841-.569 1.654-1.193 2.427-1.872.122.109.244.204.353.313.542.502 1.058 1.03 1.546 1.573-.569.664-1.207 1.274-1.871 1.871zm-2.685-2.048c-1.099-.719-2.251-1.356-3.458-1.898 1.193-.542 2.346-1.166 3.444-1.898.868.583 1.695 1.207 2.481 1.898-.785.691-1.613 1.315-2.467 1.898zM35 10.4c-2.292-.989-4.76-1.641-7.336-1.912 2.536-.257 5.004-.908 7.323-1.925 1.234.542 2.414 1.18 3.539 1.925C37.4 9.221 36.221 9.858 35 10.4zm-9.953-2.047c-3.323 0-6.577-.664-9.588-1.925 2.997-1.262 6.252-1.939 9.588-1.939 3.335 0 6.577.664 9.587 1.939a24.8208 24.8208 0 0 1-9.587 1.925zm-2.604.135c-2.577.271-5.044.923-7.336 1.912-1.22-.542-2.4-1.18-3.525-1.912 1.125-.731 2.305-1.383 3.539-1.925a24.3188 24.3188 0 0 0 7.322 1.925zm-7.675 2.062c-1.207.542-2.359 1.18-3.458 1.898-.854-.569-1.682-1.207-2.468-1.885.786-.691 1.627-1.329 2.481-1.898 1.098.719 2.251 1.343 3.445 1.885zm-3.716 2.061c-.854.569-1.668 1.207-2.454 1.885-.665-.583-1.289-1.207-1.885-1.858.488-.542 1.003-1.07 1.546-1.572.122-.108.23-.204.353-.313.785.665 1.599 1.289 2.44 1.858zm-2.658 2.061c-.665.584-1.288 1.207-1.885 1.872-.516-.583-1.003-1.207-1.465-1.845.461-.637.963-1.261 1.492-1.857.583.637 1.207 1.247 1.858 1.83zm-2.061 2.075c-.516.583-1.017 1.193-1.479 1.831-.407-.583-.8-1.193-1.166-1.817.366-.624.759-1.248 1.193-1.845.462.638.936 1.248 1.452 1.831zm-1.655 2.075c-.407.583-.8 1.18-1.166 1.803-.326-.569-.624-1.166-.909-1.776.285-.61.583-1.206.922-1.79.367.596.746 1.193 1.153 1.763zm-1.315 2.061c-.326.57-.624 1.153-.909 1.75-.244-.557-.475-1.14-.678-1.723.204-.597.434-1.18.691-1.749.272.597.571 1.166.896 1.722zm-1.071 2.089c-.244.542-.475 1.099-.678 1.654-.176-.542-.339-1.085-.488-1.641.149-.557.312-1.126.488-1.668.217.57.434 1.112.678 1.655zm-.828 2.074c-.176.502-.325 1.004-.475 1.52-.122-.502-.217-1.004-.298-1.52.082-.515.19-1.017.298-1.519.15.53.299 1.032.475 1.519zm.15.434c.203.569.434 1.111.678 1.654-.244.542-.461 1.085-.678 1.641-.19-.556-.353-1.112-.488-1.668.149-.555.312-1.098.488-1.627zm.841 1.994c.285.597.583 1.18.909 1.749-.326.557-.624 1.126-.896 1.723-.257-.569-.488-1.153-.691-1.749.189-.597.42-1.168.678-1.723zm1.057 2.02c.366.624.746 1.221 1.166 1.804-.407.569-.786 1.166-1.152 1.776-.326-.583-.638-1.18-.922-1.79.284-.624.596-1.221.908-1.79zm1.342 2.021c.461.638.95 1.248 1.479 1.831-.516.583-.99 1.193-1.451 1.816-.42-.597-.813-1.206-1.193-1.844.366-.61.746-1.207 1.165-1.803zm1.655 2.048c.597.65 1.22 1.274 1.885 1.871-.651.583-1.275 1.193-1.858 1.845-.529-.597-1.03-1.221-1.492-1.858.462-.651.95-1.262 1.465-1.858zm2.102 2.047c.773.678 1.6 1.302 2.455 1.885-.841.569-1.654 1.193-2.427 1.871-.122-.108-.244-.203-.353-.312-.542-.502-1.058-1.031-1.546-1.573.569-.664 1.207-1.274 1.871-1.871zm2.685 2.048c1.099.718 2.251 1.355 3.458 1.898-1.193.542-2.346 1.166-3.444 1.898-.868-.583-1.695-1.207-2.481-1.898.786-.692 1.613-1.315 2.467-1.898zm3.797 2.047c2.292.99 4.76 1.642 7.336 1.912-2.536.258-5.003.909-7.323 1.926-1.234-.542-2.414-1.18-3.539-1.926 1.126-.732 2.306-1.369 3.526-1.912zm9.954 2.048c3.322 0 6.577.665 9.587 1.926-3.011 1.261-6.252 1.939-9.587 1.939-3.336 0-6.577-.665-9.588-1.939a24.8083 24.8083 0 0 1 9.588-1.926zm2.603-.136c2.577-.271 5.044-.922 7.336-1.912 1.22.543 2.4 1.18 3.526 1.912-1.126.732-2.306 1.384-3.54 1.926a24.3498 24.3498 0 0 0-7.322-1.926zm7.676-2.06c1.207-.543 2.359-1.181 3.458-1.898.854.569 1.682 1.206 2.468 1.885-.786.691-1.614 1.329-2.481 1.898-1.099-.719-2.252-1.343-3.445-1.885zm3.715-2.062c.854-.569 1.668-1.207 2.455-1.885.665.583 1.289 1.207 1.885 1.857-.488.542-1.003 1.071-1.546 1.573-.122.108-.231.203-.353.312-.786-.664-1.6-1.288-2.441-1.857zm2.658-2.061c.665-.583 1.288-1.207 1.885-1.871.516.583 1.003 1.207 1.465 1.844-.461.638-.963 1.262-1.492 1.858-.583-.638-1.207-1.248-1.858-1.831zm2.061-2.075c.516-.584 1.017-1.193 1.478-1.831.407.583.8 1.193 1.167 1.817-.366.623-.759 1.247-1.193 1.844-.462-.636-.936-1.26-1.452-1.83zm1.655-2.075c.407-.583.8-1.18 1.166-1.79.325.569.624 1.166.909 1.776-.285.61-.583 1.207-.922 1.79-.367-.61-.746-1.206-1.153-1.776zm1.315-2.061c.326-.569.624-1.152.909-1.749.244.556.475 1.139.678 1.723-.204.596-.434 1.18-.692 1.749-.271-.597-.569-1.167-.895-1.723zm1.072-2.088c.244-.543.475-1.099.678-1.654.176.542.339 1.085.488 1.641-.149.569-.312 1.125-.488 1.668-.217-.57-.435-1.113-.678-1.655zm.827-2.089c.176-.501.325-1.003.475-1.519.122.502.217 1.004.298 1.519-.082.516-.19 1.018-.298 1.52-.15-.516-.299-1.018-.475-1.52zm.298-6.062c-.135.516-.285 1.018-.461 1.52-.203-.557-.434-1.112-.691-1.655.23-.501.447-1.017.637-1.546.203.543.366 1.112.515 1.681zm-.637-2.101c-.203.556-.42 1.099-.651 1.627-.285-.597-.583-1.18-.909-1.749.312-.529.597-1.085.868-1.641.244.583.475 1.166.692 1.763zm-.854-2.089c-.271.584-.57 1.153-.882 1.695-.366-.61-.759-1.221-1.18-1.804.394-.556.773-1.125 1.125-1.708.353.597.651 1.194.937 1.817zm-1.085-2.088c-.353.597-.732 1.18-1.139 1.749-.461-.637-.949-1.247-1.478-1.83.501-.57.976-1.153 1.424-1.764.433.597.826 1.207 1.193 1.845zm-1.343-2.075c-.461.624-.936 1.221-1.451 1.79-.488-.542-1.003-1.058-1.546-1.56-.108-.095-.217-.189-.326-.284.638-.569 1.248-1.166 1.817-1.804.53.583 1.031 1.207 1.506 1.858zm-1.682-2.088c-.583.65-1.207 1.261-1.844 1.831-.787-.679-1.601-1.315-2.441-1.886.828-.556 1.627-1.166 2.387-1.83.651.597 1.288 1.22 1.898 1.885zm-2.129-2.075c-.773.665-1.586 1.289-2.427 1.858a23.804 23.804 0 0 0-3.458-1.912 25.7467 25.7467 0 0 0 3.39-1.858c.881.583 1.709 1.234 2.495 1.912zm-2.739-2.074c-1.112.719-2.278 1.342-3.471 1.871-2.319-1.004-4.773-1.654-7.323-1.912 2.495-.258 4.909-.895 7.228-1.885 1.234.542 2.427 1.193 3.566 1.926zM25.047.42c3.363 0 6.563.678 9.479 1.898-3.01 1.248-6.197 1.898-9.479 1.898-3.295 0-6.482-.637-9.479-1.898C18.483 1.098 21.684.42 25.047.42zm-9.845 2.048c2.305.99 4.732 1.627 7.228 1.885-2.536.271-5.003.908-7.323 1.912-1.193-.529-2.359-1.152-3.471-1.871 1.138-.733 2.332-1.384 3.566-1.926zm-3.811 2.088c1.085.705 2.21 1.329 3.39 1.858-1.193.542-2.346 1.18-3.458 1.912-.841-.569-1.654-1.18-2.427-1.858.786-.678 1.614-1.329 2.495-1.912zM8.679 6.658c.76.664 1.56 1.274 2.387 1.83-.854.57-1.668 1.207-2.441 1.886-.651-.57-1.262-1.181-1.845-1.831.597-.665 1.234-1.288 1.899-1.885zM6.59 8.76c.583.638 1.193 1.234 1.817 1.804-.108.095-.217.189-.326.285-.542.501-1.058 1.03-1.546 1.559-.501-.569-.99-1.166-1.451-1.79.476-.638.978-1.262 1.506-1.858zm-1.668 2.101c.448.61.922 1.193 1.424 1.764-.529.583-1.017 1.193-1.478 1.83-.393-.569-.787-1.139-1.139-1.749.38-.638.773-1.248 1.193-1.845zM3.58 12.978c.353.583.732 1.152 1.125 1.708-.42.583-.813 1.18-1.18 1.804-.312-.556-.61-1.111-.881-1.695.299-.624.61-1.221.936-1.817zM2.509 15.12c.271.556.556 1.111.868 1.641-.325.569-.637 1.152-.909 1.749-.23-.528-.447-1.071-.651-1.627a21.6 21.6 0 0 1 .692-1.763zm-.841 2.183c.204.529.407 1.045.637 1.546-.244.543-.475 1.085-.691 1.655-.163-.502-.326-1.004-.461-1.52.162-.569.325-1.138.515-1.681zm-.624 2.238c.136.461.271.922.434 1.383-.176.502-.339.99-.475 1.505-.095-.434-.19-.867-.271-1.302.081-.542.19-1.058.312-1.586zm-.434 2.44c.068.339.149.678.244 1.018-.109.406-.204.827-.285 1.233-.041-.271-.067-.556-.095-.827.028-.488.068-.963.136-1.424zM.407 25.06v-.014.014zm.068 1.641c.027-.271.054-.557.095-.828.082.421.176.828.285 1.234-.082.339-.163.678-.244 1.018-.069-.462-.109-.95-.136-1.424zm.257 2.278c.081-.434.163-.867.271-1.302.136.502.298 1.004.475 1.506-.163.447-.298.908-.434 1.383-.122-.529-.231-1.045-.312-1.587zm.434 2.142c.136-.515.285-1.017.461-1.519.203.556.434 1.112.691 1.654-.23.502-.447 1.018-.637 1.546-.203-.555-.366-1.111-.515-1.681zm.638 2.103c.203-.557.42-1.099.651-1.628.285.597.583 1.18.909 1.75-.312.528-.597 1.085-.868 1.641-.245-.584-.475-1.167-.692-1.763zm.854 2.088c.271-.583.57-1.152.881-1.695.366.61.76 1.221 1.18 1.804-.394.557-.773 1.126-1.125 1.709-.353-.598-.651-1.208-.936-1.818zM3.743 37.4c.353-.597.732-1.18 1.139-1.75.461.638.949 1.248 1.478 1.831-.501.569-.976 1.152-1.424 1.763-.434-.597-.827-1.221-1.193-1.844zm1.342 2.075c.461-.624.936-1.22 1.451-1.79.488.543 1.003 1.058 1.546 1.56.108.095.217.19.326.285-.637.569-1.248 1.166-1.817 1.804-.529-.584-1.031-1.208-1.506-1.859zm1.682 2.088c.583-.651 1.207-1.262 1.844-1.831.787.678 1.6 1.315 2.441 1.885-.827.557-1.627 1.166-2.387 1.831-.651-.596-1.288-1.22-1.898-1.885zm2.129 2.075c.773-.664 1.586-1.288 2.427-1.857a23.899 23.899 0 0 0 3.458 1.912 25.6243 25.6243 0 0 0-3.39 1.857 27.0013 27.0013 0 0 1-2.495-1.912zm2.739 2.075c1.112-.719 2.278-1.343 3.471-1.871 2.319 1.003 4.773 1.654 7.323 1.912-2.495.257-4.909.895-7.228 1.885-1.233-.543-2.427-1.194-3.566-1.926zm13.412 3.974c-3.363 0-6.563-.679-9.479-1.899 3.01-1.247 6.197-1.898 9.479-1.898 3.295 0 6.482.638 9.479 1.898-2.916 1.22-6.116 1.899-9.479 1.899zm9.845-2.048c-2.305-.99-4.732-1.628-7.228-1.885 2.536-.271 5.004-.909 7.323-1.912 1.193.528 2.359 1.152 3.471 1.871-1.139.732-2.332 1.383-3.566 1.926zm3.81-2.089c-1.085-.705-2.21-1.329-3.39-1.857a25.476 25.476 0 0 0 3.458-1.912c.841.569 1.654 1.18 2.427 1.857-.786.678-1.614 1.315-2.495 1.912zm2.713-2.102c-.759-.665-1.56-1.274-2.387-1.831.854-.569 1.668-1.207 2.441-1.885.651.569 1.261 1.18 1.844 1.831-.597.665-1.234 1.289-1.898 1.885zm2.088-2.101c-.583-.638-1.193-1.234-1.817-1.804.108-.096.217-.19.326-.285.542-.502 1.058-1.03 1.546-1.56.501.569.99 1.166 1.451 1.79-.476.638-.977 1.262-1.506 1.859zm1.668-2.103c-.448-.61-.922-1.193-1.424-1.763.529-.583 1.017-1.193 1.478-1.831.393.57.787 1.14 1.139 1.75-.38.623-.773 1.247-1.193 1.844zm1.342-2.115c-.353-.583-.732-1.152-1.125-1.709.42-.583.813-1.18 1.18-1.804.312.557.61 1.112.882 1.695-.3.611-.598 1.221-.937 1.818zm1.071-2.143c-.271-.556-.556-1.112-.868-1.641.325-.57.637-1.153.908-1.75.231.529.448 1.071.651 1.628-.202.597-.433 1.18-.691 1.763zm.841-2.183c-.204-.528-.407-1.044-.637-1.546.244-.542.475-1.099.691-1.654.163.502.326 1.004.461 1.519-.162.569-.325 1.125-.515 1.681zm.624-2.238c-.135-.461-.271-.922-.434-1.383.176-.502.339-.99.475-1.506.095.435.19.868.271 1.302-.081.543-.19 1.059-.312 1.587zm.434-2.44c-.068-.34-.149-.679-.244-1.018.108-.406.203-.827.285-1.234.041.271.068.557.095.828-.027.487-.068.962-.136 1.424zm.041-3.893c-.082-.42-.176-.827-.285-1.233.082-.34.163-.679.244-1.018.054.475.109.949.136 1.424-.027.272-.055.556-.095.827zm.163.814c0 .014 0 .014 0 0 0 .014 0 .014 0 0z"/></g></switch>
    </svg>
