<svg fill="none"xmlns="http://www.w3.org/2000/svg" width="80.885" height="48.57"><switch><g><path stroke-width="1"stroke= “#000000”  d="M35.068 32.961s-4.516 1.387-5.546 3.13c-1.387 2.437-4.853 3.13-5.903 3.467-.693.356-4.16 1.387-4.16 1.387s6.24-.356 8.319-2.08c1.743-1.387 3.466-3.467 4.16-3.467.357-.356 1.05-1.05 2.773-1.743 2.08-.693 5.903-2.773 5.903-2.773-2.079.692-3.822 1.386-5.546 2.079zm-2.773-6.596c1.743-.693 3.823 1.05 5.903 2.079 2.437 1.743 4.16 1.743 5.209 2.437 0 .356 3.823.356 5.903 1.743 1.05.693 2.773 1.743 2.773 1.743s-1.387-1.05-2.437-.356c-1.05.356-2.773 1.05-2.773 1.743-.357.693-1.743 1.743-2.437 2.437-1.387 1.387-4.853 3.13-4.853 3.13s5.903-3.13 6.596-3.823c.356-1.05 2.08-2.437 2.08-2.437.693-.356.693-.356 1.05-.356 1.05 0 2.773 0 3.823.693 1.05.356.693.356 2.08.356 1.743.356 2.773 1.05 4.16 1.743 1.743 1.387 3.467 2.437 5.546 3.823 0 0-5.209-4.16-5.546-4.517-.356 0-5.209-1.743-5.903-2.437-1.05-.356-3.13-1.743-3.466-2.08-.357-.356-1.743-1.05-2.437-1.05-.357 0-3.13-.356-3.823-.692-1.05-.357-2.437-1.051-2.773-1.051-.356-.356-.693-.356-.693-.356.356-.356.693 0 1.049-.356 4.517-1.05 3.13-1.743 5.903-2.773 0 0 4.853-.693 7.626 1.744 5.546 5.209 10.399 9.706 16.659 13.886 2.773 1.743 5.21 3.13 7.983 4.853.693.356 1.05.693 1.386.693-1.05.356-.693.693-2.436.356-2.08-.356-2.437.693-4.16-.356-1.05-.693-1.387-.356-2.437-.356-1.387 0-1.05 1.05-3.466.693-2.08 0-2.08.356-3.13-1.05-1.05-1.743-1.387-1.05-3.13-.356-1.387.356-2.08.693-3.466.356-2.437-.356-2.08 1.743-4.16 1.05-2.08-.693-2.08-1.05-3.823 0-1.387.693-2.773.356-4.16-.693-1.744-.693-2.08-.356-3.823-.356-2.08.356-2.437 1.743-3.466 1.743-.693 0-1.743-.693-2.437-1.05-1.387-.693-1.387-.693-2.437-1.387-1.743-1.05-1.743 1.05-3.823.693-1.05 0-1.387-.356-2.437.356-1.05.693-1.386.356-2.437.693-.693.356-2.08 1.05-2.08 1.05-1.05 0-2.437-1.743-3.467-1.743-1.03 0-1.386.356-2.437 0-1.05-.356-1.386-.693-2.436-1.05-2.437-.356-2.08-.693-4.16.693C10.723 46.827 9 48.214 9 48.214c-.357 0-1.387-.356-1.743-.693-1.05 0-1.743-.356-2.437-.693-2.08-.693-2.08-.356-4.16 0-1.05.356-.693-.356 0-.693 1.743-1.387 4.16-2.773 6.24-4.16.693-.356 1.387-.692 2.08-1.05 3.13-2.08 6.596-3.822 10.063-5.902 4.913-3.112 5.269-5.192 13.252-8.658z"/><path stroke-width="1"stroke= “#000000”  d="M58.66 0c2.437 0 4.16 1.386 4.853 3.466 7.29-1.387 8.676 10.063 1.05 10.063-1.387 0-2.773-.693-3.823-2.08-1.386 3.13-4.516 4.516-7.626 3.13-1.05 4.159-5.903 5.546-8.676 2.772-.693.356-1.05.693-1.387.693-2.08 4.16-7.983 1.743-5.903-2.437-2.437-3.466.356-8.676 4.853-8.319 0-6.239 7.626-9.013 11.449-4.16h.693C54.837 1.386 56.58 0 58.66 0z"/><circle cx="39.584" cy="23.929" r="1.743"/><circle cx="35.068" cy="20.462" r=".693"/><circle cx="43.744" cy="22.205" r=".693"/><circle cx="36.098" cy="23.235" r=".356"/><circle cx="49.291" cy="22.898" r=".356"/><circle cx="51.371" cy="19.769" r=".693"/></g></switch></svg>