<svg class="waves" xmlns="http://www.w3.org/2000/svg" viewbox="0 0 123 28" preserveAspectRatio="xMidYMid meet">
  <switch><g><path id="waves"  d="M24.532 5.802c-.249-.172-.446-.325-.656-.458-.471-.287-.803-.096-1.102.274-.274.344-.497.726-.739 1.096-.039.063-.083.185-.058.223.313.408.058.829.064 1.23.369-.363.726-.771 1.146-1.109.542-.439 1.121-.834 1.701-1.223.249-.172.567-.198.803.013.242.21.102.497.02.739-.134.389-.459.618-.777.841-.299.21-.612.401-.994.656.707-.178 1.318-.332 1.936-.491.109-.025.223-.057.332-.102.21-.083.389-.057.542.121.159.185.089.37.006.555-.242.561-.739.841-1.261 1.025-1.115.395-2.249.745-3.383 1.096-.72.223-1.331.624-1.866 1.14-.631.605-1.255 1.21-1.848 1.847-.42.453-.745.994-1.166 1.446-.522.561-1.058 1.127-1.663 1.586-.777.585-1.637 1.064-2.465 1.586-.051.031-.108.05-.21.095.025-.561.032-1.083.096-1.599.013-.108.197-.236.325-.299.573-.273 1.166-.522 1.746-.777.045-.019.076-.051.159-.108-.58.179-1.096.376-1.631.491-.643.134-1.306.21-1.962.287-.879.108-1.758.166-2.631.3-.727.106-1.383-.015-2.058-.283-1.217-.49-2.453-.923-3.682-1.382-.038-.013-.07-.044-.121-.077.204-.585.453-1.153.886-1.598.287-.3.688-.332 1.089-.274.848.127 1.625.478 2.402.821.044.019.089.038.153.057-.344-.637-.873-.942-1.554-1.044-.287-.044-.599-.102-.675-.478-.083-.414-.083-.821.242-1.127.325-.306.726-.204 1.07-.045.911.427 1.644 1.09 2.293 1.854.058.07.121.134.185.198.032-.013.07-.025.102-.038-.038-.191-.025-.408-.115-.574-.395-.745-.987-1.287-1.777-1.605-.102-.045-.254-.191-.242-.249.038-.153.134-.363.261-.408.541-.204 1.038-.013 1.491.28.382.255.764.522 1.121.809.663.522 1.408.848 2.242.95.166.019.357-.039.516-.102.312-.127.624-.268.904-.453.115-.076.141-.28.204-.426.573-.108 1.185-.172 1.771-.338 1.503-.42 2.752-1.3 3.905-2.319.962-.854 1.898-1.732 2.561-2.86.102-.172.242-.325.389-.465.516-.51 1.006-.573 1.637-.223.083.044.165.089.261.146.159-.185.293-.382.465-.522.452-.376.885-.803 1.395-1.083.758-.42 1.51-.325 2.089.312.573-.185 1.102-.414 1.65-.522 1.274-.254 2.153.389 2.344 1.682.038.242.121.318.35.395.765.242 1.122.84 1.224 1.592.095.713-.198 1.287-.79 1.694-.197.134-.427.236-.675.37.344.605.656 1.236.331 1.956-.312.688-.885 1.026-1.624 1.185.178.63.395 1.217.892 1.65 1.453 1.274 3.09 1.555 4.88.834 1.254-.51 2.312-1.338 3.28-2.262 1.351-1.293 2.663-2.618 3.969-3.95 1.262-1.286 2.656-2.369 4.351-3.025.784-.306 1.58-.529 2.44-.458.879.07 1.586.433 2.076 1.172.134.197.255.274.51.261.968-.051 1.866.204 2.644.796 1.089.822 1.338 2.096.637 3.268-.14.236-.312.453-.478.695.063.038.127.076.185.108.943.471 1.287 1.364.905 2.351-.306.784-.879 1.306-1.612 1.688-.095.051-.185.095-.357.178.472.172.892.325 1.313.478 1.439.503 2.917.892 4.427 1.115 2.498.363 4.791-.14 6.912-1.523 1.363-.892 2.777-1.713 4.204-2.503.733-.408 1.535-.688 2.332-1.039.198.344.344.669.554.943.51.675.988 1.395 1.586 1.975.72.694 1.618 1.166 2.676 1.051 1.089-.115 2.044-.58 2.937-1.191 1.191-.815 2.077-1.905 2.822-3.115.993-1.612 1.942-3.261 2.943-4.867.994-1.593 2.127-3.077 3.637-4.217 1.675-1.261 3.536-2.134 5.625-2.42 1.472-.204 2.918-.032 4.281.592.305.14.599.146.917.127.325-.019.663-.019.975.044 1.497.293 1.701 1.796 1.293 2.733-.095.217-.076.351.051.535.28.414.42.886.395 1.382-.038.847-.548 1.439-1.401 1.682-.141.038-.281.07-.415.102-.006.038-.019.063-.013.076.535 1.325 1.313 2.415 2.816 2.72.484.102.943.07 1.376-.325.968-.873 2.051-1.605 3.23-2.185 1.815-.892 3.714-1.032 5.669-.618.146.032.299.032.433.096.637.287 1.217-.083 1.822-.153.656-.083 1.293-.032 1.898.242.892.408 1.274 1.299.943 2.357-.146.452-.134.745.178 1.134.503.631.497 1.383.134 2.096-.363.708-.968 1.039-1.765 1.02-.032 0-.063 0-.096.006-.019 0-.038.013-.019.007.019.375.096.752.039 1.108-.121.751-.631 1.204-1.332 1.44-.204.07-.325.172-.37.375a1.058 1.058 0 0 1-.051.147c-.796 1.509-.65 3 .051 4.491.217.465.433.961.268 1.49-.058.179-.013.497-.382.446-.032-.006-.083.134-.127.204-.58.956-.471.86-1.35.465-1.816-.822-3.071-2.21-3.765-4.07-.21-.561-.344-1.185-.337-1.778.025-1.401.72-2.439 1.981-3.083.159-.077.261-.07.37.095.618.917 1.503 1.217 2.561 1.064.605-.089 1.146-.376 1.624-.733.478-.363.491-1.197.083-1.815-.153-.236-.318-.465-.522-.771.427.127.777.242 1.127.332.625.159 1.204-.077 1.522-.605.325-.535.255-1.325-.159-1.765-.16-.166-.344-.299-.484-.414.14-.503.331-.987.408-1.497.115-.777-.389-1.166-1.058-1.382-.72-.229-1.44-.146-2.122.14-.261.108-.478.057-.726.038-.369-.032-.739-.044-1.115-.051-.471-.006-.949 0-1.465 0 .312.784-.319 1.122-.612 1.656h.637c.574 0 1.134.058 1.631.37.446.28.517.765.21 1.197-.331.472-.822.72-1.331.912-.886.337-1.803.356-2.727.146-.083-.019-.166-.019-.28-.025.127.292.286.554.363.834.287 1.089-.178 1.796-1.216 2.23-.854.356-1.752.363-2.676.299 0 .3.044.599-.007.879-.127.663-.662.873-1.235.981-.796.153-1.599.083-2.376-.102-.873-.204-1.72-.497-2.593-.688-.286-.064-.624.076-.936.127-1.318.204-2.625.197-3.88-.306-.93-.369-1.548-1.102-2.07-1.924-.414-.649-.668-1.338-.681-2.121-.013-.586.305-.994.751-1.261.242-.14.592-.096.886-.146.185-.032.363-.089.535-.166.363-.153.58-.415.542-.835-.006-.102 0-.21 0-.356 1.096.332 1.522-.242 1.637-1.242.675.63 1.376 1.064 2.262.72.885-.35 1.025-1.172 1.14-1.994.847-.038 1.713-.076 2.026-1.089.198-.631-.172-1.37-.975-1.949.058-.02.096-.032.141-.039.586-.159.611-.644.605-1.102-.013-.522-.223-.962-.739-1.185-.478-.204-.968-.128-1.458-.102-.172.013-.37.019-.51-.051-1.121-.58-2.319-.815-3.567-.765-1.176.046-2.31.294-3.374.81.013.032.013.051.025.07.408.446.42.458-.044.847-.599.497-1.21.975-1.815 1.472-.223.179-.421.389-.631.58.019.025.032.051.051.077.077-.039.153-.07.223-.108 1.178-.637 2.408-1.127 3.72-1.401.994-.21 1.847.044 2.542.809.44.484.37 1.134-.185 1.484-.599.376-1.21.675-1.956.701-1.567.051-3.051.49-4.459 1.178-.707.344-1.178.93-1.63 1.542-.064.089-.134.178-.166.344.198-.07.395-.121.586-.21.86-.395 1.758-.676 2.694-.815.306-.051.656-.07.943.019.637.204.79.853.318 1.382-.542.619-1.261.962-2.102 1.007-.344.019-.701.019-1.038.083-.618.114-.95.58-1.223 1.096-.223.414-.427.834-.663 1.242-.268.453-.663.676-1.21.644-.236-.013-.484.026-.72.07-.395.07-.65.446-.465.834.382.815-.038 1.376-.573 1.854-.777.695-1.669 1.23-2.733 1.351-.688.076-1.389.108-2.077.05-1.14-.102-2.172.045-2.988.917-.382.408-.739.834-1.076 1.274-.179.229-.338.414-.669.439-.917.07-1.835.185-2.752.28-.051.007-.102 0-.204 0 .37-.427.727-.802 1.039-1.21.299-.395.567-.815.822-1.236.268-.446.344-.93.235-1.453-.051-.242-.076-.503-.063-.751s-.102-.388-.261-.542c-.746-.682-1.299-1.516-1.822-2.37-.166-.274-.338-.293-.535-.045-1.051 1.344-2.115 2.676-3.344 3.874-.714.694-1.376 1.439-2.083 2.14-1.593 1.567-3.466 2.65-5.676 3.077-1.962.382-3.879.197-5.752-.491-1.637-.599-3.217-1.325-4.574-2.44-.841-.688-1.777-1.268-2.44-2.159-.025-.032-.044-.064-.076-.115.363.038.701.063 1.038.108 1.019.146 1.414-.134 1.714-.911.089-.236.159-.472.223-.713.064-.229.102-.472.153-.72.376-.032.771-.077 1.166-.09.682-.025 1.261-.286 1.751-.745.293-.274.554-.58.816-.885.044-.051.051-.172.032-.249-.159-.618-.637-.879-1.204-1.025-.153-.038-.306-.064-.529-.108.108-.115.191-.197.268-.287.318-.389.694-.752.937-1.185.465-.847.159-1.841-.631-2.389-.885-.618-1.815-.796-2.847-.599-.274-.331-.516-.663-.784-.961-.325-.37-.771-.503-1.249-.529-1.261-.07-2.351.427-3.434.994-1.682.885-2.892 2.313-4.224 3.605-.197.197-.388.408-.643.681.255 0 .407-.006.561 0 .439.032.63.376.471.784-.306.79-.911 1.332-1.535 1.854-.051.038-.096.083-.147.121-.044.032-.089.057-.14.083.019.026.038.057.063.083.28-.159.574-.306.828-.49.733-.529 1.484-1.039 2.166-1.625.37-.312.605-.777.911-1.166.426-.535.994-.834 1.663-.93.35-.05.694.198.834.548.21.516.159.854-.204 1.14-.369.293-.751.58-1.134.854-.656.478-1.319.937-1.968 1.42-.14.102-.249.255-.344.402-.051.076-.032.197-.058.363.688-.458 1.3-.879 1.918-1.287.923-.611 1.86-1.197 2.943-1.484.274-.07.573-.083.854-.051.351.038.688.197.784.573.089.382-.089.708-.35.988-.841.911-1.854 1.554-3.058 1.873-1.331.344-2.42 1.121-3.478 1.962-1.21.962-2.453 1.879-3.803 2.637-.873.491-1.72 1.013-2.694 1.268-.586.153-1.198.217-1.796.331-.433.083-.86.179-1.287.268-1.006.21-2.025.204-3.045.114-.981-.089-1.905-.363-2.765-.809-.688-.35-1.332-.802-1.937-1.28-1.032-.809-1.708-1.898-2.179-3.115-.599-1.548-.293-2.943.752-4.205.121-.146.242-.287.375-.44.644.79 1.446.969 2.357.675.796-.261 1.191-.853 1.249-1.675.389.077.765.147 1.141.229.72.153 1.471-.363 1.503-1.095.006-.198-.204-.414-.351-.599-.083-.102-.229-.153-.344-.223.026-.051.051-.102.077-.153.255-.063.51-.121.758-.191.516-.153.942-.458 1.07-.975.134-.516-.006-1.02-.414-1.421-.293-.293-.631-.299-1.013-.242-.038-.287-.063-.586-.121-.886-.191-1.044-.904-1.427-1.898-1.134-.497.146-.956.408-1.433.618-.083.038-.172.083-.255.121-.019-.013-.038-.02-.044-.032-.395-.93-1.249-.885-1.917-.465-.65.408-1.134.968-1.593 1.567-.072.04-.13.11-.187.18zm82.222 5.79c-1.421-.293-2.631-.917-3.606-2.039-.019.121-.039.198-.044.28-.058 1 .408 1.727 1.255 2.186.885.478 1.77.453 2.395-.427zm-73.125 7.753c1.956.828 4.313-.096 4.714-2.013-1.414.994-2.93 1.733-4.714 2.013zm35.228-3.038c-.713.35-1.402.751-2.141 1.032-.732.28-1.516.427-2.268.631.829.337 1.708.478 2.618.235 1.001-.262 1.568-.931 1.791-1.898zm36.253-2.918c-1.172-.127-1.797-.42-2.574-.937-.249-.159-.37-.114-.395.179-.006.102-.006.216.032.313.229.611.713.968 1.325 1.083.618.114 1.179-.077 1.612-.638zm-74.475 3.975c.975 1.325 3.185 1.726 4.103.408-.675 0-1.376.05-2.07-.013-.689-.071-1.364-.261-2.033-.395zm-3.096-3.72c-.006.44.337.816.745.829.395.006.841-.415.841-.796.006-.421-.351-.784-.778-.79-.483-.014-.795.279-.808.757zm-14.206 1.56c1.146-.095 2.268-1.185 2.414-2.178-.063.025-.121.044-.172.076-.688.395-1.376.796-2.064 1.191-.051.025-.115.083-.121.127-.018.262-.037.523-.057.784zm73.476-.834c.076-.522-.402-.796-.727-.822-.376-.025-.809.402-.803.765.006.408.351.751.765.758.509.006.765-.223.765-.701zm13.109-2.809c0-.452-.306-.771-.739-.764-.401.006-.771.356-.791.751-.019.401.363.777.791.777.453 0 .739-.293.739-.764zm16.659 7.058c-.503.223-.746.822-.586 1.415.166.625.904 1.141 1.274 1.063-.23-.822-.459-1.65-.688-2.478zm-14.142-3.485c-.427-.083-.828-.14-1.217-.235-.395-.096-.777-.236-1.178-.357 0 .121-.007.23 0 .332.044.516.592 1.013 1.07.949.509-.077.949-.294 1.325-.689zm-40.49 4.81c-1.039-.146-2.064-.293-3.096-.434.561 1.192 2.102 1.218 3.096.434zm-31.284-4.65c.013-.44-.281-.752-.701-.758-.408-.007-.758.331-.764.72-.007.349.394.744.757.744.344 0 .701-.362.708-.706zm83.093 3.815c0 .401.274.72.637.732.382.013.713-.299.72-.682.006-.375-.331-.72-.688-.713-.362.013-.662.313-.669.663zm1.797-.853c.401 0 .631-.242.669-.618.039-.364-.306-.727-.663-.72-.382 0-.694.325-.688.713.007.357.287.619.682.625zm-14.83-4.797c0-.401-.273-.694-.643-.701-.357-.006-.65.293-.656.656 0 .408.255.682.65.682.388.007.649-.255.649-.637zm-.057-1.726c0 .408.299.726.675.713.313-.006.675-.401.669-.713-.006-.313-.37-.669-.675-.682-.383-.007-.669.287-.669.682zm-13.792.643c-.006.37.28.682.637.688.312.006.663-.337.656-.649-.006-.37-.287-.644-.675-.644-.376 0-.618.229-.618.605zm-29.686 5.338c-.375-.006-.668.255-.675.599-.013.312.337.675.649.688.306.006.669-.344.682-.663.013-.331-.293-.624-.656-.624zm-29.641-1.478c.274-.006.535-.274.529-.535-.006-.28-.306-.573-.574-.567-.267.006-.528.293-.516.573.007.293.268.536.561.529zm-13.976-3.49c.287-.268.535-.503.847-.796-.885.101-.981.197-.847.796z"/><path   d="M2.485 20.849c.605.051 1.274.114 1.949.172.599.051 1.197.115 1.796.127 1.039.019 2.083.051 3.122 0 2.497-.121 4.924-.554 7.141-1.791 1.637-.911 2.956-2.172 3.917-3.796.089-.153.178-.3.287-.479.325.484.612.956.937 1.401.796 1.083 1.542 2.205 2.535 3.128.867.802 1.854 1.408 2.924 1.885.522.236 1.07.42 1.625.593-.058-.051-.115-.109-.166-.159 3.841 1.178 7.651.726 11.454-.185-.038.191-.127.382-.089.535.044.166.185.332.331.433.223.16.529.045.714-.217.197-.273.121-.541-.229-.866.567-.197 1.146-.369 1.701-.605 1.281-.542 2.484-1.236 3.396-2.313.854-1.019 1.631-2.109 2.453-3.185.796 1.064 1.35 2.243 1.229 3.65-.178 2.121-1.223 3.777-2.841 5.103-1.491 1.217-3.198 2.044-5.045 2.542-1.478.395-2.988.682-4.491.949-.668.121-1.376.058-2.063.095-2.147.128-4.236-.191-6.3-.777-.841-.236-1.701-.42-2.548-.65-.159-.044-.299-.185-.42-.306-.102-.102-.146-.255-.229-.375-.408-.618-.822-.79-1.548-.65-.115.019-.223.038-.389.07.242-.427.37-.866.108-1.268-.172-.274-.439-.529-.72-.675-.625-.319-1.102-.077-1.631.758-.115-.663-.382-1.217-1.083-1.332-.911-.146-1.484.382-1.911 1.159-.051-.306-.07-.566-.146-.815-.159-.522-.478-.644-.956-.382-.204.108-.395.242-.592.37v-1.625c-.79.299-1.599.542-2.338.911-.338.172-.586.567-.815.904-.319.465-.554.975-.866 1.44-.733 1.102-1.816 1.58-3.103 1.644-1.803.089-3.529-.344-5.23-.873-.554-.171-1.045-.191-1.593.006-.821.306-1.663.542-2.548.822-.025-.204-.051-.382-.07-.567-.051-.471-.121-.949-.14-1.42-.006-.134.115-.287.204-.401.701-.879 1.414-1.745 2.115-2.625.066-.074.085-.188.162-.36zm29.386 2.981c-3.102-.484-5.867-1.65-8.332-3.567.019.063.038.121.063.171.338.771.917 1.332 1.58 1.815.942.695 2.019 1.115 3.134 1.434.841.242 1.714.37 2.593.313.319-.014.637-.109.962-.166zm-15.257-3.6c2.396.471 4.205-1.21 4.217-2.829-1.217 1.25-2.593 2.218-4.217 2.829zm22.615 4.39c.458 0 .866-.408.86-.86 0-.478-.42-.905-.892-.911-.421-.007-.879.465-.886.911 0 .446.433.86.918.86zm3.121-.828c0-.414-.217-.637-.605-.637-.351 0-.682.313-.675.65.006.306.344.625.669.631.356.005.611-.256.611-.644z"/><path   d="M113.105 23.339c-10.466-.65-20.875-1.3-31.387-1.949.389-.555.739-1.039 1.077-1.535.58-.841 1.446-1.07 2.395-1.172.911-.096 1.835-.159 2.708-.497.707-.273 1.217-.758 1.599-1.401.395-.656.816-1.313 1.542-1.656.293-.14.605-.242.904-.369.357-.153.701-.319 1.045-.472.146.478.28.988.458 1.484.37 1.032 1.096 1.739 2.103 2.134.796.312 1.605.63 2.427.86.663.185 1.35.242 2.051.133 1.025-.159 2.057-.235 3.077-.401.917-.153 1.784.006 2.637.312 1.172.42 2.198.121 3.21-.529.567-.363 1.217-.599 1.834-.886.07-.031.166-.031.249-.038.625-.013.663.044.535.65-.21 1.019-.337 2.064.051 3.058.243.612.676 1.153 1.039 1.72.134.178.28.338.446.554z"/></g></switch>
</svg>